<mxfile host="Electron" agent="Mozilla/5.0 (Macintosh; Intel Mac OS X 10_15_7) AppleWebKit/537.36 (KHTML, like Gecko) draw.io/24.7.8 Chrome/128.0.6613.36 Electron/32.0.1 Safari/537.36" version="24.7.8">
  <diagram name="SAP Private Link service_L2" id="nmI2Dh4W5Q2zdxKn0IIN">
    <mxGraphModel dx="1026" dy="681" grid="1" gridSize="10" guides="1" tooltips="1" connect="1" arrows="1" fold="1" page="1" pageScale="1" pageWidth="1169" pageHeight="827" math="0" shadow="0">
      <root>
        <mxCell id="0" />
        <mxCell id="1" parent="0" />
        <mxCell id="r2Ocmoq0C5dt8iKspmja-105" value="" style="rounded=1;whiteSpace=wrap;html=1;strokeColor=#475E75;fillColor=#F5F6F7;arcSize=24;absoluteArcSize=1;imageWidth=64;imageHeight=64;strokeWidth=1.5;" parent="1" vertex="1">
          <mxGeometry x="1264.25" y="87" width="264" height="563" as="geometry" />
        </mxCell>
        <mxCell id="r2Ocmoq0C5dt8iKspmja-106" value="" style="rounded=1;whiteSpace=wrap;html=1;strokeColor=#0070F2;fillColor=#EBF8FF;arcSize=24;absoluteArcSize=1;imageWidth=64;imageHeight=64;strokeWidth=1.5;fontFamily=Arial;" parent="1" vertex="1">
          <mxGeometry x="160" y="67" width="1030" height="664" as="geometry" />
        </mxCell>
        <mxCell id="r2Ocmoq0C5dt8iKspmja-107" value="" style="rounded=1;whiteSpace=wrap;html=1;strokeColor=#0070f2;strokeWidth=1.5;arcSize=24;fillColor=#FFFFFF;perimeterSpacing=0;absoluteArcSize=1;fontFamily=Arial;" parent="1" vertex="1">
          <mxGeometry x="179" y="127" width="992" height="451" as="geometry" />
        </mxCell>
        <mxCell id="r2Ocmoq0C5dt8iKspmja-108" value="" style="endArrow=blockThin;html=1;strokeColor=#475E75;bendable=1;rounded=0;endFill=1;endSize=4;strokeWidth=1.5;startSize=4;exitX=0.495;exitY=1.098;exitDx=0;exitDy=0;exitPerimeter=0;entryX=0.5;entryY=0;entryDx=0;entryDy=0;entryPerimeter=0;fontFamily=Arial;" parent="1" source="r2Ocmoq0C5dt8iKspmja-112" target="r2Ocmoq0C5dt8iKspmja-110" edge="1">
          <mxGeometry width="50" height="50" relative="1" as="geometry">
            <mxPoint x="82.73999999999978" y="191.61000000000013" as="sourcePoint" />
            <mxPoint x="81.23999999999978" y="260.6100000000001" as="targetPoint" />
            <Array as="points" />
          </mxGeometry>
        </mxCell>
        <mxCell id="r2Ocmoq0C5dt8iKspmja-109" value="" style="group;fontFamily=Arial;" parent="1" vertex="1" connectable="0">
          <mxGeometry x="29" y="238" width="105" height="110" as="geometry" />
        </mxCell>
        <mxCell id="r2Ocmoq0C5dt8iKspmja-110" value="" style="shape=image;verticalLabelPosition=bottom;verticalAlign=top;imageAspect=0;aspect=fixed;image=data:image/svg+xml,PHN2ZyB4bWxucz0iaHR0cDovL3d3dy53My5vcmcvMjAwMC9zdmciIGZpbGw9Im5vbmUiIHZpZXdCb3g9IjAgMCAxNyAxNyIgaGVpZ2h0PSIxNyIgd2lkdGg9IjE3Ij4mI3hhOzxnIGNsaXAtcGF0aD0idXJsKCNjbGlwMF8yXzI4NzkzKSI+JiN4YTs8cGF0aCBmaWxsPSJ1cmwoI3BhaW50MF9saW5lYXJfMl8yODc5MykiIGQ9Ik04Ljg4ODg3IDExLjI5MTRDOC44ODg4NyAxMS43MzE0IDguNTI4ODcgMTIuMDkxNCA4LjA4ODg3IDEyLjA5MTRINy4yODg4N1YxMy42MzU0SDguMDg4ODdDOC41Mjg4NyAxMy42MzU0IDguODg4ODcgMTMuOTk1NCA4Ljg4ODg3IDE0LjQzNTRDOC44ODg4NyAxNC44NzU0IDguNTI4ODcgMTUuMjM1NCA4LjA4ODg3IDE1LjIzNTRINC4wODg4N0MzLjY0ODg3IDE1LjIzNTQgMy4yODg4NyAxNC44NzU0IDMuMjg4ODcgMTQuNDM1NEMzLjI4ODg3IDEzLjk5NTQgMy42NDg4NyAxMy42MzU0IDQuMDg4ODcgMTMuNjM1NEg1LjY4ODg3VjEyLjA5MTRIMi40ODg4N0MxLjE2ODg3IDEyLjA5MTQgMC4wODg4NjcyIDExLjA3NTQgMC4wODg4NjcyIDkuODI3NFYzLjk1NTRDMC4wODg4NjcyIDIuNzA3NCAxLjE2ODg3IDEuNjgzNCAyLjQ4ODg3IDEuNjk5NEgxMS4yODg5QzEyLjYwODkgMS42OTk0IDEzLjY4ODkgMi43MTU0IDEzLjY4ODkgMy45NjM0QzEzLjY4ODkgNC40MDM0IDEzLjMyODkgNC43Nzk0IDEyLjg4ODkgNC43Nzk0QzEyLjQ0ODkgNC43Nzk0IDEyLjA4ODkgNC40MzU0IDEyLjA4ODkgMy45OTU0QzEyLjA4ODkgMy41ODc0IDExLjcyODkgMy4yOTE0IDExLjI4ODkgMy4yOTE0SDIuNDg4ODdDMi4wNDg4NyAzLjI5MTQgMS42ODg4NyAzLjU4NzQgMS42ODg4NyAzLjk1NTRWOS44Mjc0QzEuNjg4ODcgMTAuMTk1NCAyLjA0ODg3IDEwLjQ5MTQgMi40ODg4NyAxMC40OTE0SDguMDg4ODdDOC41Mjg4NyAxMC40OTE0IDguODg4ODcgMTAuODUxNCA4Ljg4ODg3IDExLjI5MTRaTTkuNjg4ODcgNy40MDMzOUM5LjY4ODg3IDYuMjk5MzkgMTAuNTg0OSA1LjQwMzM5IDExLjY4ODkgNS40MDMzOUgxNC4wODg5QzE1LjE5MjkgNS40MDMzOSAxNi4wODg5IDYuMjk5MzkgMTYuMDg4OSA3LjQwMzM5VjEzLjIzNTRDMTYuMDg4OSAxNC4zMzk0IDE1LjE5MjkgMTUuMjM1NCAxNC4wODg5IDE1LjIzNTRIMTEuNjg4OUMxMC41ODQ5IDE1LjIzNTQgOS42ODg4NyAxNC4zMzk0IDkuNjg4ODcgMTMuMjM1NFY3LjQwMzM5Wk0xNC4wODg5IDEzLjYzNTRDMTQuMzEyOSAxMy42MzU0IDE0LjQ4ODkgMTMuNDU5NCAxNC40ODg5IDEzLjIzNTRWNy40MDMzOUMxNC40ODg5IDcuMTc5MzkgMTQuMzEyOSA3LjAwMzM5IDE0LjA4ODkgNy4wMDMzOUgxMS42ODg5QzExLjQ2NDkgNy4wMDMzOSAxMS4yODg5IDcuMTc5MzkgMTEuMjg4OSA3LjQwMzM5VjEzLjIzNTRDMTEuMjg4OSAxMy40NTk0IDExLjQ2NDkgMTMuNjM1NCAxMS42ODg5IDEzLjYzNTRIMTQuMDg4OVoiIGNsaXAtcnVsZT0iZXZlbm9kZCIgZmlsbC1ydWxlPSJldmVub2RkIi8+JiN4YTs8L2c+JiN4YTs8ZGVmcz4mI3hhOzxsaW5lYXJHcmFkaWVudCBncmFkaWVudFVuaXRzPSJ1c2VyU3BhY2VPblVzZSIgeTI9IjE1LjIzNTQiIHgyPSI4LjA4ODg3IiB5MT0iMS42OTkyMiIgeDE9IjguMDg4ODciIGlkPSJwYWludDBfbGluZWFyXzJfMjg3OTMiPiYjeGE7PHN0b3Agc3RvcC1jb2xvcj0iIzVCNzM4QiIvPiYjeGE7PHN0b3Agc3RvcC1jb2xvcj0iIzIyMzU0OCIgb2Zmc2V0PSIxIi8+JiN4YTs8L2xpbmVhckdyYWRpZW50PiYjeGE7PGNsaXBQYXRoIGlkPSJjbGlwMF8yXzI4NzkzIj4mI3hhOzxyZWN0IHRyYW5zZm9ybT0idHJhbnNsYXRlKDAuMDg4ODY3MiAwLjQ1ODk4NCkiIGZpbGw9IndoaXRlIiBoZWlnaHQ9IjE2IiB3aWR0aD0iMTYiLz4mI3hhOzwvY2xpcFBhdGg+JiN4YTs8L2RlZnM+JiN4YTs8L3N2Zz4=;strokeWidth=1.5;points=[[0,0.25,0,0,0],[0,0.5,0,0,0],[0,0.75,0,0,0],[0.25,0,0,0,0],[0.25,1,0,0,0],[0.5,0,0,0,0],[0.5,1,0,0,0],[0.75,0,0,0,0],[0.75,1,0,0,0],[1,0.25,0,0,0],[1,0.5,0,0,0],[1,0.75,0,0,0]];fontFamily=Arial;" parent="r2Ocmoq0C5dt8iKspmja-109" vertex="1">
          <mxGeometry x="40" y="20" width="30" height="30" as="geometry" />
        </mxCell>
        <mxCell id="r2Ocmoq0C5dt8iKspmja-111" value="&lt;font style=&quot;font-size: 14px;&quot; color=&quot;#1d2d3e&quot;&gt;Application &lt;br&gt;Clients&lt;/font&gt;" style="text;html=1;align=center;verticalAlign=middle;resizable=0;points=[];autosize=1;strokeColor=none;fillColor=none;fontSize=12;fontColor=default;fontFamily=Arial;strokeWidth=1.5;" parent="r2Ocmoq0C5dt8iKspmja-109" vertex="1">
          <mxGeometry x="9" y="46" width="92" height="48" as="geometry" />
        </mxCell>
        <mxCell id="r2Ocmoq0C5dt8iKspmja-112" value="&lt;font style=&quot;font-size: 12px;&quot; color=&quot;#1d2d3e&quot;&gt;End User&lt;/font&gt;" style="text;html=1;align=center;verticalAlign=middle;resizable=0;points=[];autosize=1;strokeColor=none;fillColor=none;fontSize=12;fontColor=default;fontFamily=Arial;strokeWidth=1.5;" parent="1" vertex="1">
          <mxGeometry x="49" y="193" width="72" height="28" as="geometry" />
        </mxCell>
        <mxCell id="r2Ocmoq0C5dt8iKspmja-113" value="" style="shape=image;verticalLabelPosition=bottom;verticalAlign=top;imageAspect=0;aspect=fixed;image=data:image/svg+xml,PHN2ZyB4bWxucz0iaHR0cDovL3d3dy53My5vcmcvMjAwMC9zdmciIGZpbGw9Im5vbmUiIHZpZXdCb3g9IjAgMCAxNyAxNyIgaGVpZ2h0PSIxNyIgd2lkdGg9IjE3Ij4mI3hhOzxwYXRoIGZpbGw9InVybCgjcGFpbnQwX2xpbmVhcl8yXzI4Nzk4KSIgZD0iTTAuMjEzODY3IDguNTUyNzNDMC4yMTM4NjcgNy40Njk0IDAuNDIyMjAxIDYuNDU4OTggMC44Mzg4NjcgNS41MjE0OEMxLjI1NTUzIDQuNTYzMTUgMS44MTgwMyAzLjcyOTgyIDIuNTI2MzcgMy4wMjE0OEMzLjIzNDcgMi4zMTMxNSA0LjA2ODAzIDEuNzUwNjUgNS4wMjYzNyAxLjMzMzk4QzUuOTg0NyAwLjkxNzMxOCA3LjAwNTUzIDAuNzA4OTg0IDguMDg4ODcgMC43MDg5ODRDOS4xNzIyIDAuNzA4OTg0IDEwLjE4MjYgMC45MTczMTggMTEuMTIwMSAxLjMzMzk4QzEyLjA3ODUgMS43NTA2NSAxMi45MTE4IDIuMzEzMTUgMTMuNjIwMSAzLjAyMTQ4QzE0LjMyODUgMy43Mjk4MiAxNC44OTEgNC41NjMxNSAxNS4zMDc2IDUuNTIxNDhDMTUuNzI0MyA2LjQ1ODk4IDE1LjkzMjYgNy40Njk0IDE1LjkzMjYgOC41NTI3M0MxNS45MzI2IDkuNjM2MDcgMTUuNzI0MyAxMC42NTY5IDE1LjMwNzYgMTEuNjE1MkMxNC44OTEgMTIuNTczNiAxNC4zMjg1IDEzLjQwNjkgMTMuNjIwMSAxNC4xMTUyQzEyLjkxMTggMTQuODIzNiAxMi4wNzg1IDE1LjM4NjEgMTEuMTIwMSAxNS44MDI3QzEwLjE4MjYgMTYuMjE5NCA5LjE3MjIgMTYuNDI3NyA4LjA4ODg3IDE2LjQyNzdDNy4wMDU1MyAxNi40Mjc3IDUuOTg0NyAxNi4yMTk0IDUuMDI2MzcgMTUuODAyN0M0LjA2ODAzIDE1LjM4NjEgMy4yMzQ3IDE0LjgyMzYgMi41MjYzNyAxNC4xMTUyQzEuODE4MDMgMTMuNDA2OSAxLjI1NTUzIDEyLjU3MzYgMC44Mzg4NjcgMTEuNjE1MkMwLjQyMjIwMSAxMC42NTY5IDAuMjEzODY3IDkuNjM2MDcgMC4yMTM4NjcgOC41NTI3M1pNOS42NTEzNyAxMC45Mjc3QzEwLjMxOCAxMC45Mjc3IDEwLjkzMjYgMTEuMDg0IDExLjQ5NTEgMTEuMzk2NUMxMi4wNTc2IDExLjY4ODIgMTIuNTE2IDEyLjA5NDQgMTIuODcwMSAxMi42MTUyQzEzLjM0OTMgMTIuMDczNiAxMy43MTM5IDExLjQ1OSAxMy45NjM5IDEwLjc3MTVDMTQuMjM0NyAxMC4wODQgMTQuMzcwMSA5LjM0NDQgMTQuMzcwMSA4LjU1MjczQzE0LjM3MDEgNy42Nzc3MyAxNC4yMDM1IDYuODY1MjMgMTMuODcwMSA2LjExNTIzQzEzLjUzNjggNS4zNDQ0IDEzLjA4ODkgNC42Nzc3MyAxMi41MjY0IDQuMTE1MjNDMTEuOTYzOSAzLjU1MjczIDExLjI5NzIgMy4xMDQ4MiAxMC41MjY0IDIuNzcxNDhDOS43NzYzNyAyLjQzODE1IDguOTYzODcgMi4yNzE0OCA4LjA4ODg3IDIuMjcxNDhDNy4yMTM4NyAyLjI3MTQ4IDYuMzkwOTUgMi40MzgxNSA1LjYyMDEyIDIuNzcxNDhDNC44NzAxMiAzLjEwNDgyIDQuMjAzNDUgMy41NTI3MyAzLjYyMDEyIDQuMTE1MjNDMy4wNTc2MiA0LjY3NzczIDIuNjA5NyA1LjM0NDQgMi4yNzYzNyA2LjExNTIzQzEuOTQzMDMgNi44NjUyMyAxLjc3NjM3IDcuNjc3NzMgMS43NzYzNyA4LjU1MjczQzEuNzc2MzcgOS4zNDQ0IDEuOTAxMzcgMTAuMDg0IDIuMTUxMzcgMTAuNzcxNUMyLjQyMjIgMTEuNDU5IDIuNzk3MiAxMi4wNzM2IDMuMjc2MzcgMTIuNjE1MkMzLjYzMDUzIDEyLjA5NDQgNC4wODg4NyAxMS42ODgyIDQuNjUxMzcgMTEuMzk2NUM1LjIxMzg3IDExLjA4NCA1LjgyODQ1IDEwLjkyNzcgNi40OTUxMiAxMC45Mjc3SDkuNjUxMzdaTTExLjIxMzkgNi45OTAyM0MxMS4yMTM5IDcuNDI3NzMgMTEuMTMwNSA3Ljg0NDQgMTAuOTYzOSA4LjI0MDIzQzEwLjc5NzIgOC42MTUyMyAxMC41NjggOC45NDg1NyAxMC4yNzY0IDkuMjQwMjNDMTAuMDA1NSA5LjUxMTA3IDkuNjgyNjIgOS43Mjk4MiA5LjMwNzYyIDkuODk2NDhDOC45MzI2MiAxMC4wNjMyIDguNTI2MzcgMTAuMTQ2NSA4LjA4ODg3IDEwLjE0NjVDNy42NTEzNyAxMC4xNDY1IDcuMjM0NyAxMC4wNjMyIDYuODM4ODcgOS44OTY0OEM2LjQ2Mzg3IDkuNzI5ODIgNi4xMzA1MyA5LjUxMTA3IDUuODM4ODcgOS4yNDAyM0M1LjU2ODAzIDguOTQ4NTcgNS4zNDkyOCA4LjYxNTIzIDUuMTgyNjIgOC4yNDAyM0M1LjAxNTk1IDcuODQ0NCA0LjkzMjYyIDcuNDI3NzMgNC45MzI2MiA2Ljk5MDIzQzQuOTMyNjIgNi41NTI3MyA1LjAxNTk1IDYuMTQ2NDggNS4xODI2MiA1Ljc3MTQ4QzUuMzQ5MjggNS4zOTY0OCA1LjU2ODAzIDUuMDYzMTUgNS44Mzg4NyA0Ljc3MTQ4QzYuMTMwNTMgNC40Nzk4MiA2LjQ2Mzg3IDQuMjUwNjUgNi44Mzg4NyA0LjA4Mzk4QzcuMjM0NyAzLjkxNzMyIDcuNjUxMzcgMy44MzM5OCA4LjA4ODg3IDMuODMzOThDOC41MjYzNyAzLjgzMzk4IDguOTMyNjIgMy45MTczMiA5LjMwNzYyIDQuMDgzOThDOS42ODI2MiA0LjI1MDY1IDEwLjAwNTUgNC40Nzk4MiAxMC4yNzY0IDQuNzcxNDhDMTAuNTY4IDUuMDYzMTUgMTAuNzk3MiA1LjM5NjQ4IDEwLjk2MzkgNS43NzE0OEMxMS4xMzA1IDYuMTQ2NDggMTEuMjEzOSA2LjU1MjczIDExLjIxMzkgNi45OTAyM1pNOS42NTEzNyA2Ljk5MDIzQzkuNjUxMzcgNi41NTI3MyA5LjQ5NTEyIDYuMTg4MTUgOS4xODI2MiA1Ljg5NjQ4QzguODcwMTIgNS41ODM5OCA4LjUwNTUzIDUuNDI3NzMgOC4wODg4NyA1LjQyNzczQzcuNjUxMzcgNS40Mjc3MyA3LjI3NjM3IDUuNTgzOTggNi45NjM4NyA1Ljg5NjQ4QzYuNjUxMzcgNi4xODgxNSA2LjQ5NTEyIDYuNTUyNzMgNi40OTUxMiA2Ljk5MDIzQzYuNDk1MTIgNy40Mjc3MyA2LjY1MTM3IDcuODAyNzMgNi45NjM4NyA4LjExNTIzQzcuMjc2MzcgOC40MDY5IDcuNjUxMzcgOC41NTI3MyA4LjA4ODg3IDguNTUyNzNDOC41MDU1MyA4LjU1MjczIDguODcwMTIgOC40MDY5IDkuMTgyNjIgOC4xMTUyM0M5LjQ5NTEyIDcuODAyNzMgOS42NTEzNyA3LjQyNzczIDkuNjUxMzcgNi45OTAyM1pNNC40NjM4NyAxMy43MDlDNC45NjM4NyAxNC4wNjMyIDUuNTE1OTUgMTQuMzQ0NCA2LjEyMDEyIDE0LjU1MjdDNi43NDUxMiAxNC43NjExIDcuNDAxMzcgMTQuODY1MiA4LjA4ODg3IDE0Ljg2NTJDOC43NTU1MyAxNC44NjUyIDkuMzkwOTUgMTQuNzYxMSA5Ljk5NTEyIDE0LjU1MjdDMTAuNjIwMSAxNC4zNDQ0IDExLjE4MjYgMTQuMDYzMiAxMS42ODI2IDEzLjcwOUMxMS40NzQzIDEzLjMzNCAxMS4xODI2IDEzLjA0MjMgMTAuODA3NiAxMi44MzRDMTAuNDUzNSAxMi42MDQ4IDEwLjA2OCAxMi40OTAyIDkuNjUxMzcgMTIuNDkwMkg2LjQ5NTEyQzYuMDc4NDUgMTIuNDkwMiA1LjY4MjYyIDEyLjYwNDggNS4zMDc2MiAxMi44MzRDNC45NTM0NSAxMy4wNDIzIDQuNjcyMiAxMy4zMzQgNC40NjM4NyAxMy43MDlaIi8+JiN4YTs8ZGVmcz4mI3hhOzxsaW5lYXJHcmFkaWVudCBncmFkaWVudFVuaXRzPSJ1c2VyU3BhY2VPblVzZSIgeTI9IjE2LjQyNzciIHgyPSI4LjA3MzI0IiB5MT0iMC43MDg5ODQiIHgxPSI4LjA3MzI0IiBpZD0icGFpbnQwX2xpbmVhcl8yXzI4Nzk4Ij4mI3hhOzxzdG9wIHN0b3AtY29sb3I9IiM1QjczOEIiLz4mI3hhOzxzdG9wIHN0b3AtY29sb3I9IiMyMjM1NDgiIG9mZnNldD0iMSIvPiYjeGE7PC9saW5lYXJHcmFkaWVudD4mI3hhOzwvZGVmcz4mI3hhOzwvc3ZnPg==;strokeWidth=1.5;fontFamily=Arial;" parent="1" vertex="1">
          <mxGeometry x="70" y="167" width="30" height="30" as="geometry" />
        </mxCell>
        <mxCell id="r2Ocmoq0C5dt8iKspmja-114" value="&lt;font style=&quot;font-size: 16px;&quot;&gt;&lt;font style=&quot;font-size: 16px;&quot; color=&quot;#0070f2&quot;&gt;&lt;b&gt;SAP Private Link service&amp;nbsp;&lt;/b&gt;&lt;/font&gt;&lt;/font&gt;&lt;b style=&quot;border-color: var(--border-color); color: rgb(0, 112, 242); font-family: arial; font-size: 16px;&quot;&gt;- SAP BTP Solution Diagram&lt;/b&gt;" style="text;html=1;align=left;verticalAlign=middle;resizable=0;points=[];autosize=1;strokeColor=none;fillColor=none;fontSize=12;fontColor=default;fontFamily=Arial;" parent="1" vertex="1">
          <mxGeometry x="42" y="27" width="430" height="30" as="geometry" />
        </mxCell>
        <mxCell id="r2Ocmoq0C5dt8iKspmja-115" value="&lt;font style=&quot;&quot; size=&quot;1&quot;&gt;&lt;span style=&quot;font-size: 12px;&quot;&gt;Multi-Cloud&lt;/span&gt;&lt;/font&gt;" style="text;html=1;align=left;verticalAlign=middle;resizable=0;points=[];autosize=1;strokeColor=none;fillColor=none;fontSize=14;fontColor=#1D2D3E;fontFamily=Arial;fontStyle=0" parent="1" vertex="1">
          <mxGeometry x="200" y="157" width="80" height="30" as="geometry" />
        </mxCell>
        <mxCell id="r2Ocmoq0C5dt8iKspmja-116" value="&lt;font style=&quot;font-size: 16px;&quot;&gt;&lt;b style=&quot;font-size: 16px;&quot;&gt;Subaccount&lt;/b&gt;&lt;/font&gt;" style="text;html=1;align=left;verticalAlign=middle;resizable=0;points=[];autosize=1;strokeColor=none;fillColor=none;fontSize=12;fontColor=#1d2d3e;fontFamily=Arial;" parent="1" vertex="1">
          <mxGeometry x="200" y="137" width="120" height="30" as="geometry" />
        </mxCell>
        <mxCell id="r2Ocmoq0C5dt8iKspmja-117" value="" style="rounded=1;whiteSpace=wrap;html=1;strokeColor=#cc00dc;fillColor=#FFF0FA;arcSize=24;absoluteArcSize=1;imageWidth=64;imageHeight=64;strokeWidth=1.5;fontFamily=Arial;" parent="1" vertex="1">
          <mxGeometry x="550" y="200" width="196" height="146" as="geometry" />
        </mxCell>
        <mxCell id="r2Ocmoq0C5dt8iKspmja-118" value="" style="rounded=1;whiteSpace=wrap;html=1;fillColor=#eaf8ff;align=center;verticalAlign=middle;strokeColor=#0070f2;fontColor=default;strokeWidth=1.5;arcSize=24;fontStyle=1;spacingTop=0;spacingLeft=0;spacing=8;imageWidth=64;imageHeight=64;absoluteArcSize=1;fontFamily=Arial;" parent="1" vertex="1">
          <mxGeometry x="565" y="254" width="165" height="71" as="geometry" />
        </mxCell>
        <mxCell id="r2Ocmoq0C5dt8iKspmja-119" value="&lt;span style=&quot;font-size: 12px; font-style: normal; font-variant-ligatures: normal; font-variant-caps: normal; letter-spacing: normal; orphans: 2; text-align: center; text-indent: 0px; text-transform: none; widows: 2; word-spacing: 0px; -webkit-text-stroke-width: 0px; text-decoration-thickness: initial; text-decoration-style: initial; text-decoration-color: initial; float: none; display: inline !important;&quot;&gt;&lt;font color=&quot;#1d2d3e&quot;&gt;&amp;nbsp;Application Service&lt;/font&gt;&lt;/span&gt;" style="text;whiteSpace=wrap;html=1;fontStyle=1;fontColor=#595959;fontFamily=Arial;" parent="1" vertex="1">
          <mxGeometry x="570" y="254" width="155" height="20" as="geometry" />
        </mxCell>
        <mxCell id="r2Ocmoq0C5dt8iKspmja-120" value="&lt;font style=&quot;font-weight: normal;&quot; color=&quot;#1d2d3e&quot;&gt;Application Logic&lt;/font&gt;" style="rounded=1;whiteSpace=wrap;html=1;fillColor=#ffffff;strokeColor=#0070F2;fontColor=default;strokeWidth=1.5;arcSize=16;fontStyle=1;spacingTop=0;spacingLeft=0;spacing=8;imageWidth=64;imageHeight=64;absoluteArcSize=1;fontFamily=Helvetica;align=center;verticalAlign=middle;fontSize=12;" parent="1" vertex="1">
          <mxGeometry x="575" y="286" width="145" height="20" as="geometry" />
        </mxCell>
        <mxCell id="r2Ocmoq0C5dt8iKspmja-121" value="&lt;font color=&quot;#5b738b&quot; style=&quot;font-size: 14px;&quot;&gt;&lt;b style=&quot;font-size: 14px;&quot;&gt;NETWORK&lt;/b&gt;&lt;/font&gt;" style="text;html=1;align=center;verticalAlign=middle;resizable=0;points=[];autosize=1;strokeColor=none;fillColor=none;fontSize=14;fontColor=default;fontFamily=Arial;" parent="1" vertex="1">
          <mxGeometry x="1212.87" y="52" width="100" height="30" as="geometry" />
        </mxCell>
        <mxCell id="r2Ocmoq0C5dt8iKspmja-122" style="edgeStyle=orthogonalEdgeStyle;rounded=0;orthogonalLoop=1;jettySize=auto;html=1;entryX=0;entryY=0.5;entryDx=0;entryDy=0;strokeColor=#475e75;strokeWidth=1.5;align=center;verticalAlign=middle;fontFamily=Arial;fontSize=12;fontColor=default;labelBackgroundColor=default;startArrow=none;startFill=0;startSize=4;endArrow=blockThin;endFill=1;endSize=4;" parent="1" source="r2Ocmoq0C5dt8iKspmja-149" target="r2Ocmoq0C5dt8iKspmja-141" edge="1">
          <mxGeometry relative="1" as="geometry">
            <mxPoint x="1122" y="383.8199999999997" as="sourcePoint" />
            <mxPoint x="1245" y="383.82000000000016" as="targetPoint" />
            <Array as="points">
              <mxPoint x="1139" y="240" />
              <mxPoint x="1139" y="351" />
            </Array>
          </mxGeometry>
        </mxCell>
        <mxCell id="r2Ocmoq0C5dt8iKspmja-123" value="" style="rounded=0;whiteSpace=wrap;html=1;strokeColor=#eaecee;strokeWidth=1.5;arcSize=16;fillColor=#FFFFFF;perimeterSpacing=0;imageHeight=24;absoluteArcSize=1;points=[];connectable=0;container=0;" parent="1" vertex="1">
          <mxGeometry x="1264.25" y="684" width="264.5" height="137" as="geometry" />
        </mxCell>
        <mxCell id="r2Ocmoq0C5dt8iKspmja-124" value="&lt;font size=&quot;1&quot; style=&quot;&quot; face=&quot;arial&quot; color=&quot;#1d2d3e&quot;&gt;&lt;b style=&quot;font-size: 12px;&quot;&gt;Legend&lt;/b&gt;&lt;/font&gt;" style="text;html=1;align=left;verticalAlign=top;resizable=0;points=[];autosize=1;strokeColor=none;fillColor=none;fontSize=12;fontColor=default;fontFamily=Helvetica;" parent="1" vertex="1">
          <mxGeometry x="1285.248205128205" y="685" width="61" height="26" as="geometry" />
        </mxCell>
        <mxCell id="r2Ocmoq0C5dt8iKspmja-125" value="" style="ellipse;whiteSpace=wrap;html=1;aspect=fixed;strokeColor=none;fillColor=#475E75;fontColor=#475E75;" parent="1" vertex="1">
          <mxGeometry x="1285.62" y="712.5" width="16" height="16" as="geometry" />
        </mxCell>
        <mxCell id="r2Ocmoq0C5dt8iKspmja-126" value="" style="shape=image;verticalLabelPosition=bottom;verticalAlign=top;imageAspect=0;aspect=fixed;image=data:image/svg+xml,PHN2ZyB4bWxucz0iaHR0cDovL3d3dy53My5vcmcvMjAwMC9zdmciIGZpbGw9Im5vbmUiIHZpZXdCb3g9IjAgMCA0OSA0OSIgaGVpZ2h0PSI0OSIgd2lkdGg9IjQ5Ij4mI3hhOzxjaXJjbGUgc3Ryb2tlLXdpZHRoPSIwLjg1NzE0MyIgc3Ryb2tlPSIjRDVEQUREIiBmaWxsPSJ1cmwoI3BhaW50MF9saW5lYXJfMjYyMl8yMDQ3NSkiIHI9IjIzLjU3MTQiIGN5PSIyNC4wMzQ5IiBjeD0iMjQuNSIvPiYjeGE7PHBhdGggZmlsbD0idXJsKCNwYWludDFfcmFkaWFsXzI2MjJfMjA0NzUpIiBkPSJNMjQuMzkzMSAxMi4yMzcxQzIwLjExMDcgMTIuMjM3MSAxNy4wNjgxIDE1LjcyMzEgMTYuNTYxMSAxOS4zNjI1QzE1LjE4MzYgMTkuNDQ0NCAxMy45NjcyIDE5Ljk2MjEgMTMuMDIyNSAyMC44MzE3QzExLjc0NDUgMjIuMDA4MSAxMS4wODQ0IDIzLjcxNTYgMTEuMDg0NCAyNS41MTYzQzExLjA4NDQgMjcuMTg5NyAxMS41OTIgMjguNzcxNSAxMi43MzE2IDI5Ljk0MDlDMTMuNTg2MSAzMC44MTc4IDE0LjcwNzcgMzEuMzcyNCAxNi4wMTcgMzEuNTk4NEMxNi4xMzc2IDMxLjM1MzUgMTYuMjczNSAzMS4xMTY4IDE2LjQyNTIgMzAuODg5MkwxNi40NDEgMzAuODY1NUwxNi40NTQ4IDMwLjg0NjFDMTYuNzA2OSAzMC40OTAxIDE2Ljk5NDggMzAuMTY2IDE3LjMxNjkgMjkuODc2MUMxNy4xODMxIDI5LjQzMTcgMTcuMTE4IDI4Ljk2NDUgMTcuMTE4IDI4LjQ4MzVDMTcuMTE4IDI3Ljg1NDkgMTcuMjM4NiAyNy4yNDEzIDE3LjQ4NDkgMjYuNjU5MkMxNy43MiAyNi4xMDMzIDE4LjA1MTMgMjUuNjAwMSAxOC40ODI0IDI1LjE2OTFDMTguOTE4IDI0LjczMzQgMTkuNDI1IDI0LjM5MTYgMTkuOTkyNiAyNC4xNTE1QzIwLjU3NDcgMjMuOTA1MiAyMS4xODgyIDIzLjc4NDYgMjEuODE2OCAyMy43ODQ2QzIyLjA3NTkgMjMuNzg0NiAyMi4zMzI0IDIzLjgwNTEgMjIuNTg1MyAyMy44NDY0QzIyLjkwNjUgMjMuNjE3OSAyMy4yNTIyIDIzLjQyNTEgMjMuNjIwNCAyMy4yNjkzQzI0LjI4NTEgMjIuOTg4MSAyNC45ODYzIDIyLjg0OTcgMjUuNzA4OSAyMi44NDk3QzI2LjQzMTYgMjIuODQ5NyAyNy4xMzI3IDIyLjk4ODEgMjcuNzk3NSAyMy4yNjkzQzI4LjQ0MzYgMjMuNTQyNyAyOS4wMTc2IDIzLjkzMjYgMjkuNTA0MyAyNC40MzY1QzMwLjAwODIgMjQuOTIzMiAzMC4zOTgxIDI1LjQ5NzIgMzAuNjcxNSAyNi4xNDMzQzMwLjk1MjcgMjYuODA4MSAzMS4wOTExIDI3LjUwOTMgMzEuMDkxMSAyOC4yMzE5QzMxLjA5MTEgMjguOTI1MiAzMC45NjM3IDI5LjU5ODggMzAuNzA1IDMwLjIzOTVDMzEuMTk2OSAzMC42Mjg4IDMxLjYzNDYgMzEuMDg3NyAzMi4wMTUyIDMxLjYxMjdDMzUuMjc5MiAzMS4wNDI2IDM3Ljk5OTkgMjguMzY4IDM3Ljk5OTkgMjQuMzU5MUMzNy45OTk5IDIwLjM3NTEgMzUuMTUyNiAxNy4zMTM1IDMxLjcyNDcgMTYuOTg5N0MzMC4zNTA3IDE0LjE0ODMgMjcuOCAxMi4yMzcxIDI0LjM5MzEgMTIuMjM3MVoiIGNsaXAtcnVsZT0iZXZlbm9kZCIgZmlsbC1ydWxlPSJldmVub2RkIi8+JiN4YTs8cGF0aCBmaWxsPSJ1cmwoI3BhaW50Ml9yYWRpYWxfMjYyMl8yMDQ3NSkiIGQ9Ik0yOC4zMzY4IDMwLjgwNzhDMjkuMzA4MiAzMS4xODk0IDMwLjA5NzQgMzEuODEzOCAzMC43MDQ1IDMyLjY4MTFDMzEuMzExNiAzMy41NDg0IDMxLjYxNTIgMzQuNTI4NSAzMS42MTUyIDM1LjYyMTNWMzcuMTA0NEMzMS42MTUyIDM3LjMxMjUgMzEuNTM3MSAzNy40ODYgMzEuMzgxIDM3LjYyNDdDMzEuMjQyMiAzNy43NjM1IDMxLjA3NzQgMzcuODMyOSAzMC44ODY2IDM3LjgzMjlIMjkuNDAzNkMyOS4xOTU0IDM3LjgzMjkgMjkuMDEzMyAzNy43NjM1IDI4Ljg1NzIgMzcuNjI0N0MyOC43MTg0IDM3LjQ4NiAyOC42NDkgMzcuMzEyNSAyOC42NDkgMzcuMTA0NEMyOC42NDkgMzYuODk2MiAyOC43MTg0IDM2LjcyMjcgMjguODU3MiAzNi41ODRDMjkuMDEzMyAzNi40Mjc5IDI5LjE5NTQgMzYuMzQ5OCAyOS40MDM2IDM2LjM0OThIMzAuMTMyMVYzNS42MjEzQzMwLjEzMjEgMzUuMTE4MiAzMC4wMzY3IDM0LjY0MTIgMjkuODQ1OSAzNC4xOTAyQzI5LjY1NTEgMzMuNzM5MiAyOS4zODYyIDMzLjM0OSAyOS4wMzkzIDMzLjAxOTRDMjguNzA5NyAzMi42NzI1IDI4LjMxOTUgMzIuNDAzNiAyNy44Njg1IDMyLjIxMjhDMjcuNDM0OCAzMi4wMjIgMjYuOTU3OCAzMS45MjY2IDI2LjQzNzUgMzEuOTI2NkgyNC45ODA0QzI0LjQ2IDMxLjkyNjYgMjMuOTc0NCAzMi4wMjIgMjMuNTIzNCAzMi4yMTI4QzIzLjA4OTcgMzIuNDAzNiAyMi42OTk0IDMyLjY3MjUgMjIuMzUyNSAzMy4wMTk0QzIyLjAyMyAzMy4zNDkgMjEuNzYyOCAzMy43MzkyIDIxLjU3MiAzNC4xOTAyQzIxLjM4MTIgMzQuNjQxMiAyMS4yODU4IDM1LjExODIgMjEuMjg1OCAzNS42MjEzVjM2LjM0OThIMjIuMDE0M0MyMi4yMjI0IDM2LjM0OTggMjIuMzk1OSAzNi40Mjc5IDIyLjUzNDcgMzYuNTg0QzIyLjY3MzQgMzYuNzIyNyAyMi43NDI4IDM2Ljg5NjIgMjIuNzQyOCAzNy4xMDQ0QzIyLjc0MjggMzcuMzEyNSAyMi42NzM0IDM3LjQ4NiAyMi41MzQ3IDM3LjYyNDdDMjIuMzk1OSAzNy43NjM1IDIyLjIyMjQgMzcuODMyOSAyMi4wMTQzIDM3LjgzMjlIMjAuNTMxMkMyMC4zNDA0IDM3LjgzMjkgMjAuMTY3IDM3Ljc2MzUgMjAuMDEwOSAzNy42MjQ3QzE5Ljg3MjEgMzcuNDg2IDE5LjgwMjcgMzcuMzEyNSAxOS44MDI3IDM3LjEwNDRMMTkuODAyNyAzNi4wNTAySDE3LjgyMzRDMTcuNjMyOCAzNi4wNTAyIDE3LjQ2MTYgMzUuOTc5NSAxNy4zMTQ2IDM1Ljg0ODhMMTcuMzA3NSAzNS44NDI1QzE3LjE2ODEgMzUuNzAzMSAxNy4wOTk4IDM1LjUyNzEgMTcuMDk5OCAzNS4zMjY1VjM0LjE4MjdDMTcuMDk5OCAzMy43MzkyIDE3LjE2MjEgMzMuMzIxIDE3LjI4ODEgMzIuOTI5MUwxNy4yODkyIDMyLjkyNTlDMTcuNDI3MiAzMi41MjU2IDE3LjYwNzEgMzIuMTU4NiAxNy44MjkzIDMxLjgyNTNMMTcuODMxOCAzMS44MjE1QzE4LjA2NzggMzEuNDg4MyAxOC4zNDU4IDMxLjE5NjQgMTguNjY1MiAzMC45NDYxQzE4LjkyNDIgMzAuNzMyNCAxOS4yMDU5IDMwLjU1NSAxOS41MTAxIDMwLjQxNEMxOS4wMzk4IDI5Ljg4ODUgMTguODA1NSAyOS4yNDE5IDE4LjgwNTUgMjguNDgzNUMxOC44MDU1IDI4LjA3NDUgMTguODgzMiAyNy42ODUxIDE5LjAzOSAyNy4zMTY3QzE5LjE5MzkgMjYuOTUwNyAxOS40MDYgMjYuNjMyIDE5LjY3NTYgMjYuMzYyM0MxOS45NTc5IDI2LjA4MDEgMjAuMjgzIDI1Ljg2MDkgMjAuNjUwMSAyNS43MDU2QzIxLjAxODQgMjUuNTQ5OCAyMS40MDc4IDI1LjQ3MjEgMjEuODE2OCAyNS40NzIxQzIyLjIyNTkgMjUuNDcyMSAyMi42MTUyIDI1LjU0OTggMjIuOTgzNiAyNS43MDU2TDIzLjAwMDggMjUuNzEzQzIzLjAyNzEgMjUuNjg0OSAyMy4wNTM4IDI1LjY1NzMgMjMuMDgxIDI1LjYzQzIzLjQyOCAyNS4yODMxIDIzLjgyNjkgMjUuMDE0MiAyNC4yNzc5IDI0LjgyMzRDMjQuNzI4OSAyNC42MzI2IDI1LjIwNTkgMjQuNTM3MiAyNS43MDg5IDI0LjUzNzJDMjYuMjEyIDI0LjUzNzIgMjYuNjg5IDI0LjYzMjYgMjcuMTQgMjQuODIzNEMyNy41OTA5IDI1LjAxNDIgMjcuOTgxMiAyNS4yODMxIDI4LjMxMDggMjUuNjNDMjguNjU3NyAyNS45NTk2IDI4LjkyNjYgMjYuMzQ5OSAyOS4xMTc0IDI2LjgwMDlDMjkuMzA4MiAyNy4yNTE5IDI5LjQwMzYgMjcuNzI4OSAyOS40MDM2IDI4LjIzMTlDMjkuNDAzNiAyOC43MzQ5IDI5LjMwODIgMjkuMjEyIDI5LjExNzQgMjkuNjYzQzI4LjkyNjYgMzAuMDk2NiAyOC42NjY0IDMwLjQ3ODIgMjguMzM2OCAzMC44MDc4Wk0yMC4wMzY5IDM0LjA2MDFDMTkuOTgyMiAzNC4yMzAxIDE5LjkzNzIgMzQuNDA0MyAxOS45MDE3IDM0LjU4MjdIMTguNTY3MlYzNC4xODI3QzE4LjU2NzIgMzMuODE1NyAxOC42MzY3IDMzLjQ2OTMgMTguNzc1MiAzMy4xNDJDMTguOTE0NiAzMi44MTI0IDE5LjEwMzkgMzIuNTI5IDE5LjM0MjYgMzIuMjkwM0MxOS41OTYyIDMyLjAzNjcgMTkuODgwMyAzMS44NDEyIDIwLjE5NTMgMzEuNzAyNEMyMC41MjE2IDMxLjU2NDUgMjAuODc0MyAzMS40OTQ5IDIxLjI1NDkgMzEuNDk0OUgyMS44NzA4QzIxLjgzMTUgMzEuNTI1NCAyMS43OTI2IDMxLjU1NjYgMjEuNzU0MSAzMS41ODg0QzIxLjM1NTEgMzEuOTAwNiAyMS4wMDgyIDMyLjI2NDggMjAuNzEzNCAzMi42ODExQzIwLjQzNTggMzMuMDk3NCAyMC4yMTAzIDMzLjU1NzEgMjAuMDM2OSAzNC4wNjAxWk0yNS43MDg5IDI2LjAyMDNDMjUuMTAxOCAyNi4wMjAzIDI0LjU4MTUgMjYuMjM3MSAyNC4xNDc4IDI2LjY3MDhDMjMuNzE0MiAyNy4xMDQ0IDIzLjQ5NzMgMjcuNjI0OCAyMy40OTczIDI4LjIzMTlDMjMuNDk3MyAyOC44MzkgMjMuNzE0MiAyOS4zNTk0IDI0LjE0NzggMjkuNzkzQzI0LjU4MTUgMzAuMjI2NyAyNS4xMDE4IDMwLjQ0MzUgMjUuNzA4OSAzMC40NDM1QzI2LjMxNiAzMC40NDM1IDI2LjgzNjQgMzAuMjI2NyAyNy4yNyAyOS43OTNDMjcuNzAzNyAyOS4zNTk0IDI3LjkyMDUgMjguODM5IDI3LjkyMDUgMjguMjMxOUMyNy45MjA1IDI3LjYyNDggMjcuNzAzNyAyNy4xMDQ0IDI3LjI3IDI2LjY3MDhDMjYuODM2NCAyNi4yMzcxIDI2LjMxNiAyNi4wMjAzIDI1LjcwODkgMjYuMDIwM1pNMjIuMDE0MyAyOC4yMzE5QzIyLjAxNDMgMjguODU5NiAyMi4xNDM2IDI5LjQyMTEgMjIuNDAyMyAyOS45MTYzQzIyLjIyMjMgMjkuOTkwNiAyMi4wMjc1IDMwLjAyNzQgMjEuODE2OCAzMC4wMjc0QzIxLjM5MiAzMC4wMjc0IDIxLjAzMTcgMjkuODc3NiAyMC43MjcyIDI5LjU3MzFDMjAuNDIyOCAyOS4yNjg3IDIwLjI3MjkgMjguOTA4MyAyMC4yNzI5IDI4LjQ4MzVDMjAuMjcyOSAyOC4wNTg3IDIwLjQyMjggMjcuNjk4MyAyMC43MjcyIDI3LjM5MzlDMjEuMDMxNyAyNy4wODk0IDIxLjM5MiAyNi45Mzk2IDIxLjgxNjggMjYuOTM5NkMyMS45NjA1IDI2LjkzOTYgMjIuMDk2OSAyNi45NTY3IDIyLjIyNjIgMjYuOTkxMkMyMi4wODQ5IDI3LjM4NTUgMjIuMDE0MyAyNy43OTkxIDIyLjAxNDMgMjguMjMxOVoiIGNsaXAtcnVsZT0iZXZlbm9kZCIgZmlsbC1ydWxlPSJldmVub2RkIi8+JiN4YTs8ZGVmcz4mI3hhOzxsaW5lYXJHcmFkaWVudCBncmFkaWVudFVuaXRzPSJ1c2VyU3BhY2VPblVzZSIgeTI9IjQ0LjI3OTIiIHgyPSI0MS41NjQ1IiB5MT0iNi44NDc3NSIgeDE9IjQuODUyODciIGlkPSJwYWludDBfbGluZWFyXzI2MjJfMjA0NzUiPiYjeGE7PHN0b3Agc3RvcC1jb2xvcj0id2hpdGUiLz4mI3hhOzxzdG9wIHN0b3AtY29sb3I9IiNFQUVDRUUiIG9mZnNldD0iMSIvPiYjeGE7PC9saW5lYXJHcmFkaWVudD4mI3hhOzxyYWRpYWxHcmFkaWVudCBncmFkaWVudFRyYW5zZm9ybT0idHJhbnNsYXRlKDE1LjI1ODMgMTUuOTk1NCkgcm90YXRlKDQzLjg3NzkpIHNjYWxlKDI1Ljg1MjQgNDguODExNykiIGdyYWRpZW50VW5pdHM9InVzZXJTcGFjZU9uVXNlIiByPSIxIiBjeT0iMCIgY3g9IjAiIGlkPSJwYWludDFfcmFkaWFsXzI2MjJfMjA0NzUiPiYjeGE7PHN0b3Agc3RvcC1jb2xvcj0iIzAxOTVGRiIvPiYjeGE7PHN0b3Agc3RvcC1jb2xvcj0iIzExNDdFOSIgb2Zmc2V0PSIxIi8+JiN4YTs8L3JhZGlhbEdyYWRpZW50PiYjeGE7PHJhZGlhbEdyYWRpZW50IGdyYWRpZW50VHJhbnNmb3JtPSJ0cmFuc2xhdGUoMTUuMjUyMiAxNi4wODc2KSByb3RhdGUoNDMuNTYwMikgc2NhbGUoMjUuODcyNyAyMy41NDcxKSIgZ3JhZGllbnRVbml0cz0idXNlclNwYWNlT25Vc2UiIHI9IjEiIGN5PSIwIiBjeD0iMCIgaWQ9InBhaW50Ml9yYWRpYWxfMjYyMl8yMDQ3NSI+JiN4YTs8c3RvcCBzdG9wLWNvbG9yPSIjMTM0OEZGIi8+JiN4YTs8c3RvcCBzdG9wLWNvbG9yPSIjMDYyMzhEIiBvZmZzZXQ9IjEiLz4mI3hhOzwvcmFkaWFsR3JhZGllbnQ+JiN4YTs8L2RlZnM+JiN4YTs8L3N2Zz4=;points=[[0,0,0,0,0],[0,0.25,0,0,0],[0,0.5,0,0,0],[0,0.75,0,0,0],[0.25,0,0,0,0],[0.5,0,0,0,0],[0.75,0,0,0,0],[1,0,0,0,0],[1,0.25,0,0,0],[1,0.5,0,0,0],[1,0.75,0,0,0]];" parent="1" vertex="1">
          <mxGeometry x="1285.62" y="761" width="16" height="16" as="geometry" />
        </mxCell>
        <mxCell id="r2Ocmoq0C5dt8iKspmja-127" value="&lt;div style=&quot;font-size: 10px; line-height: 100%;&quot;&gt;&lt;span style=&quot;font-family: arial; font-size: 10px; background-color: initial;&quot;&gt;&lt;font style=&quot;font-size: 10px;&quot;&gt;SAP BTP service&lt;/font&gt;&lt;/span&gt;&lt;/div&gt;" style="text;html=1;align=left;verticalAlign=middle;resizable=0;points=[];autosize=1;strokeColor=none;fillColor=none;fontSize=10;fontColor=#1D2D3E;fontFamily=Helvetica;labelPosition=center;verticalLabelPosition=middle;" parent="1" vertex="1">
          <mxGeometry x="1308.62" y="758.5" width="94" height="22" as="geometry" />
        </mxCell>
        <mxCell id="r2Ocmoq0C5dt8iKspmja-128" value="" style="endArrow=blockThin;html=1;strokeColor=#CC00DC;bendable=1;rounded=0;endFill=1;endSize=4;strokeWidth=1.5;startSize=4;startArrow=blockThin;startFill=1;entryX=0.04;entryY=0.52;entryDx=0;entryDy=0;entryPerimeter=0;" parent="1" edge="1">
          <mxGeometry width="50" height="50" relative="1" as="geometry">
            <mxPoint x="1428.75" y="721" as="sourcePoint" />
            <mxPoint x="1448.75" y="720.9200000000001" as="targetPoint" />
            <Array as="points" />
          </mxGeometry>
        </mxCell>
        <mxCell id="r2Ocmoq0C5dt8iKspmja-129" value="&lt;div style=&quot;font-size: 10px; line-height: 100%;&quot;&gt;&lt;span style=&quot;font-family: arial; font-size: 10px; background-color: initial;&quot;&gt;&lt;font style=&quot;font-size: 10px;&quot;&gt;Mutual Trust&lt;/font&gt;&lt;/span&gt;&lt;/div&gt;" style="text;html=1;align=left;verticalAlign=middle;resizable=0;points=[];autosize=1;strokeColor=none;fillColor=none;fontSize=10;fontColor=#1D2D3E;fontFamily=Helvetica;labelPosition=center;verticalLabelPosition=middle;" parent="1" vertex="1">
          <mxGeometry x="1453.25" y="708.46" width="73" height="23" as="geometry" />
        </mxCell>
        <mxCell id="r2Ocmoq0C5dt8iKspmja-130" value="&lt;div style=&quot;font-size: 10px; line-height: 100%;&quot;&gt;&lt;span style=&quot;font-family: arial; font-size: 10px; background-color: initial;&quot;&gt;&lt;font style=&quot;font-size: 10px;&quot;&gt;Access&lt;/font&gt;&lt;/span&gt;&lt;/div&gt;" style="text;html=1;align=left;verticalAlign=middle;resizable=0;points=[];autosize=1;strokeColor=none;fillColor=none;fontSize=10;fontColor=#1D2D3E;fontFamily=Helvetica;labelPosition=center;verticalLabelPosition=middle;" parent="1" vertex="1">
          <mxGeometry x="1309.62" y="707.96" width="56" height="24" as="geometry" />
        </mxCell>
        <mxCell id="r2Ocmoq0C5dt8iKspmja-131" value="&lt;div style=&quot;font-size: 10px; line-height: 100%;&quot;&gt;&lt;font face=&quot;arial&quot;&gt;Optional&lt;/font&gt;&lt;/div&gt;" style="text;html=1;align=left;verticalAlign=middle;resizable=0;points=[];autosize=1;strokeColor=none;fillColor=none;fontSize=10;fontColor=#1D2D3E;fontFamily=Helvetica;labelPosition=center;verticalLabelPosition=middle;" parent="1" vertex="1">
          <mxGeometry x="1453.25" y="732.96" width="60" height="20" as="geometry" />
        </mxCell>
        <mxCell id="r2Ocmoq0C5dt8iKspmja-132" value="&lt;span style=&quot;font-style: normal; font-variant-ligatures: normal; font-variant-caps: normal; letter-spacing: normal; orphans: 2; text-align: center; text-indent: 0px; text-transform: none; widows: 2; word-spacing: 0px; -webkit-text-stroke-width: 0px; text-decoration-thickness: initial; text-decoration-style: initial; text-decoration-color: initial; float: none; display: inline !important;&quot;&gt;&lt;b style=&quot;&quot;&gt;&lt;font style=&quot;font-size: 12px;&quot; color=&quot;#1d2d3e&quot;&gt;SAP Cloud Application Programming Model (CAP)&lt;/font&gt;&lt;/b&gt;&lt;/span&gt;" style="text;whiteSpace=wrap;html=1;fontFamily=Arial;" parent="1" vertex="1">
          <mxGeometry x="565" y="209" width="159" height="35" as="geometry" />
        </mxCell>
        <mxCell id="r2Ocmoq0C5dt8iKspmja-133" style="edgeStyle=orthogonalEdgeStyle;rounded=0;orthogonalLoop=1;jettySize=auto;html=1;endArrow=block;endFill=1;strokeColor=#188918;strokeWidth=1.5;entryX=0;entryY=0.5;entryDx=0;entryDy=0;exitX=1;exitY=0.5;exitDx=0;exitDy=0;" parent="1" source="r2Ocmoq0C5dt8iKspmja-192" target="r2Ocmoq0C5dt8iKspmja-136" edge="1">
          <mxGeometry relative="1" as="geometry">
            <mxPoint x="1285" y="301.25" as="targetPoint" />
            <Array as="points">
              <mxPoint x="1235" y="657" />
              <mxPoint x="1235" y="222" />
            </Array>
            <mxPoint x="941" y="721.23" as="sourcePoint" />
          </mxGeometry>
        </mxCell>
        <mxCell id="r2Ocmoq0C5dt8iKspmja-134" value="&lt;font face=&quot;arial&quot; style=&quot;font-size: 16px;&quot;&gt;&lt;b style=&quot;font-size: 16px;&quot;&gt;Hyperscaler&lt;/b&gt;&lt;/font&gt;" style="text;html=1;align=left;verticalAlign=middle;resizable=0;points=[];autosize=1;strokeColor=none;fillColor=none;fontSize=12;fontColor=#1d2d3e;fontFamily=Helvetica;" parent="1" vertex="1">
          <mxGeometry x="1284.25" y="100" width="120" height="30" as="geometry" />
        </mxCell>
        <mxCell id="r2Ocmoq0C5dt8iKspmja-135" style="edgeStyle=orthogonalEdgeStyle;rounded=0;orthogonalLoop=1;jettySize=auto;html=1;exitX=0.5;exitY=1;exitDx=0;exitDy=0;" parent="1" edge="1">
          <mxGeometry relative="1" as="geometry">
            <mxPoint x="1434.25" y="304" as="sourcePoint" />
            <mxPoint x="1434.25" y="304" as="targetPoint" />
          </mxGeometry>
        </mxCell>
        <mxCell id="r2Ocmoq0C5dt8iKspmja-136" value="" style="rounded=1;whiteSpace=wrap;html=1;strokeColor=#0070F2;fillColor=#ffffff;arcSize=24;absoluteArcSize=1;imageWidth=64;imageHeight=64;strokeWidth=1.5;" parent="1" vertex="1">
          <mxGeometry x="1284.25" y="144" width="224" height="155" as="geometry" />
        </mxCell>
        <mxCell id="r2Ocmoq0C5dt8iKspmja-137" value="Events" style="rounded=1;whiteSpace=wrap;html=1;strokeColor=#0070F2;strokeWidth=1.5;arcSize=16;fillColor=#ffffff;perimeterSpacing=0;absoluteArcSize=1;" parent="1" vertex="1">
          <mxGeometry x="1343.25" y="229" width="111" height="20" as="geometry" />
        </mxCell>
        <mxCell id="r2Ocmoq0C5dt8iKspmja-138" value="APIs" style="rounded=1;whiteSpace=wrap;html=1;strokeColor=#0070F2;strokeWidth=1.5;arcSize=16;fillColor=#ffffff;perimeterSpacing=0;absoluteArcSize=1;" parent="1" vertex="1">
          <mxGeometry x="1344.25" y="261" width="111" height="20" as="geometry" />
        </mxCell>
        <mxCell id="r2Ocmoq0C5dt8iKspmja-139" value="&lt;span style=&quot;font-style: normal; font-variant-ligatures: normal; font-variant-caps: normal; font-weight: 700; letter-spacing: normal; orphans: 2; text-indent: 0px; text-transform: none; widows: 2; word-spacing: 0px; -webkit-text-stroke-width: 0px; text-decoration-thickness: initial; text-decoration-style: initial; text-decoration-color: initial; float: none; font-size: 12px; display: inline !important;&quot;&gt;&lt;font style=&quot;font-size: 12px;&quot;&gt;SAP S/4HANA*&lt;/font&gt;&lt;/span&gt;" style="text;whiteSpace=wrap;html=1;align=left;container=0;verticalAlign=middle;fontColor=#1D2D3E;fontSize=12;fontFamily=Arial;" parent="1" vertex="1">
          <mxGeometry x="1292.25" y="158" width="141" height="20" as="geometry" />
        </mxCell>
        <mxCell id="r2Ocmoq0C5dt8iKspmja-140" value="&lt;span style=&quot;font-style: normal; font-variant-ligatures: normal; font-variant-caps: normal; font-weight: 700; letter-spacing: normal; orphans: 2; text-indent: 0px; text-transform: none; widows: 2; word-spacing: 0px; -webkit-text-stroke-width: 0px; text-decoration-thickness: initial; text-decoration-style: initial; text-decoration-color: initial; float: none; font-size: 12px; display: inline !important;&quot;&gt;&lt;font style=&quot;font-size: 12px;&quot;&gt;SAP S/4HANA Cloud, private edition&lt;/font&gt;&lt;/span&gt;" style="text;whiteSpace=wrap;html=1;align=left;container=0;verticalAlign=middle;fontColor=#1D2D3E;fontSize=12;fontFamily=Arial;" parent="1" vertex="1">
          <mxGeometry x="1292.25" y="181" width="215" height="25" as="geometry" />
        </mxCell>
        <mxCell id="r2Ocmoq0C5dt8iKspmja-141" value="" style="shape=image;verticalLabelPosition=bottom;labelBackgroundColor=default;verticalAlign=top;aspect=fixed;imageAspect=0;image=data:image/svg+xml,PHN2ZyB4bWxucz0iaHR0cDovL3d3dy53My5vcmcvMjAwMC9zdmciIGZpbGw9Im5vbmUiIHZpZXdCb3g9IjAgMCAxNyAxNyIgaGVpZ2h0PSIxNyIgd2lkdGg9IjE3Ij4mI3hhOzxwYXRoIGZpbGw9InVybCgjcGFpbnQwX2xpbmVhcl83ODlfMzQpIiBkPSJNNy4zMDY2NiAxMi43NTcyQzcuMzg4MjYgMTIuNjc1MSA3LjQ4NTgxIDEyLjYxMDUgNy41OTMzIDEyLjU2NzVDNy43MDA3OCAxMi41MjQ1IDcuODE1OTQgMTIuNTA0IDcuOTMxNjYgMTIuNTA3MkM4LjE4MTY2IDEyLjUwNzIgOC4zNjk2NiAxMi42MjIyIDguNDk0NjYgMTIuODUxMkM4LjY2MDY2IDEzLjAxODIgOC43NDQ2NiAxMy4yMTYyIDguNzQ0NjYgMTMuNDQ1MkM4Ljc0NDY2IDEzLjY3NDIgOC42NjA2NiAxMy44NzIyIDguNDk0NjYgMTQuMDM5Mkw3LjMwNTY2IDE1LjE5NTJDNi44OTgyOSAxNS42MDU2IDYuNDA4NTIgMTUuOTI1IDUuODY4NjYgMTYuMTMyMkM1LjM0NzY2IDE2LjM2MjIgNC44MTY2NiAxNi40NzYyIDQuMjc0NjYgMTYuNDc2MkMzLjcyNTA5IDE2LjQ3NDUgMy4xODIwMiAxNi4zNTczIDIuNjgwNjYgMTYuMTMyMkMyLjE4MDY2IDE1LjkyNDIgMS43MjI2NiAxNS42MTIyIDEuMzA1NjYgMTUuMTk1MkMwLjkwMDUwNyAxNC43OTU1IDAuNTgxNjA2IDE0LjMxNyAwLjM2ODY2NCAxMy43ODkyQzAuMTYyOTgyIDEzLjI4MjkgMC4wNTY3MTQgMTIuNzQxNyAwLjA1NTY2NDEgMTIuMTk1MkMwLjA1NTY2NDEgMTEuNjUzMiAwLjE1OTY2NCAxMS4xMjIyIDAuMzY4NjY0IDEwLjYwMTJDMC41NzY2NjQgMTAuMDgxMiAwLjg4ODY2NCA5LjYxMTIgMS4zMDU2NiA5LjE5NTJMMy42ODA2NiA2Ljg1MTJDNC4wOTc2NiA2LjQzNDIgNC41NjY2NiA2LjEyMTIgNS4wODY2NiA1LjkxMzJDNS41OTk2MiA1LjY5MDMzIDYuMTUyNCA1LjU3MzY1IDYuNzExNjYgNS41NzAyQzcuMjUzNjYgNS41NzAyIDcuNzg0NjYgNS42ODQyIDguMzA1NjYgNS45MTMyQzguODI2NjYgNi4xMjIyIDkuMjg1NjYgNi40MzQyIDkuNjgwNjYgNi44NTEyQzkuODQ3NjYgNy4wMTgyIDkuOTMwNjYgNy4yMTYyIDkuOTMwNjYgNy40NDUyQzkuOTMwNjYgNy42NzQyIDkuODQ3NjYgNy44NzIyIDkuNjgwNjYgOC4wMzgyQzkuNjAzOTkgOC4xMTgyNSA5LjUxMTczIDguMTgxNzMgOS40MDk1NiA4LjIyNDczQzkuMzA3NCA4LjI2NzczIDkuMTk3NSA4LjI4OTMzIDkuMDg2NjYgOC4yODgyQzguOTc1OTkgOC4yODkxOSA4Ljg2NjI5IDguMjY3NTMgOC43NjQzMSA4LjIyNDUzQzguNjYyMzIgOC4xODE1NCA4LjU3MDIyIDguMTE4MTIgOC40OTM2NiA4LjAzODJDOC4wMTM2NiA3LjUxODIgNy40MzA2NiA3LjI1ODIgNi43NDM2NiA3LjI1ODJDNi4wNTU2NiA3LjI1ODIgNS40NjE2NiA3LjUxODIgNC45NjE2NiA4LjAzODJMMi41ODg2NiAxMC4zODIyQzIuMDY4NjYgMTAuODYyMiAxLjgwODY2IDExLjQ0NTIgMS44MDg2NiAxMi4xMzIyQzEuODA4NjYgMTIuODIwMiAyLjA2ODY2IDEzLjQyNDIgMi41ODg2NiAxMy45NDUyQzMuMDY4NjYgMTQuNDQ1MiAzLjY1MTY2IDE0LjY5NTIgNC4zMzg2NiAxNC42OTUyQzUuMDI2NjYgMTQuNjk1MiA1LjYyMDY2IDE0LjQ0NTIgNi4xMjA2NiAxMy45NDUyTDcuMzA1NjYgMTIuNzU2Mkw3LjMwNjY2IDEyLjc1NzJaTTE0Ljc0NDcgMS43NTcyQzE1LjE2MDcgMi4xNTMyIDE1LjQ3MzcgMi42MTEyIDE1LjY4MTcgMy4xMzIyQzE1LjkxMTcgMy42NTMyIDE2LjAyNTcgNC4xODQyIDE2LjAyNTcgNC43MjYyQzE2LjAyNTcgNS4yNjgyIDE1LjkxMDcgNS43OTkyIDE1LjY4MTcgNi4zMjAyQzE1LjQ3MzcgNi44MjAyIDE1LjE2MTcgNy4yNzgyIDE0Ljc0NDcgNy42OTUyTDEyLjQwMDcgMTAuMDM4MkMxMS45NjI3IDEwLjQ3NjIgMTEuNDgzNyAxMC43OTgyIDEwLjk2MjcgMTEuMDA4MkMxMC40NDY0IDExLjIxNTQgOS44OTUgMTEuMzIxNCA5LjMzODY2IDExLjMyMDJDOC43OTIxNiAxMS4zMTkyIDguMjUwOTcgMTEuMjEyOSA3Ljc0NDY2IDExLjAwNzJDNy4yMzAwMiAxMC43ODg0IDYuNzcwODEgMTAuNDU3NCA2LjQwMDY2IDEwLjAzODJDNi4zMjI5NCA5Ljk2NjQ3IDYuMjYwNjcgOS44Nzk2MiA2LjIxNzY4IDkuNzgyOTlDNi4xNzQ3IDkuNjg2MzUgNi4xNTE4OSA5LjU4MTk2IDYuMTUwNjYgOS40NzYyQzYuMTUwNjYgOS4yNDYyIDYuMjMzNjYgOS4wNDkyIDYuNDAwNjYgOC44ODIyQzYuNDcyNTEgOC44MDQzNSA2LjU1OTUxIDguNzQyMDEgNi42NTYzMyA4LjY5OTAyQzYuNzUzMTUgOC42NTYwMyA2Ljg1Nzc0IDguNjMzMjkgNi45NjM2NiA4LjYzMjJDNy4xOTI2NiA4LjYzMjIgNy4zOTA2NiA4LjcxNjIgNy41NTY2NiA4Ljg4MjJDNy43ODY2NiA5LjEzMjIgOC4wNTY2NiA5LjMyMDIgOC4zNjk2NiA5LjQ0NTJDOC45ODAyNCA5LjY5NjAyIDkuNjY1MDkgOS42OTYwMiAxMC4yNzU3IDkuNDQ1MkMxMC41ODg3IDkuMzIwMiAxMC44Njk3IDkuMTMyMiAxMS4xMTk3IDguODgyMkwxMy40OTQ3IDYuNTA3MkMxMy45OTQ3IDYuMDI4MiAxNC4yNDQ3IDUuNDQ1MiAxNC4yNDQ3IDQuNzU3MkMxNC4yNDQ3IDQuMDcwMiAxMy45OTQ3IDMuNDY2MiAxMy40OTQ3IDIuOTQ1MkMxMy4wMTQ3IDIuNDQ1MiAxMi40MzE3IDIuMTk1MiAxMS43NDQ3IDIuMTk1MkMxMS4wNTY3IDIuMTk1MiAxMC40NTI3IDIuNDQ1MiA5LjkzMTY2IDIuOTQ1Mkw4Ljc0NTY2IDQuMTMyMkM4LjY2ODk5IDQuMjEyMjUgOC41NzY3MyA0LjI3NTczIDguNDc0NTYgNC4zMTg3M0M4LjM3MjQgNC4zNjE3MyA4LjI2MjUgNC4zODMzMyA4LjE1MTY2IDQuMzgyMkM4LjA0MDgzIDQuMzgzMzMgNy45MzA5MyA0LjM2MTczIDcuODI4NzYgNC4zMTg3M0M3LjcyNjYgNC4yNzU3MyA3LjYzNDMzIDQuMjEyMjUgNy41NTc2NiA0LjEzMjJDNy40Nzc2MSA0LjA1NTUzIDcuNDE0MTMgMy45NjMyNiA3LjM3MTEzIDMuODYxMUM3LjMyODEzIDMuNzU4OTMgNy4zMDY1MyAzLjY0OTA0IDcuMzA3NjYgMy41MzgyQzcuMzA3NjYgMy4zMDkyIDcuMzkxNjYgMy4xMTEyIDcuNTU3NjYgMi45NDUyTDguNzQ1NjYgMS43NTYyQzkuMTYxNjYgMS4zNDAyIDkuNjMwNjYgMS4wMjcyIDEwLjE1MTcgMC44MTkxOTZDMTAuNjY0MyAwLjU5NjQ1OSAxMS4yMTY3IDAuNDc5NzgzIDExLjc3NTcgMC40NzYxOTZDMTIuMzE3NyAwLjQ3NjE5NiAxMi44NDg3IDAuNTkxMTk2IDEzLjM2OTcgMC44MjAxOTZDMTMuODg5NyAxLjAyODIgMTQuMzQ4NyAxLjM0MDIgMTQuNzQ0NyAxLjc1NzJaIi8+JiN4YTs8ZGVmcz4mI3hhOzxsaW5lYXJHcmFkaWVudCBncmFkaWVudFVuaXRzPSJ1c2VyU3BhY2VPblVzZSIgeTI9IjE2LjQ3NjIiIHgyPSI4LjA0MDY2IiB5MT0iMC40NzYxOTYiIHgxPSI4LjA0MDY2IiBpZD0icGFpbnQwX2xpbmVhcl83ODlfMzQiPiYjeGE7PHN0b3Agc3RvcC1jb2xvcj0iIzVCNzM4QiIvPiYjeGE7PHN0b3Agc3RvcC1jb2xvcj0iIzIyMzU0OCIgb2Zmc2V0PSIxIi8+JiN4YTs8L2xpbmVhckdyYWRpZW50PiYjeGE7PC9kZWZzPiYjeGE7PC9zdmc+;" parent="1" vertex="1">
          <mxGeometry x="1300" y="335.5" width="31" height="31" as="geometry" />
        </mxCell>
        <mxCell id="r2Ocmoq0C5dt8iKspmja-142" value="&lt;font style=&quot;font-size: 12px;&quot; color=&quot;#354a5f&quot;&gt;Hyperscaler Private Link&lt;/font&gt;" style="text;whiteSpace=wrap;html=1;align=center;" parent="1" vertex="1">
          <mxGeometry x="1282" y="364.8800000000001" width="67" height="40" as="geometry" />
        </mxCell>
        <mxCell id="r2Ocmoq0C5dt8iKspmja-143" value="" style="shape=image;verticalLabelPosition=bottom;verticalAlign=top;imageAspect=0;aspect=fixed;image=data:image/svg+xml,PHN2ZyB4bWxucz0iaHR0cDovL3d3dy53My5vcmcvMjAwMC9zdmciIHZpZXdCb3g9IjAgMCA0MiA0MiI+PGRlZnM+PHN0eWxlPi5jbHMtMXtmaWxsOiMzNTRBNUI7fTwvc3R5bGU+PC9kZWZzPjx0aXRsZT50cmVlPC90aXRsZT48ZyBpZD0iTGF5ZXJfMiIgZGF0YS1uYW1lPSJMYXllciAyIj48ZyBpZD0idHJlZSI+PHBhdGggY2xhc3M9ImNscy0xIiBkPSJNMzksMzBhMy4wNDMsMy4wNDMsMCwwLDEsMywzdjZhMi44NCwyLjg0LDAsMCwxLS44OTEsMi4xNTdBMi45NjYsMi45NjYsMCwwLDEsMzksNDJIMzNhMi44ODgsMi44ODgsMCwwLDEtMy0zVjMzYTIuOTY2LDIuOTY2LDAsMCwxLC44NDQtMi4xMDlBMi44MzYsMi44MzYsMCwwLDEsMzMsMzBoM1YyN2EyLjk2MiwyLjk2MiwwLDAsMC0uODQ0LTIuMTA5QTIuODM4LDIuODM4LDAsMCwwLDMzLDI0SDIyLjV2NkgyNGEzLjA0MywzLjA0MywwLDAsMSwzLDN2NmEyLjg0LDIuODQsMCwwLDEtLjg5MSwyLjE1N0EyLjk2NiwyLjk2NiwwLDAsMSwyNCw0MkgxOGEyLjg4OCwyLjg4OCwwLDAsMS0zLTNWMzNhMi45NjYsMi45NjYsMCwwLDEsLjg0NC0yLjEwOUEyLjgzNiwyLjgzNiwwLDAsMSwxOCwzMGgxLjVWMjRIOWEyLjgzNiwyLjgzNiwwLDAsMC0yLjE1Ni44OTFBMi45NjIsMi45NjIsMCwwLDAsNiwyN3YzSDlhMy4wNDMsMy4wNDMsMCwwLDEsMywzdjZhMi44NCwyLjg0LDAsMCwxLS44OTEsMi4xNTdBMi45NjYsMi45NjYsMCwwLDEsOSw0MkgzYTIuODg4LDIuODg4LDAsMCwxLTMtM1YzM2EyLjk2NiwyLjk2NiwwLDAsMSwuODQ0LTIuMTA5QTIuODM2LDIuODM2LDAsMCwxLDMsMzBWMjdhNS43NjksNS43NjksMCwwLDEsMS43ODEtNC4yMTlBNS43Nyw1Ljc3LDAsMCwxLDksMjFIMTkuNVYxNUgxMmEyLjg4OSwyLjg4OSwwLDAsMS0zLTNWM0EyLjk2MiwyLjk2MiwwLDAsMSw5Ljg0NC44OTEsMi44MzYsMi44MzYsMCwwLDEsMTIsMEgzMGEyLjg4MywyLjg4MywwLDAsMSwyLjEwOS44OTFBMi44ODMsMi44ODMsMCwwLDEsMzMsM3Y5YTIuODM2LDIuODM2LDAsMCwxLS44OTEsMi4xNTZBMi45NjIsMi45NjIsMCwwLDEsMzAsMTVIMjIuNXY2SDMzYTYuMDgzLDYuMDgzLDAsMCwxLDYsNlpNMywzM3Y2SDlWMzNaTTMwLDEyVjNIMTJ2OVpNMTgsMzN2Nmg2VjMzWm0yMSwwSDMzdjZoNloiLz48L2c+PC9nPjwvc3ZnPg==;labelBackgroundColor=default;noLabel=0;allowArrows=1;metaEdit=1;" parent="1" vertex="1">
          <mxGeometry x="1384.25" y="335.5" width="31" height="31" as="geometry" />
        </mxCell>
        <mxCell id="r2Ocmoq0C5dt8iKspmja-144" value="&lt;font style=&quot;font-size: 12px;&quot; color=&quot;#354a5f&quot;&gt;Hyperscaler Load Balancer&lt;/font&gt;" style="text;whiteSpace=wrap;html=1;align=center;" parent="1" vertex="1">
          <mxGeometry x="1358" y="366.1199999999999" width="83.5" height="36.75" as="geometry" />
        </mxCell>
        <mxCell id="r2Ocmoq0C5dt8iKspmja-145" value="HTML5 App&#xa;Repository" style="shape=image;verticalLabelPosition=bottom;verticalAlign=top;imageAspect=0;aspect=fixed;image=data:image/svg+xml,PHN2ZyB4bWxucz0iaHR0cDovL3d3dy53My5vcmcvMjAwMC9zdmciIGZpbGw9Im5vbmUiIHZpZXdCb3g9IjAgMCA0OSA0OSIgaGVpZ2h0PSI0OSIgd2lkdGg9IjQ5Ij4mI3hhOzxnIGNsaXAtcGF0aD0idXJsKCNjbGlwMF8yNjIyXzM2NTQpIj4mI3hhOzxjaXJjbGUgc3Ryb2tlLXdpZHRoPSIwLjg1NzE0MyIgc3Ryb2tlPSIjRDVEQUREIiBmaWxsPSJ1cmwoI3BhaW50MF9saW5lYXJfMjYyMl8zNjU0KSIgcj0iMjMuNTcxNCIgY3k9IjI0LjAzNDkiIGN4PSIyNC41Ii8+JiN4YTs8ZyBjbGlwLXBhdGg9InVybCgjY2xpcDFfMjYyMl8zNjU0KSI+JiN4YTs8cGF0aCBmaWxsPSJ1cmwoI3BhaW50MV9yYWRpYWxfMjYyMl8zNjU0KSIgZD0iTTIzLjU5OTUgMTMuOTg0OUMyMC41MTU1IDEzLjk4NDkgMTguMjA3MSAxNi45NzU4IDE4LjQyMDQgMTkuODA4OUMxOC40NTE2IDIwLjIyNCAxOC4yODk2IDIwLjYzMDMgMTcuOTgxMyAyMC45MUMxNy42NzMgMjEuMTg5NyAxNy4yNTMgMjEuMzExNiAxNi44NDI4IDIxLjI0MDJDMTUuNTU2NyAyMS4wMTY2IDE0LjYyMjQgMjEuMzYxMyAxNC4wMDU2IDIxLjkyOUMxMy4zNjc3IDIyLjUxNjEgMTIuOTUgMjMuNDU0MSAxMi45NSAyNC42MDQ0QzEyLjk1IDI1Ljc0MDUgMTMuMjg4MSAyNi41NzY3IDEzLjgyMDYgMjcuMTIzMUMxNC4zNDU4IDI3LjY2MjEgMTUuMjA3NCAyOC4wNzA0IDE2LjU2MDQgMjguMDcwNEgxOS43NTg0QzIwLjUwNCAyOC4wNzA0IDIxLjEwODQgMjguNjc0OCAyMS4xMDg0IDI5LjQyMDRDMjEuMTA4NCAzMC4xNjYgMjAuNTA0IDMwLjc3MDQgMTkuNzU4NCAzMC43NzA0SDE2LjU2MDRDMTQuNjQyOSAzMC43NzA0IDEzLjAyNDIgMzAuMTc0NSAxMS44ODY5IDI5LjAwNzRDMTAuNzU2OCAyNy44NDc4IDEwLjI1IDI2LjI3NiAxMC4yNSAyNC42MDQ0QzEwLjI1IDIyLjgwODIgMTAuOTA4MyAyMS4xMTAyIDEyLjE3NyAxOS45NDI0QzEzLjEzMTkgMTkuMDYzNiAxNC4zNjc5IDE4LjU0NTMgMTUuNzcxNSAxOC40NzkxQzE2LjI0NDIgMTQuODE1MiAxOS4yOTc4IDExLjI4NDkgMjMuNTk5NSAxMS4yODQ5QzI2Ljk4OSAxMS4yODQ5IDI5LjUzMSAxMy4xNzg2IDMwLjkwODIgMTYuMDA3OEMzMy40MTY0IDE2LjAyODMgMzUuNzU0OSAxNy40OTUgMzYuNTQ2NCAyMC4zMzE0QzM2Ljc0NjggMjEuMDQ5NiAzNi4zMjcxIDIxLjc5NDIgMzUuNjA5IDIxLjk5NDZDMzQuODkwOSAyMi4xOTUxIDM0LjE0NjIgMjEuNzc1NCAzMy45NDU4IDIxLjA1NzJDMzMuNDU1OSAxOS4zMDE3IDMxLjk2MTcgMTguNDkxIDMwLjI1MDggMTguNzU0M0MyOS42MTc5IDE4Ljg1MTcgMjkuMDAzNyAxOC40OTEgMjguNzgwMyAxNy44OTA5QzI3Ljg1OCAxNS40MTM0IDI2LjAzMjYgMTMuOTg0OSAyMy41OTk1IDEzLjk4NDlaIiBjbGlwLXJ1bGU9ImV2ZW5vZGQiIGZpbGwtcnVsZT0iZXZlbm9kZCIvPiYjeGE7PHBhdGggZmlsbD0idXJsKCNwYWludDJfcmFkaWFsXzI2MjJfMzY1NCkiIGQ9Ik0yNS40OTk1IDI0LjA3MjdIMjYuMTUwMlYyNC43ODQ5SDI2Ljg2MDlWMjIuNjU4MkgyNi4xNTAyVjIzLjM2MDVIMjUuNDk5NVYyMi42NTgySDI0Ljc4ODlWMjQuNzg0OUgyNS40OTk1VjI0LjA3MjdaTTI3Ljc5NiAyNC43ODQ5SDI4LjUwNzJWMjMuMzYzNkgyOS4xMzMyVjIyLjY1ODJIMjcuMTdWMjMuMzYzNkgyNy43OTZWMjQuNzg0OVpNMzAuNjI5NiAyNC40ODY5TDMwLjE0MDIgMjMuNzMwNVYyNC43ODQ5SDI5LjQ0NDhWMjIuNjU4MkgzMC4xODZMMzAuNjQyMiAyMy40MDUxTDMxLjA5NzQgMjIuNjU4MkgzMS44MzkxVjI0Ljc4NDlIMzEuMTMxMVYyMy43MzA1TDMwLjY0MjIgMjQuNDg2OUgzMC42Mjk2Wk0zMy44NTg5IDI0LjA4MTZIMzIuODU5MVYyMi42NTgySDMyLjE0NzlWMjQuNzg0OUgzMy44NTg5VjI0LjA4MTZaTTI0Ljc2NTcgMzcuMDE4MUwyMy43NDkxIDI1LjYxNzJIMzQuOTI0TDMzLjkwNTkgMzcuMDE2NkwyOS4zMjk4IDM4LjI4NDlMMjQuNzY1NyAzNy4wMTgxWk0yNi42MDI2IDI5LjAxNjNMMjYuODczMyAzMi4wNTI4SDI5LjMzMjJIMjkuMzM5NUgzMC42ODk0TDMwLjU2MTYgMzMuNDgxNUwyOS4zMzIyIDMzLjgxMzJMMjguMTAzOCAzMy40ODI1TDI4LjAyNDkgMzIuNjAzN0gyNy40Mjg5SDI2LjkxODVMMjcuMDczIDM0LjMzMzVMMjkuMzMxMSAzNC45NjAxTDI5LjMzNTkgMzQuOTU4NUwzMS41OTE5IDM0LjMzMzVMMzEuNjA4MiAzNC4xNDc1TDMxLjg2NzMgMzEuMjQ3TDMxLjg5NDEgMzAuOTUxMUgzMS41OTcxSDI5LjMzOTVIMjkuMzMyMkgyNy44ODE0TDI3Ljc4MDUgMjkuODIyNkgyOS4zMzU5SDI5LjMzOTVIMzEuOTk0NUgzMS45OTgyTDMyLjAyMDMgMjkuNTc1TDMyLjA3MDcgMjkuMDE2M0wzMi4wOTcgMjguNzIwOUgyOS4zMzk1SDI5LjMzNTlIMjYuNTc2M0wyNi42MDI2IDI5LjAxNjNaIiBjbGlwLXJ1bGU9ImV2ZW5vZGQiIGZpbGwtcnVsZT0iZXZlbm9kZCIvPiYjeGE7PC9nPiYjeGE7PC9nPiYjeGE7PGRlZnM+JiN4YTs8bGluZWFyR3JhZGllbnQgZ3JhZGllbnRVbml0cz0idXNlclNwYWNlT25Vc2UiIHkyPSI0NC4yNzkyIiB4Mj0iNDEuNTY0NSIgeTE9IjYuODQ3NzUiIHgxPSI0Ljg1Mjg3IiBpZD0icGFpbnQwX2xpbmVhcl8yNjIyXzM2NTQiPiYjeGE7PHN0b3Agc3RvcC1jb2xvcj0id2hpdGUiLz4mI3hhOzxzdG9wIHN0b3AtY29sb3I9IiNFQUVDRUUiIG9mZnNldD0iMSIvPiYjeGE7PC9saW5lYXJHcmFkaWVudD4mI3hhOzxyYWRpYWxHcmFkaWVudCBncmFkaWVudFRyYW5zZm9ybT0idHJhbnNsYXRlKDE0LjMzNTYgMTQuMTQ2KSByb3RhdGUoMzYuNzkwNykgc2NhbGUoMjIuNzc3NSA0MS4yODQpIiBncmFkaWVudFVuaXRzPSJ1c2VyU3BhY2VPblVzZSIgcj0iMSIgY3k9IjAiIGN4PSIwIiBpZD0icGFpbnQxX3JhZGlhbF8yNjIyXzM2NTQiPiYjeGE7PHN0b3Agc3RvcC1jb2xvcj0iIzAxOTVGRiIvPiYjeGE7PHN0b3Agc3RvcC1jb2xvcj0iIzExNDdFOSIgb2Zmc2V0PSIxIi8+JiN4YTs8L3JhZGlhbEdyYWRpZW50PiYjeGE7PHJhZGlhbEdyYWRpZW50IGdyYWRpZW50VHJhbnNmb3JtPSJ0cmFuc2xhdGUoMjUuNDc5NiAyNS4wMDkpIHJvdGF0ZSg1NC40MzA5KSBzY2FsZSgxMy4zODIxIDExLjUzOTcpIiBncmFkaWVudFVuaXRzPSJ1c2VyU3BhY2VPblVzZSIgcj0iMSIgY3k9IjAiIGN4PSIwIiBpZD0icGFpbnQyX3JhZGlhbF8yNjIyXzM2NTQiPiYjeGE7PHN0b3Agc3RvcC1jb2xvcj0iIzEzNDhGRiIvPiYjeGE7PHN0b3Agc3RvcC1jb2xvcj0iIzA2MjM4RCIgb2Zmc2V0PSIxIi8+JiN4YTs8L3JhZGlhbEdyYWRpZW50PiYjeGE7PGNsaXBQYXRoIGlkPSJjbGlwMF8yNjIyXzM2NTQiPiYjeGE7PHJlY3QgdHJhbnNmb3JtPSJ0cmFuc2xhdGUoMC41IDAuMDM0OTEyMSkiIGZpbGw9IndoaXRlIiBoZWlnaHQ9IjQ4IiB3aWR0aD0iNDgiLz4mI3hhOzwvY2xpcFBhdGg+JiN4YTs8Y2xpcFBhdGggaWQ9ImNsaXAxXzI2MjJfMzY1NCI+JiN4YTs8cmVjdCB0cmFuc2Zvcm09InRyYW5zbGF0ZSgxMC4yNSAxMS4yODQ5KSIgZmlsbD0id2hpdGUiIGhlaWdodD0iMjciIHdpZHRoPSIyNyIvPiYjeGE7PC9jbGlwUGF0aD4mI3hhOzwvZGVmcz4mI3hhOzwvc3ZnPg==;points=[[0,0,0,0,0],[0,0.25,0,0,0],[0,0.5,0,0,0],[0,0.75,0,0,0],[0.25,0,0,0,0],[0.25,1,0,0,0],[0.5,0,0,0,0],[0.75,0,0,0,0],[1,0,0,0,0],[1,0.25,0,0,0],[1,0.5,0,0,0],[1,0.75,0,0,0]];" parent="1" vertex="1">
          <mxGeometry x="406.5" y="248" width="49" height="49" as="geometry" />
        </mxCell>
        <mxCell id="r2Ocmoq0C5dt8iKspmja-146" value="SAP Build Work Zone,&#xa;standard edition" style="shape=image;verticalLabelPosition=bottom;labelBackgroundColor=default;verticalAlign=top;aspect=fixed;imageAspect=0;image=data:image/svg+xml,PHN2ZyB4bWxucz0iaHR0cDovL3d3dy53My5vcmcvMjAwMC9zdmciIGZpbGw9Im5vbmUiIHZpZXdCb3g9IjAgMCAxNiAxNiIgaGVpZ2h0PSIxNiIgd2lkdGg9IjE2Ij4mI3hhOzxnIGNsaXAtcGF0aD0idXJsKCNjbGlwMF8zMTA2XzI3MTAxKSI+JiN4YTs8Y2lyY2xlIHN0cm9rZS13aWR0aD0iMC4yNzM4MDkiIHN0cm9rZT0iI0Q1REFERCIgZmlsbD0idXJsKCNwYWludDBfbGluZWFyXzMxMDZfMjcxMDEpIiByPSI3LjUyOTc0IiBjeT0iNy45OTk4OSIgY3g9IjcuOTk4OTIiLz4mI3hhOzxnIGNsaXAtcGF0aD0idXJsKCNjbGlwMV8zMTA2XzI3MTAxKSI+JiN4YTs8bWFzayBoZWlnaHQ9IjEzIiB3aWR0aD0iMTIiIHk9IjIiIHg9IjIiIG1hc2tVbml0cz0idXNlclNwYWNlT25Vc2UiIHN0eWxlPSJtYXNrLXR5cGU6YWxwaGEiIGlkPSJtYXNrMF8zMTA2XzI3MTAxIj4mI3hhOzxwYXRoIGZpbGw9ImJsYWNrIiBkPSJNOC40MjExOCAxMC43MzMzQzguNjQxMDYgMTEuMzUyNCA5LjI4Njc1IDExLjcwNDcgMTAuMDEwNSAxMS43MDQ3QzEwLjczNDIgMTEuNzA0NyAxMS4zNDY4IDExLjE3OTEgMTEuNTE5NyAxMC43MDdMMTIuODg3NyA2LjkzODQ5QzEzLjE2MDEgNi4xODgwNCAxMi43NzQyIDUuMzU4MjQgMTIuMDI1OCA1LjA4NTFDMTEuMzM3NCA0LjgzMzg5IDEwLjU4MjIgNS4xNDEgMTAuMjUzNCA1Ljc3NTcyQzEwLjIwMTEgNS44OTQwOSAxMC4xNDc1IDYuMDcyMTYgMTAuMjExNiA2LjI2MTc3TDEwLjg5OTYgOC4xNjUzMUMxMC45MzQxIDguMjYwNzUgMTAuODg5NSA4LjM2NjczIDEwLjc5NzIgOC40MDg0NUMxMC42ODMzIDguNDU5OTMgMTAuNTQ2OCA4LjM5MjYzIDEwLjUxNjggOC4yNzEwNkMxMC4yOTc0IDcuMzgyODcgOS41NjI3OCA2LjgxNjE3IDguNjU0NiA3LjE1MDYzQzcuNzQ2NDIgNy40ODUxIDcuNTU1MjEgOC4zNDc3MiA3LjgyNzYzIDkuMDk4MThMOC40MjExOCAxMC43MzMzWiIvPiYjeGE7PHBhdGggZmlsbD0iYmxhY2siIGQ9Ik0zLjQ3MjEzIDYuOTMyNDVDMy4xOTk3MiA2LjE4MTk5IDMuNTg1NjIgNS4zNTIyIDQuMzM0MDYgNS4wNzkwNkM1LjA4MjUxIDQuODA1OTEgNS45MTAwOCA1LjE5Mjg1IDYuMTgyNSA1Ljk0MzMxTDcuNTQ5NzQgOS43MDk4MkM3LjgyMjE1IDEwLjQ2MDMgNy40MzYyNiAxMS4yOTAxIDYuNjg3ODEgMTEuNTYzMkM1LjkzOTM2IDExLjgzNjQgNS4xMTE3OSAxMS40NDk0IDQuODM5MzcgMTAuNjk5TDMuNDcyMTMgNi45MzI0NVoiLz4mI3hhOzwvbWFzaz4mI3hhOzxnIG1hc2s9InVybCgjbWFzazBfMzEwNl8yNzEwMSkiPiYjeGE7PGcgZmlsdGVyPSJ1cmwoI2ZpbHRlcjBfZF8zMTA2XzI3MTAxKSI+JiN4YTs8cGF0aCBmaWxsPSJ1cmwoI3BhaW50MV9yYWRpYWxfMzEwNl8yNzEwMSkiIGQ9Ik02LjYzNDM0IDAuODcxOTU0QzguNjcyNDkgMC4yOTI4MzUgMTEuMDgyMyAxLjI5MTgzIDEyLjU1MTQgMy45Mzg4NEMxNi4zMzM1IDkuMDE5NDkgMTkuNzUzNyAxNC45MTk2IDExLjk2MDkgMTcuNjc2OEM0LjE2ODEzIDIwLjQzNCA0LjM1MDY3IDE0Ljc3ODIgMS43NTIyNSAxMC4wOTY0Qy0wLjg0NjE2NyA1LjQxNDU1IDQuNTk2MTkgMS40NTEwNyA2LjYzNDM0IDAuODcxOTU0WiIvPiYjeGE7PC9nPiYjeGE7PGcgZmlsdGVyPSJ1cmwoI2ZpbHRlcjFfZF8zMTA2XzI3MTAxKSI+JiN4YTs8cGF0aCBmaWxsPSJ1cmwoI3BhaW50Ml9yYWRpYWxfMzEwNl8yNzEwMSkiIGQ9Ik0xMi42NTQyIDEwLjI3OThDMTEuODQ2MiAxMi4wMTA3IDkuNTMyOTggMTQuMDk2MSA3Ljk2MzgxIDE0LjIzNTdDNC43NDYwMyAxNC45MzE0IC0wLjI2MjI1NSAxMS43NDczIDAuMTY2MTEgOS41ODQ4MUMwLjU5NDQ3NSA3LjQyMjM3IDQuNjY1NjUgNi4zNjU5OSA3LjQ1MjY5IDYuMzg5OTNDMTAuMjM5NyA2LjQxMzg4IDEzLjQ2MjEgOC41NDg5NSAxMi42NTQyIDEwLjI3OThaIi8+JiN4YTs8L2c+JiN4YTs8ZyBmaWx0ZXI9InVybCgjZmlsdGVyMl9kXzMxMDZfMjcxMDEpIj4mI3hhOzxwYXRoIGZpbGw9InVybCgjcGFpbnQzX3JhZGlhbF8zMTA2XzI3MTAxKSIgZD0iTTMuMzUzNjEgOC4zOTkzNkM2Ljk2MjAxIDcuNDQ1NTcgMTAuMTEwOSA3LjMwNjg2IDEwLjQ4NjcgMTAuNjg5NkMxMC43OTE3IDEzLjQzNDkgNi45NTY4IDE1LjY1NzggNC4yMTE0NyAxNS45NjI4QzEuNDY2MTQgMTYuMjY3OCAtMC4xMDIyOTYgOS4zMTI4NCAzLjM1MzYxIDguMzk5MzZaIi8+JiN4YTs8L2c+JiN4YTs8L2c+JiN4YTs8L2c+JiN4YTs8L2c+JiN4YTs8ZGVmcz4mI3hhOzxmaWx0ZXIgY29sb3ItaW50ZXJwb2xhdGlvbi1maWx0ZXJzPSJzUkdCIiBmaWx0ZXJVbml0cz0idXNlclNwYWNlT25Vc2UiIGhlaWdodD0iMTkuMDM1MiIgd2lkdGg9IjE2Ljk0MTQiIHk9IjAuMDg1MTI1NCIgeD0iMC42MTQ4MjkiIGlkPSJmaWx0ZXIwX2RfMzEwNl8yNzEwMSI+JiN4YTs8ZmVGbG9vZCByZXN1bHQ9IkJhY2tncm91bmRJbWFnZUZpeCIgZmxvb2Qtb3BhY2l0eT0iMCIvPiYjeGE7PGZlQ29sb3JNYXRyaXggcmVzdWx0PSJoYXJkQWxwaGEiIHZhbHVlcz0iMCAwIDAgMCAwIDAgMCAwIDAgMCAwIDAgMCAwIDAgMCAwIDAgMTI3IDAiIHR5cGU9Im1hdHJpeCIgaW49IlNvdXJjZUFscGhhIi8+JiN4YTs8ZmVPZmZzZXQgZHk9IjAuMDQ0ODQwNCIgZHg9IjAuMjI0MjAyIi8+JiN4YTs8ZmVHYXVzc2lhbkJsdXIgc3RkRGV2aWF0aW9uPSIwLjMzNjMwMyIvPiYjeGE7PGZlQ29tcG9zaXRlIG9wZXJhdG9yPSJvdXQiIGluMj0iaGFyZEFscGhhIi8+JiN4YTs8ZmVDb2xvck1hdHJpeCB2YWx1ZXM9IjAgMCAwIDAgMCAwIDAgMCAwIDAgMCAwIDAgMCAwIDAgMCAwIDAuNCAwIiB0eXBlPSJtYXRyaXgiLz4mI3hhOzxmZUJsZW5kIHJlc3VsdD0iZWZmZWN0MV9kcm9wU2hhZG93XzMxMDZfMjcxMDEiIGluMj0iQmFja2dyb3VuZEltYWdlRml4IiBtb2RlPSJub3JtYWwiLz4mI3hhOzxmZUJsZW5kIHJlc3VsdD0ic2hhcGUiIGluMj0iZWZmZWN0MV9kcm9wU2hhZG93XzMxMDZfMjcxMDEiIGluPSJTb3VyY2VHcmFwaGljIiBtb2RlPSJub3JtYWwiLz4mI3hhOzwvZmlsdGVyPiYjeGE7PGZpbHRlciBjb2xvci1pbnRlcnBvbGF0aW9uLWZpbHRlcnM9InNSR0IiIGZpbHRlclVuaXRzPSJ1c2VyU3BhY2VPblVzZSIgaGVpZ2h0PSI5LjI4ODU3IiB3aWR0aD0iMTMuOTg1MyIgeT0iNS43NjE4OCIgeD0iLTAuMzA4MDIzIiBpZD0iZmlsdGVyMV9kXzMxMDZfMjcxMDEiPiYjeGE7PGZlRmxvb2QgcmVzdWx0PSJCYWNrZ3JvdW5kSW1hZ2VGaXgiIGZsb29kLW9wYWNpdHk9IjAiLz4mI3hhOzxmZUNvbG9yTWF0cml4IHJlc3VsdD0iaGFyZEFscGhhIiB2YWx1ZXM9IjAgMCAwIDAgMCAwIDAgMCAwIDAgMCAwIDAgMCAwIDAgMCAwIDEyNyAwIiB0eXBlPSJtYXRyaXgiIGluPSJTb3VyY2VBbHBoYSIvPiYjeGE7PGZlT2Zmc2V0IGR5PSIwLjA0NDg0MDQiIGR4PSIwLjIyNDIwMiIvPiYjeGE7PGZlR2F1c3NpYW5CbHVyIHN0ZERldmlhdGlvbj0iMC4zMzYzMDMiLz4mI3hhOzxmZUNvbXBvc2l0ZSBvcGVyYXRvcj0ib3V0IiBpbjI9ImhhcmRBbHBoYSIvPiYjeGE7PGZlQ29sb3JNYXRyaXggdmFsdWVzPSIwIDAgMCAwIDAgMCAwIDAgMCAwIDAgMCAwIDAgMCAwIDAgMCAwLjQgMCIgdHlwZT0ibWF0cml4Ii8+JiN4YTs8ZmVCbGVuZCByZXN1bHQ9ImVmZmVjdDFfZHJvcFNoYWRvd18zMTA2XzI3MTAxIiBpbjI9IkJhY2tncm91bmRJbWFnZUZpeCIgbW9kZT0ibm9ybWFsIi8+JiN4YTs8ZmVCbGVuZCByZXN1bHQ9InNoYXBlIiBpbjI9ImVmZmVjdDFfZHJvcFNoYWRvd18zMTA2XzI3MTAxIiBpbj0iU291cmNlR3JhcGhpYyIgbW9kZT0ibm9ybWFsIi8+JiN4YTs8L2ZpbHRlcj4mI3hhOzxmaWx0ZXIgY29sb3ItaW50ZXJwb2xhdGlvbi1maWx0ZXJzPSJzUkdCIiBmaWx0ZXJVbml0cz0idXNlclNwYWNlT25Vc2UiIGhlaWdodD0iOS41MDUzNyIgd2lkdGg9IjEwLjQ3NzgiIHk9IjcuMTg0NDkiIHg9IjAuOTIyOTM0IiBpZD0iZmlsdGVyMl9kXzMxMDZfMjcxMDEiPiYjeGE7PGZlRmxvb2QgcmVzdWx0PSJCYWNrZ3JvdW5kSW1hZ2VGaXgiIGZsb29kLW9wYWNpdHk9IjAiLz4mI3hhOzxmZUNvbG9yTWF0cml4IHJlc3VsdD0iaGFyZEFscGhhIiB2YWx1ZXM9IjAgMCAwIDAgMCAwIDAgMCAwIDAgMCAwIDAgMCAwIDAgMCAwIDEyNyAwIiB0eXBlPSJtYXRyaXgiIGluPSJTb3VyY2VBbHBoYSIvPiYjeGE7PGZlT2Zmc2V0IGR5PSIwLjA0NDg0MDQiIGR4PSIwLjIyNDIwMiIvPiYjeGE7PGZlR2F1c3NpYW5CbHVyIHN0ZERldmlhdGlvbj0iMC4zMzYzMDMiLz4mI3hhOzxmZUNvbXBvc2l0ZSBvcGVyYXRvcj0ib3V0IiBpbjI9ImhhcmRBbHBoYSIvPiYjeGE7PGZlQ29sb3JNYXRyaXggdmFsdWVzPSIwIDAgMCAwIDAgMCAwIDAgMCAwIDAgMCAwIDAgMCAwIDAgMCAwLjQgMCIgdHlwZT0ibWF0cml4Ii8+JiN4YTs8ZmVCbGVuZCByZXN1bHQ9ImVmZmVjdDFfZHJvcFNoYWRvd18zMTA2XzI3MTAxIiBpbjI9IkJhY2tncm91bmRJbWFnZUZpeCIgbW9kZT0ibm9ybWFsIi8+JiN4YTs8ZmVCbGVuZCByZXN1bHQ9InNoYXBlIiBpbjI9ImVmZmVjdDFfZHJvcFNoYWRvd18zMTA2XzI3MTAxIiBpbj0iU291cmNlR3JhcGhpYyIgbW9kZT0ibm9ybWFsIi8+JiN4YTs8L2ZpbHRlcj4mI3hhOzxsaW5lYXJHcmFkaWVudCBncmFkaWVudFVuaXRzPSJ1c2VyU3BhY2VPblVzZSIgeTI9IjE0LjQ2NjgiIHgyPSIxMy40NTAxIiB5MT0iMi41MDk1NyIgeDE9IjEuNzIyNzciIGlkPSJwYWludDBfbGluZWFyXzMxMDZfMjcxMDEiPiYjeGE7PHN0b3Agc3RvcC1jb2xvcj0id2hpdGUiLz4mI3hhOzxzdG9wIHN0b3AtY29sb3I9IiNFQUVDRUUiIG9mZnNldD0iMSIvPiYjeGE7PC9saW5lYXJHcmFkaWVudD4mI3hhOzxyYWRpYWxHcmFkaWVudCBncmFkaWVudFRyYW5zZm9ybT0idHJhbnNsYXRlKDcuMTQyMiAxMC41MTEzKSByb3RhdGUoLTc1LjY1MTMpIHNjYWxlKDE1Ljk3MDUgMTUuNzQ5OCkiIGdyYWRpZW50VW5pdHM9InVzZXJTcGFjZU9uVXNlIiByPSIxIiBjeT0iMCIgY3g9IjAiIGlkPSJwYWludDFfcmFkaWFsXzMxMDZfMjcxMDEiPiYjeGE7PHN0b3Agc3RvcC1jb2xvcj0iIzEzNDhGRiIvPiYjeGE7PHN0b3Agc3RvcC1jb2xvcj0iIzA2MjM4RCIgb2Zmc2V0PSIxIi8+JiN4YTs8L3JhZGlhbEdyYWRpZW50PiYjeGE7PHJhZGlhbEdyYWRpZW50IGdyYWRpZW50VHJhbnNmb3JtPSJ0cmFuc2xhdGUoMy4xOTI5OSA3LjMwMjE1KSByb3RhdGUoMzEuOTgpIHNjYWxlKDE1LjI2ODUgMjcuNTc2KSIgZ3JhZGllbnRVbml0cz0idXNlclNwYWNlT25Vc2UiIHI9IjEiIGN5PSIwIiBjeD0iMCIgaWQ9InBhaW50Ml9yYWRpYWxfMzEwNl8yNzEwMSI+JiN4YTs8c3RvcCBzdG9wLWNvbG9yPSIjMDE5NUZGIi8+JiN4YTs8c3RvcCBzdG9wLWNvbG9yPSIjMTE0N0U5IiBvZmZzZXQ9IjEiLz4mI3hhOzwvcmFkaWFsR3JhZGllbnQ+JiN4YTs8cmFkaWFsR3JhZGllbnQgZ3JhZGllbnRUcmFuc2Zvcm09InRyYW5zbGF0ZSgzLjg2NDM3IDE1LjI1NDIpIHJvdGF0ZSgtNDYuOTU3OSkgc2NhbGUoMTEuNzY0NCAxNi4xODIpIiBncmFkaWVudFVuaXRzPSJ1c2VyU3BhY2VPblVzZSIgcj0iMSIgY3k9IjAiIGN4PSIwIiBpZD0icGFpbnQzX3JhZGlhbF8zMTA2XzI3MTAxIj4mI3hhOzxzdG9wIHN0b3AtY29sb3I9IiMwMEJCRkYiLz4mI3hhOzxzdG9wIHN0b3AtY29sb3I9IiMwMDhCRkYiIG9mZnNldD0iMSIvPiYjeGE7PC9yYWRpYWxHcmFkaWVudD4mI3hhOzxjbGlwUGF0aCBpZD0iY2xpcDBfMzEwNl8yNzEwMSI+JiN4YTs8cmVjdCB0cmFuc2Zvcm09InRyYW5zbGF0ZSgtMC4wMDA5NzY1NjIpIiBmaWxsPSJ3aGl0ZSIgaGVpZ2h0PSIxNS45OTk5IiB3aWR0aD0iMTUuOTk5OSIvPiYjeGE7PC9jbGlwUGF0aD4mI3hhOzxjbGlwUGF0aCBpZD0iY2xpcDFfMzEwNl8yNzEwMSI+JiN4YTs8cmVjdCB0cmFuc2Zvcm09InRyYW5zbGF0ZSgzLjMzMjI4IDMuNSkiIGZpbGw9IndoaXRlIiBoZWlnaHQ9IjkuNjY2NjQiIHdpZHRoPSI5LjY2NjY0Ii8+JiN4YTs8L2NsaXBQYXRoPiYjeGE7PC9kZWZzPiYjeGE7PC9zdmc+;points=[[0,0,0,0,0],[0,0.25,0,0,0],[0,0.5,0,0,0],[0,0.75,0,0,0],[0.25,0,0,0,0],[0.5,0,0,0,0],[0.75,0,0,0,0],[1,0,0,0,0],[1,0.25,0,0,0],[1,0.5,0,0,0],[1,0.75,0,0,0]];" parent="1" vertex="1">
          <mxGeometry x="254.5" y="248" width="49" height="49" as="geometry" />
        </mxCell>
        <mxCell id="r2Ocmoq0C5dt8iKspmja-147" value="&lt;font color=&quot;#1d2d3e&quot; face=&quot;arial&quot; style=&quot;&quot;&gt;&lt;font style=&quot;font-size: 12px;&quot;&gt;SAP Destination service&lt;/font&gt;&lt;br&gt;&lt;/font&gt;" style="text;html=1;align=center;verticalAlign=top;resizable=1;points=[[0,0.5,0,0,0],[0.21,1,0,0,0],[0.5,1,0,0,0],[0.85,1,0,0,0],[1,0.5,0,0,0]];autosize=0;strokeColor=none;fillColor=none;fontSize=12;fontColor=default;fontFamily=Helvetica;fixedWidth=1;imageWidth=24;whiteSpace=wrap;labelBackgroundColor=none;" parent="1" vertex="1">
          <mxGeometry x="863" y="259" width="110" height="46" as="geometry" />
        </mxCell>
        <mxCell id="r2Ocmoq0C5dt8iKspmja-148" value="" style="shape=image;verticalLabelPosition=bottom;verticalAlign=top;imageAspect=0;aspect=fixed;image=data:image/svg+xml,PHN2ZyB4bWxucz0iaHR0cDovL3d3dy53My5vcmcvMjAwMC9zdmciIGZpbGw9Im5vbmUiIHZpZXdCb3g9IjAgMCA0OCA0OSIgaGVpZ2h0PSI0OSIgd2lkdGg9IjQ4Ij4mI3hhOzxjaXJjbGUgc3Ryb2tlLXdpZHRoPSIwLjg1NzE0MyIgc3Ryb2tlPSIjRDVEQUREIiBmaWxsPSJ1cmwoI3BhaW50MF9saW5lYXJfMjYyMV8yOTIwMikiIHI9IjIzLjU3MTQiIGN5PSIyNC4wNDkxIiBjeD0iMjQiLz4mI3hhOzxnIGNsaXAtcGF0aD0idXJsKCNjbGlwMF8yNjIxXzI5MjAyKSI+JiN4YTs8cGF0aCBmaWxsPSJ1cmwoI3BhaW50MV9yYWRpYWxfMjYyMV8yOTIwMikiIGQ9Ik0zMC45MTE3IDkuNjAxODFIMjIuOTQyOUMyMi42NDQ2IDkuNjAxODEgMjIuMzU4NSA5LjcyMDMxIDIyLjE0NzYgOS45MzEyNEMyMS45MzY2IDEwLjE0MjIgMjEuODE4MSAxMC40MjgyIDIxLjgxODEgMTAuNzI2NVYxNC42NzVDMjEuODE4MSAxNS41OTc0IDIxLjQ4ODcgMTYuMzg4IDIwLjgyOTkgMTcuMDQ2OUMyMC4xNzEgMTcuNzA1OCAxOS4zODA0IDE4LjAzNTIgMTguNDU4IDE4LjAzNTJIMTQuNTA5NUMxNC4yMTEyIDE4LjAzNTIgMTMuOTI1MSAxOC4xNTM3IDEzLjcxNDIgMTguMzY0NkMxMy41MDMzIDE4LjU3NTUgMTMuMzg0OCAxOC44NjE2IDEzLjM4NDggMTkuMTU5OVYzMy44NDkxQzEzLjM4NDggMzUuMzQwMiAxNC41OTM2IDM2LjU0OTEgMTYuMDg0OCAzNi41NDkxSDIzLjEwMUMyMi41OTQ5IDM2LjA0NSAyMi4xMzM0IDM1LjQ5NjIgMjEuNzIyOCAzNC45MDkxQzIxLjQwMjQgMzQuNDUwOSAyMS41MTQxIDMzLjgxOTYgMjEuOTcyNCAzMy40OTkxQzIyLjQzMDYgMzMuMTc4NyAyMy4wNjE5IDMzLjI5MDQgMjMuMzgyMyAzMy43NDg3QzI0LjA1ODEgMzQuNzE1MiAyNC45MDAxIDM1LjU1NzEgMjUuODY2NiAzNi4yMzI5QzI1Ljk4OTcgMzYuMzE5IDI2LjA4NzggMzYuNDI3NSAyNi4xNTkyIDM2LjU0OTFIMzAuOTExN0MzMi4xNjg1IDM2LjU0OTEgMzMuMjI0NyAzNS42OTA0IDMzLjUyNTcgMzQuNTI3N0MzMy4xMzk0IDM0LjU5ODYgMzIuNzQwNiAzNC42MzM5IDMyLjMzMSAzNC42MzM5SDMwLjk0N0MzMC4xNjY5IDM0LjYzMzkgMjkuNTAwMSAzNC4zMDcyIDI5LjAwMTUgMzMuODA4NkMyOC41OTMzIDMzLjQwMDQgMjguMzMxNiAzMi44OTQzIDI4LjI0MTUgMzIuMzM1M0wyNy4xNTU5IDMyLjM0NzNDMjYuNDUxNSAzMi4zNDczIDI1Ljc0IDMyLjExMTcgMjUuMTgwMyAzMS41NTJDMjQuNjIwNyAzMC45OTI0IDI0LjM4NTIgMzAuMjgwOSAyNC4zODUyIDI5LjU3NjVDMjQuMzg1MiAyOS4wNDY0IDI0LjUxODYgMjguNTEyNCAyNC44MjMgMjguMDQyQzI0LjUxODYgMjcuNTcxNiAyNC4zODUyIDI3LjAzNzYgMjQuMzg1MiAyNi41MDc1QzI0LjM4NTIgMjUuODAzMSAyNC42MjA3IDI1LjA5MTYgMjUuMTgwMyAyNC41MzJDMjUuNzUzOSAyMy45NTg0IDI2LjQ3ODYgMjMuNzY2OSAyNy4xMjU4IDIzLjc2NjlMMjguMjQ0NiAyMy43NjY5QzI4LjMzMTUgMjMuMjI4IDI4LjU3MDMgMjIuNzA2NiAyOS4wMDE1IDIyLjI3NTRDMjkuNTMxNyAyMS43NDUyIDMwLjIyODcgMjEuNDUzIDMwLjk5NzkgMjEuNDc5M0wzMi4zMTIzIDIxLjQ1MDFIMzIuMzMxQzMyLjc3MDcgMjEuNDUwMSAzMy4xOTg1IDIxLjQ4OTIgMzMuNjExNyAyMS41Njg4VjE4LjE1NDNDMzMuNTI5NyAxOC4xNjAyIDMzLjQ0NTcgMTguMTU2MyAzMy4zNjExIDE4LjE0MTNDMzIuNzkxMSAxOC4wNDA2IDMyLjIwMzggMTcuOTg3OSAzMS42MDM1IDE3Ljk4NzlDMzEuMDAzMSAxNy45ODc5IDMwLjQxNTggMTguMDQwNiAyOS44NDU5IDE4LjE0MTNDMjkuMjk1MiAxOC4yMzg2IDI4Ljc2OTkgMTcuODcxMSAyOC42NzI2IDE3LjMyMDVDMjguNTc1MyAxNi43Njk4IDI4Ljk0MjggMTYuMjQ0NSAyOS40OTM0IDE2LjE0NzJDMzAuMTc5MiAxNi4wMjYgMzAuODg0NCAxNS45NjI5IDMxLjYwMzUgMTUuOTYyOUMzMi4yODcgMTUuOTYyOSAzMi45NTggMTYuMDE5OSAzMy42MTE3IDE2LjEyOTdWMTIuMzAxOEMzMy42MTE3IDEwLjgxMDYgMzIuNDAyOSA5LjYwMTgxIDMwLjkxMTcgOS42MDE4MVpNMjYuMTE2MSAxOC4zODA3QzI2LjQzNjYgMTguODM5IDI2LjMyNDkgMTkuNDcwMyAyNS44NjY2IDE5Ljc5MDdDMjQuOTAwMSAyMC40NjY1IDI0LjA1ODEgMjEuMzA4NSAyMy4zODIzIDIyLjI3NUMyMy4wNjE5IDIyLjczMzIgMjIuNDMwNiAyMi44NDQ5IDIxLjk3MjQgMjIuNTI0NUMyMS41MTQxIDIyLjIwNDEgMjEuNDAyNCAyMS41NzI4IDIxLjcyMjggMjEuMTE0NUMyMi41MzQ1IDE5Ljk1MzggMjMuNTQ1NCAxOC45NDI5IDI0LjcwNjIgMTguMTMxMkMyNS4xNjQ0IDE3LjgxMDcgMjUuNzk1NyAxNy45MjI1IDI2LjExNjEgMTguMzgwN1pNMjAuOTEyMSAyNS4wODFDMjEuNDYyOCAyNS4xNzgzIDIxLjgzMDMgMjUuNzAzNiAyMS43MzI5IDI2LjI1NDJDMjEuNjMyMiAyNi44MjQyIDIxLjU3OTUgMjcuNDExNCAyMS41Nzk1IDI4LjAxMThDMjEuNTc5NSAyOC42MTIyIDIxLjYzMjIgMjkuMTk5NSAyMS43MzI5IDI5Ljc2OTRDMjEuODMwMyAzMC4zMjAxIDIxLjQ2MjggMzAuODQ1NCAyMC45MTIxIDMwLjk0MjdDMjAuMzYxNSAzMS4wNCAxOS44MzYyIDMwLjY3MjUgMTkuNzM4OCAzMC4xMjE5QzE5LjYxNzYgMjkuNDM2MSAxOS41NTQ1IDI4LjczMDkgMTkuNTU0NSAyOC4wMTE4QzE5LjU1NDUgMjcuMjkyOCAxOS42MTc2IDI2LjU4NzYgMTkuNzM4OCAyNS45MDE4QzE5LjgzNjIgMjUuMzUxMSAyMC4zNjE0IDI0Ljk4MzYgMjAuOTEyMSAyNS4wODFaIiBjbGlwLXJ1bGU9ImV2ZW5vZGQiIGZpbGwtcnVsZT0iZXZlbm9kZCIvPiYjeGE7PHBhdGggZmlsbD0idXJsKCNwYWludDJfcmFkaWFsXzI2MjFfMjkyMDIpIiBkPSJNMjYuMzczNiAyNS43MjUyQzI2LjE3MyAyNS45MjU4IDI2LjA3MjggMjYuMTg2NiAyNi4wNzI4IDI2LjUwNzVDMjYuMDcyOCAyNi44Mjg0IDI2LjE3MyAyNy4wODkyIDI2LjM3MzYgMjcuMjg5OEMyNi41NzQyIDI3LjQ5MDQgMjYuODM1IDI3LjU5MDcgMjcuMTU1OSAyNy41OTA3TDI5Ljg5MzkgMjcuNTYwNkwyOS44OTM5IDI4LjUyMzRMMjcuMTU1OSAyOC40OTMzQzI2LjgzNSAyOC40OTMzIDI2LjU3NDIgMjguNTkzNiAyNi4zNzM2IDI4Ljc5NDJDMjYuMTczIDI4Ljk5NDggMjYuMDcyOCAyOS4yNTU2IDI2LjA3MjggMjkuNTc2NUMyNi4wNzI4IDI5Ljg5NzQgMjYuMTczIDMwLjE1ODIgMjYuMzczNiAzMC4zNTg4QzI2LjU3NDIgMzAuNTU5NCAyNi44MzUgMzAuNjU5NyAyNy4xNTU5IDMwLjY1OTdMMjkuODkzOSAzMC42Mjk2VjMxLjg5MzNDMjkuODkzOSAzMi4xNzQxIDI5Ljk5NDIgMzIuNDE0OCAzMC4xOTQ4IDMyLjYxNTRDMzAuNDE1NSAzMi44MzYgMzAuNjY2MiAzMi45NDY0IDMwLjk0NyAzMi45NDY0SDMyLjMzMTFDMzMuNDk0NSAzMi45NDY0IDM0LjQ4NzQgMzIuNTc1MyAzNS4zMDk4IDMxLjgzMzFDMzYuMTMyMiAzMS4wOTA5IDM2LjYwMzYgMzAuMTU4MiAzNi43MjQgMjkuMDM0OUwzOS40Mjc4IDI5LjAzNDlDMzkuNzQ4NyAyOS4wMzQ5IDQwLjAwOTUgMjguOTM0NiA0MC4yMTAxIDI4LjczNEM0MC4zOTA2IDI4LjU1MzUgNDAuNDgwOSAyOC4zMDI3IDQwLjQ4MDkgMjcuOTgxOEM0MC40ODA5IDI3LjY2MDkgNDAuMzgwNiAyNy40MDAxIDQwLjE4IDI3LjE5OTVDMzkuOTc5NCAyNi45OTg5IDM5LjcxODcgMjYuODk4NiAzOS4zOTc3IDI2Ljg5ODZMMzYuNjkzOSAyNi44OTg3QzM2LjUzMzQgMjUuODE1NSAzNi4wNTIgMjQuOTEyOCAzNS4yNDk2IDI0LjE5MDdDMzQuNDY3MyAyMy40ODg3IDMzLjQ5NDUgMjMuMTM3NiAzMi4zMzExIDIzLjEzNzZMMzAuOTc3MSAyMy4xNjc3QzMwLjY3NjIgMjMuMTQ3NyAzMC40MTU1IDIzLjI0OCAzMC4xOTQ4IDIzLjQ2ODZDMjkuOTk0MiAyMy42NjkyIDI5Ljg5MzkgMjMuOTMgMjkuODkzOSAyNC4yNTA5TDI5Ljg5MzkgMjUuNDU0NEwyNy4xMjU4IDI1LjQ1NDRDMjYuODA0OSAyNS40NTQ0IDI2LjU1NDIgMjUuNTQ0NyAyNi4zNzM2IDI1LjcyNTJaIi8+JiN4YTs8cGF0aCBmaWxsPSJ1cmwoI3BhaW50M19yYWRpYWxfMjYyMV8yOTIwMikiIGQ9Ik0yMC41NjcgMTQuNTA1NFYxMS41MTE4TDE1LjI5NDcgMTYuNzg0MUgxOC4yODgzQzE4LjkxMzggMTYuNzg0MSAxOS40NSAxNi41NjA3IDE5Ljg5NjggMTYuMTEzOUMyMC4zNDM2IDE1LjY2NzEgMjAuNTY3IDE1LjEzMDkgMjAuNTY3IDE0LjUwNTRaIi8+JiN4YTs8L2c+JiN4YTs8ZGVmcz4mI3hhOzxsaW5lYXJHcmFkaWVudCBncmFkaWVudFVuaXRzPSJ1c2VyU3BhY2VPblVzZSIgeTI9IjQ0LjI5MzQiIHgyPSI0MS4wNjQ1IiB5MT0iNi44NjE5MSIgeDE9IjQuMzUyODciIGlkPSJwYWludDBfbGluZWFyXzI2MjFfMjkyMDIiPiYjeGE7PHN0b3Agc3RvcC1jb2xvcj0id2hpdGUiLz4mI3hhOzxzdG9wIHN0b3AtY29sb3I9IiNFQUVDRUUiIG9mZnNldD0iMSIvPiYjeGE7PC9saW5lYXJHcmFkaWVudD4mI3hhOzxyYWRpYWxHcmFkaWVudCBncmFkaWVudFRyYW5zZm9ybT0idHJhbnNsYXRlKDE2LjUyMTQgMTMuNTU4NSkgcm90YXRlKDUzLjQxMjYpIHNjYWxlKDIzLjQ5NDggNDIuNDkzOSkiIGdyYWRpZW50VW5pdHM9InVzZXJTcGFjZU9uVXNlIiByPSIxIiBjeT0iMCIgY3g9IjAiIGlkPSJwYWludDFfcmFkaWFsXzI2MjFfMjkyMDIiPiYjeGE7PHN0b3Agc3RvcC1jb2xvcj0iIzAxOTVGRiIvPiYjeGE7PHN0b3Agc3RvcC1jb2xvcj0iIzExNDdFOSIgb2Zmc2V0PSIxIi8+JiN4YTs8L3JhZGlhbEdyYWRpZW50PiYjeGE7PHJhZGlhbEdyYWRpZW50IGdyYWRpZW50VHJhbnNmb3JtPSJ0cmFuc2xhdGUoMjguMzAzOCAyNC42MTMyKSByb3RhdGUoMzQuMjQ2MSkgc2NhbGUoMTIuMTQxMyAxMC4yOTM1KSIgZ3JhZGllbnRVbml0cz0idXNlclNwYWNlT25Vc2UiIHI9IjEiIGN5PSIwIiBjeD0iMCIgaWQ9InBhaW50Ml9yYWRpYWxfMjYyMV8yOTIwMiI+JiN4YTs8c3RvcCBzdG9wLWNvbG9yPSIjMTM0OEZGIi8+JiN4YTs8c3RvcCBzdG9wLWNvbG9yPSIjMDYyMzhEIiBvZmZzZXQ9IjEiLz4mI3hhOzwvcmFkaWFsR3JhZGllbnQ+JiN4YTs8cmFkaWFsR3JhZGllbnQgZ3JhZGllbnRUcmFuc2Zvcm09InRyYW5zbGF0ZSgxNi4xMTExIDEyLjMwNDkpIHJvdGF0ZSg0NSkgc2NhbGUoNS4xOTM3NyA0LjczMjg5KSIgZ3JhZGllbnRVbml0cz0idXNlclNwYWNlT25Vc2UiIHI9IjEiIGN5PSIwIiBjeD0iMCIgaWQ9InBhaW50M19yYWRpYWxfMjYyMV8yOTIwMiI+JiN4YTs8c3RvcCBzdG9wLWNvbG9yPSIjMTM0OEZGIi8+JiN4YTs8c3RvcCBzdG9wLWNvbG9yPSIjMDYyMzhEIiBvZmZzZXQ9IjEiLz4mI3hhOzwvcmFkaWFsR3JhZGllbnQ+JiN4YTs8Y2xpcFBhdGggaWQ9ImNsaXAwXzI2MjFfMjkyMDIiPiYjeGE7PHJlY3QgdHJhbnNmb3JtPSJ0cmFuc2xhdGUoMTMuNSA5LjU0OTA3KSIgZmlsbD0id2hpdGUiIGhlaWdodD0iMjciIHdpZHRoPSIyNyIvPiYjeGE7PC9jbGlwUGF0aD4mI3hhOzwvZGVmcz4mI3hhOzwvc3ZnPg==;points=[[0,0,0,0,0],[0,0.25,0,0,0],[0,0.5,0,0,0],[0,0.75,0,0,0],[0.25,0,0,0,0],[0.5,0,0,0,0],[0.75,0,0,0,0],[1,0,0,0,0],[1,0.25,0,0,0],[1,0.5,0,0,0],[1,0.75,0,0,0]];" parent="1" vertex="1">
          <mxGeometry x="893" y="212" width="47.51" height="48.5" as="geometry" />
        </mxCell>
        <mxCell id="r2Ocmoq0C5dt8iKspmja-149" value="SAP Private&#xa;Link service" style="shape=image;verticalLabelPosition=bottom;verticalAlign=top;imageAspect=0;aspect=fixed;image=data:image/svg+xml,PHN2ZyB4bWxucz0iaHR0cDovL3d3dy53My5vcmcvMjAwMC9zdmciIGZpbGw9Im5vbmUiIHZpZXdCb3g9IjAgMCA0OSA0OSIgaGVpZ2h0PSI0OSIgd2lkdGg9IjQ5Ij4mI3hhOzxnIGNsaXAtcGF0aD0idXJsKCNjbGlwMF8yNjIyXzM2NjcpIj4mI3hhOzxjaXJjbGUgc3Ryb2tlLXdpZHRoPSIwLjg1NzE0MyIgc3Ryb2tlPSIjRDVEQUREIiBmaWxsPSJ1cmwoI3BhaW50MF9saW5lYXJfMjYyMl8zNjY3KSIgcj0iMjMuNTcxNCIgY3k9IjI0LjAzNDkiIGN4PSIyNC40ODU0Ii8+JiN4YTs8ZyBjbGlwLXBhdGg9InVybCgjY2xpcDFfMjYyMl8zNjY3KSI+JiN4YTs8cGF0aCBmaWxsPSJ1cmwoI3BhaW50MV9yYWRpYWxfMjYyMl8zNjY3KSIgZD0iTTE5Ljk4ODcgMjMuNjA5NUMxOS4zMjA5IDIzLjMzMTIgMTguNzI2OCAyMi45MDE5IDE4LjIwNjYgMjIuMzI4NEMxNy45NTAxIDIyLjA2OTQgMTcuODA1MSAyMS43NTcyIDE3LjgwNTEgMjEuNDAxNUMxNy44MDUxIDIxLjAyNjIgMTcuOTQ1NSAyMC42OTY5IDE4LjIxMjYgMjAuNDI5N0MxOC40NzI5IDIwLjE2OTUgMTguNzg3MiAyMC4wMjIyIDE5LjE0NTYgMjAuMDIyMkMxOS41MjA5IDIwLjAyMjIgMTkuODUwMyAyMC4xNjI2IDIwLjExNzUgMjAuNDI5N0wyMC4xMjc2IDIwLjQzOTlDMjAuMzc5IDIwLjcxNDEgMjAuNjczOSAyMC45MTg1IDIxLjAxNTUgMjEuMDU1MUMyMS4zNjc2IDIxLjE5NiAyMS43MTQyIDIxLjI2NDQgMjIuMDU3MSAyMS4yNjQ0QzIyLjQyODYgMjEuMjY0NCAyMi43ODggMjEuMTk0OSAyMy4xMzc0IDIxLjA1NTFDMjMuNDgxOSAyMC45MTc0IDIzLjc5MzggMjAuNzEwMiAyNC4wNzQzIDIwLjQyOTdMMjcuMDI5NSAxNy40NzQ1QzI3LjU4NiAxNi45NDEyIDI3Ljg1OTIgMTYuMzAyOCAyNy44NTkyIDE1LjUzOTlDMjcuODU5MiAxNC43NzYgMjcuNTg1IDE0LjEwNjUgMjcuMDE5OCAxMy41MTc4QzI2LjQ4NjYgMTIuOTYxNCAyNS44NDc5IDEyLjY4OCAyNS4wODQ5IDEyLjY4OEMyNC4zMjIxIDEyLjY4OCAyMy42NTM0IDEyLjk2MTUgMjMuMDY1MyAxMy41MjUxTDIxLjU5MjYgMTQuOTk3OEMyMS4zMjU0IDE1LjI2NDkgMjAuOTk2MSAxNS40MDUzIDIwLjYyMDggMTUuNDA1M0MyMC4yNDU1IDE1LjQwNTMgMTkuOTE2MSAxNS4yNjQ5IDE5LjY0ODkgMTQuOTk3OEMxOS4zODE4IDE0LjczMDYgMTkuMjQxNCAxNC40MDEyIDE5LjI0MTQgMTQuMDI1OUMxOS4yNDE0IDEzLjY1MDYgMTkuMzgxOCAxMy4zMjEzIDE5LjY0ODkgMTMuMDU0MUwyMS4xMjQxIDExLjU3OUMyMS42NzA5IDExLjAzMjEgMjIuMjg5NiAxMC42MTg2IDIyLjk3OTEgMTAuMzQyM0MyMy42ODgzIDEwLjA0MjcgMjQuNDAzOSA5Ljg5MDQgMjUuMTIzOCA5Ljg5MDRDMjUuODQzMSA5Ljg5MDQgMjYuNTQ2NiAxMC4wNDI1IDI3LjIzMTggMTAuMzQzMkMyNy45MTk0IDEwLjYxOTEgMjguNTI0OCAxMS4wMzIxIDI5LjA0NTkgMTEuNTc4OUMyOS41OTI4IDEyLjEgMzAuMDA1NyAxMi43MDU0IDMwLjI4MTYgMTMuMzkzMUMzMC41ODIzIDE0LjA3ODMgMzAuNzM0NCAxNC43ODE4IDMwLjczNDQgMTUuNTAxMUMzMC43MzQ0IDE2LjIyMTEgMzAuNTgyIDE2LjkyNTMgMzAuMjgwNyAxNy42MTEzQzMwLjAwMzggMTguMjc0NSAyOS41OTA1IDE4Ljg3ODUgMjkuMDQ1OCAxOS40MjMxTDI2LjEzNDQgMjIuMzM0NUMyNS41NjI1IDIyLjkwNjQgMjQuOTMwMiAyMy4zMzQyIDI0LjIzNzUgMjMuNjExM0MyMy41NTEzIDIzLjg4NTcgMjIuODM2NiAyNC4wMjMxIDIyLjA5NTkgMjQuMDIzMUMyMS4zNzk0IDI0LjAyMzEgMjAuNjc3OCAyMy44ODUxIDE5Ljk5MzEgMjMuNjExM0wxOS45ODg3IDIzLjYwOTVaIi8+JiN4YTs8cGF0aCBmaWxsPSJ1cmwoI3BhaW50Ml9yYWRpYWxfMjYyMl8zNjY3KSIgZD0iTTEzLjk1MDIgMjYuNzIzNEMxNC40ODM0IDI3LjI3OTkgMTUuMTIxOSAyNy41NTMgMTUuODg0OCAyNy41NTNDMTYuNjQ4MiAyNy41NTMgMTcuMzAyMyAyNy4yNzk0IDE3Ljg2MzMgMjYuNzE4NEwxOS4zMzg0IDI1LjI0MzNDMTkuNjExNiAyNC45NzAxIDE5Ljk1NjUgMjQuODM1NyAyMC4zNDkgMjQuODM1N0MyMC41NTY3IDI0LjgzNTcgMjAuNzU0IDI0Ljg4MzkgMjAuOTI5NCAyNC45OTExQzIxLjA5MDYgMjUuMDg5NiAyMS4yMTc2IDI1LjIyODQgMjEuMzE1IDI1LjM5MzdDMjEuNTYwNyAyNS42NTQ2IDIxLjY4OTYgMjUuOTcyIDIxLjY4OTYgMjYuMzMxNUMyMS42ODk2IDI2LjcwNjggMjEuNTQ5MiAyNy4wMzYyIDIxLjI4MiAyNy4zMDM0TDIxLjI3ODkgMjcuMzA2NUwxOS44MDUzIDI4Ljc0MTNDMTkuMjU3NyAyOS4yODg0IDE4LjYyNjMgMjkuNzAwOSAxNy45MTMyIDI5Ljk3NjRDMTcuMjI4NiAzMC4yNzY1IDE2LjUyNTggMzAuNDI4MyAxNS44MDcyIDMwLjQyODNDMTUuMDg3MSAzMC40MjgzIDE0LjM4MjkgMzAuMjc1OSAxMy42OTcgMjkuOTc0NUMxMy4wMzM3IDI5LjY5NzcgMTIuNDI5OCAyOS4yODQzIDExLjg4NTEgMjguNzM5N0MxMS4zMzc1IDI4LjE5MiAxMC45MjM1IDI3LjU3MjMgMTAuNjQ3MiAyNi44ODE2QzEwLjM3MzQgMjYuMTk2OSAxMC4yMzU0IDI1LjQ5NTMgMTAuMjM1NCAyNC43Nzg4QzEwLjIzNTQgMjQuMDYyMyAxMC4zNzM0IDIzLjM2MDcgMTAuNjQ3MiAyMi42NzZDMTAuOTIzNSAyMS45ODUzIDExLjMzNzUgMjEuMzY1NiAxMS44ODUxIDIwLjgxNzlMMTEuODg2NyAyMC44MTY0TDE0LjgzNTQgMTcuOTA2NUMxNS4zODIxIDE3LjM2IDE2LjAwMTIgMTYuOTQ2IDE2LjY5MDQgMTYuNjY5OEMxNy4zOTk2IDE2LjM3MDIgMTguMTE1MiAxNi4yMTc5IDE4LjgzNTEgMTYuMjE3OUMxOS41NTQ0IDE2LjIxNzkgMjAuMjU3OSAxNi4zNyAyMC45NDMxIDE2LjY3MDdDMjEuNjMyMSAxNi45NDcyIDIyLjIzODUgMTcuMzYxMiAyMi43NjAyIDE3LjkwOTZDMjMuMDI1NCAxOC4xNzYyIDIzLjE2NDcgMTguNTA0NSAyMy4xNjQ3IDE4Ljg3ODNDMjMuMTY0NyAxOS4yNTM2IDIzLjAyNDMgMTkuNTgyOSAyMi43NTcxIDE5Ljg1MDFDMjIuNDg5OSAyMC4xMTczIDIyLjE2MDYgMjAuMjU3NyAyMS43ODUzIDIwLjI1NzdDMjEuNDEgMjAuMjU3NyAyMS4wODA3IDIwLjExNzMgMjAuODEzNSAxOS44NTAxTDIwLjgwMzcgMTkuODQwNEMyMC4yNjkyIDE5LjI1OTMgMTkuNjMyMiAxOC45NzY3IDE4Ljg3MzkgMTguOTc2N0MxOC4xMTUgMTguOTc2NyAxNy40NjIzIDE5LjI1OTcgMTYuOTAwMiAxOS44NDUzTDE2Ljg5NCAxOS44NTE4TDEzLjkzNTQgMjIuNzcxMkMxMy4zNTQzIDIzLjMwNTggMTMuMDcxOCAyMy45NDI4IDEzLjA3MTggMjQuNzAxMkMxMy4wNzE4IDI1LjQ2MDYgMTMuMzU1NSAyNi4xMjg2IDEzLjk0NTIgMjYuNzE4NEwxMy45NTAyIDI2LjcyMzRaIi8+JiN4YTs8cGF0aCBmaWxsPSJ1cmwoI3BhaW50M19yYWRpYWxfMjYyMl8zNjY3KSIgZD0iTTI5LjYwODQgMjUuNjU2M0MyOS42MDg0IDI0LjgyNTQgMzAuMjgyIDI0LjE1MTggMzEuMTEyOSAyNC4xNTE4QzMxLjk0MzggMjQuMTUxOCAzMi42MTc0IDI0LjgyNTQgMzIuNjE3NCAyNS42NTYzVjI3LjYxNUgyOS42MDg0VjI1LjY1NjNaTTM1LjMxNzQgMjcuNjUyNFYyNS42NTYzQzM1LjMxNzQgMjMuMzM0MyAzMy40MzUgMjEuNDUxOCAzMS4xMTI5IDIxLjQ1MThDMjguNzkwOCAyMS40NTE4IDI2LjkwODQgMjMuMzM0MyAyNi45MDg0IDI1LjY1NjNWMjcuNjUyNEMyNi40NTA0IDI3LjczMzggMjYuMDU1NyAyNy45NDc3IDI1LjcyNDQgMjguMjk0MUMyNS4yOTE0IDI4LjcyNzEgMjUuMDc0OCAyOS4yNTg2IDI1LjA3NDggMjkuODg4NVYzNC40MDZDMjUuMDc0OCAzNS4wNTU1IDI1LjI5MTQgMzUuNTk2OCAyNS43MjQ0IDM2LjAyOTlDMjYuMTU3NSAzNi40NjI5IDI2LjY5ODggMzYuNjc5NSAyNy4zNDgzIDM2LjY3OTVIMzQuODc3NUMzNS41MjcxIDM2LjY3OTUgMzYuMDY4NCAzNi40NjI5IDM2LjUwMTQgMzYuMDI5OUMzNi45MzQ1IDM1LjU5NjggMzcuMTUxIDM1LjA1NTUgMzcuMTUxIDM0LjQwNlYyOS44ODg1QzM3LjE1MSAyOS4yNTg2IDM2LjkzNDUgMjguNzI3MSAzNi41MDE0IDI4LjI5NDFDMzYuMTcwMSAyNy45NDc3IDM1Ljc3NTUgMjcuNzMzOCAzNS4zMTc0IDI3LjY1MjRaTTMxLjA5ODIgMzAuNjU2MUMzMS41MzEyIDMwLjY1NjEgMzEuODg1NSAzMC44MDM4IDMyLjE2MTEgMzEuMDk5QzMyLjQ1NjQgMzEuMzc0NiAzMi42MDQgMzEuNzI4OSAzMi42MDQgMzIuMTYyQzMyLjYwNCAzMi41NzUzIDMyLjQ1NjQgMzIuOTI5NyAzMi4xNjExIDMzLjIyNDlDMzEuODg1NSAzMy41MjAyIDMxLjUzMTIgMzMuNjY3OCAzMS4wOTgyIDMzLjY2NzhDMzAuNjg0OCAzMy42Njc4IDMwLjMzMDUgMzMuNTIwMiAzMC4wMzUyIDMzLjIyNDlDMjkuNzQgMzIuOTI5NyAyOS41OTIzIDMyLjU3NTMgMjkuNTkyMyAzMi4xNjJDMjkuNTkyMyAzMS43Mjg5IDI5Ljc0IDMxLjM3NDYgMzAuMDM1MiAzMS4wOTlDMzAuMzMwNSAzMC44MDM4IDMwLjY4NDggMzAuNjU2MSAzMS4wOTgyIDMwLjY1NjFaIiBjbGlwLXJ1bGU9ImV2ZW5vZGQiIGZpbGwtcnVsZT0iZXZlbm9kZCIvPiYjeGE7PC9nPiYjeGE7PC9nPiYjeGE7PGRlZnM+JiN4YTs8bGluZWFyR3JhZGllbnQgZ3JhZGllbnRVbml0cz0idXNlclNwYWNlT25Vc2UiIHkyPSI0NC4yNzkyIiB4Mj0iNDEuNTQ5OCIgeTE9IjYuODQ3NzUiIHgxPSI0LjgzODIyIiBpZD0icGFpbnQwX2xpbmVhcl8yNjIyXzM2NjciPiYjeGE7PHN0b3Agc3RvcC1jb2xvcj0id2hpdGUiLz4mI3hhOzxzdG9wIHN0b3AtY29sb3I9IiNFQUVDRUUiIG9mZnNldD0iMSIvPiYjeGE7PC9saW5lYXJHcmFkaWVudD4mI3hhOzxyYWRpYWxHcmFkaWVudCBncmFkaWVudFRyYW5zZm9ybT0idHJhbnNsYXRlKDEzLjQwOTYgMTIuOTgpIHJvdGF0ZSg0NS4wNTQyKSBzY2FsZSgyMC4yMTI4IDE4LjQxOTIpIiBncmFkaWVudFVuaXRzPSJ1c2VyU3BhY2VPblVzZSIgcj0iMSIgY3k9IjAiIGN4PSIwIiBpZD0icGFpbnQxX3JhZGlhbF8yNjIyXzM2NjciPiYjeGE7PHN0b3Agc3RvcC1jb2xvcj0iIzEzNDhGRiIvPiYjeGE7PHN0b3Agc3RvcC1jb2xvcj0iIzA2MjM4RCIgb2Zmc2V0PSIxIi8+JiN4YTs8L3JhZGlhbEdyYWRpZW50PiYjeGE7PHJhZGlhbEdyYWRpZW50IGdyYWRpZW50VHJhbnNmb3JtPSJ0cmFuc2xhdGUoMTMuNDA5NiAxMi45OCkgcm90YXRlKDQ1LjA1NDIpIHNjYWxlKDIwLjIxMjggMTguNDE5MikiIGdyYWRpZW50VW5pdHM9InVzZXJTcGFjZU9uVXNlIiByPSIxIiBjeT0iMCIgY3g9IjAiIGlkPSJwYWludDJfcmFkaWFsXzI2MjJfMzY2NyI+JiN4YTs8c3RvcCBzdG9wLWNvbG9yPSIjMTM0OEZGIi8+JiN4YTs8c3RvcCBzdG9wLWNvbG9yPSIjMDYyMzhEIiBvZmZzZXQ9IjEiLz4mI3hhOzwvcmFkaWFsR3JhZGllbnQ+JiN4YTs8cmFkaWFsR3JhZGllbnQgZ3JhZGllbnRUcmFuc2Zvcm09InRyYW5zbGF0ZSgyNi45NDc1IDIzLjY4NzcpIHJvdGF0ZSg1MS44OTMzKSBzY2FsZSgxMy41NDgxIDI0Ljg2MjEpIiBncmFkaWVudFVuaXRzPSJ1c2VyU3BhY2VPblVzZSIgcj0iMSIgY3k9IjAiIGN4PSIwIiBpZD0icGFpbnQzX3JhZGlhbF8yNjIyXzM2NjciPiYjeGE7PHN0b3Agc3RvcC1jb2xvcj0iIzAxOTVGRiIvPiYjeGE7PHN0b3Agc3RvcC1jb2xvcj0iIzExNDdFOSIgb2Zmc2V0PSIxIi8+JiN4YTs8L3JhZGlhbEdyYWRpZW50PiYjeGE7PGNsaXBQYXRoIGlkPSJjbGlwMF8yNjIyXzM2NjciPiYjeGE7PHJlY3QgdHJhbnNmb3JtPSJ0cmFuc2xhdGUoMC40ODUzNTIgMC4wMzQ5MTIxKSIgZmlsbD0id2hpdGUiIGhlaWdodD0iNDgiIHdpZHRoPSI0OCIvPiYjeGE7PC9jbGlwUGF0aD4mI3hhOzxjbGlwUGF0aCBpZD0iY2xpcDFfMjYyMl8zNjY3Ij4mI3hhOzxyZWN0IHRyYW5zZm9ybT0idHJhbnNsYXRlKDEwLjIzNTQgOS43ODQ5MSkiIGZpbGw9IndoaXRlIiBoZWlnaHQ9IjI3IiB3aWR0aD0iMjciLz4mI3hhOzwvY2xpcFBhdGg+JiN4YTs8L2RlZnM+JiN4YTs8L3N2Zz4=;points=[[0,0,0,0,0],[0,0.25,0,0,0],[0,0.5,0,0,0],[0,0.75,0,0,0],[0.25,0,0,0,0],[0.5,0,0,0,0],[0.75,0,0,0,0],[1,0,0,0,0],[1,0.25,0,0,0],[1,0.5,0,0,0],[1,0.75,0,0,0]];" parent="1" vertex="1">
          <mxGeometry x="1026.5" y="212" width="49" height="49" as="geometry" />
        </mxCell>
        <mxCell id="r2Ocmoq0C5dt8iKspmja-150" style="edgeStyle=orthogonalEdgeStyle;rounded=0;orthogonalLoop=1;jettySize=auto;html=1;exitX=0.5;exitY=1;exitDx=0;exitDy=0;fontFamily=Helvetica;fontSize=12;fontColor=default;" parent="1" source="r2Ocmoq0C5dt8iKspmja-105" target="r2Ocmoq0C5dt8iKspmja-105" edge="1">
          <mxGeometry relative="1" as="geometry" />
        </mxCell>
        <mxCell id="r2Ocmoq0C5dt8iKspmja-151" style="edgeStyle=orthogonalEdgeStyle;rounded=0;orthogonalLoop=1;jettySize=auto;html=1;exitX=1;exitY=0.25;exitDx=0;exitDy=0;strokeColor=#475e75;strokeWidth=1.5;align=center;verticalAlign=middle;fontFamily=Arial;fontSize=12;fontColor=default;labelBackgroundColor=default;startArrow=none;startFill=0;startSize=4;endArrow=blockThin;endFill=1;endSize=4;" parent="1" source="r2Ocmoq0C5dt8iKspmja-117" target="r2Ocmoq0C5dt8iKspmja-148" edge="1">
          <mxGeometry relative="1" as="geometry">
            <Array as="points" />
            <mxPoint x="926.2049999999999" y="452.3499999999999" as="targetPoint" />
            <mxPoint x="803.0500000000002" y="316.64999999999964" as="sourcePoint" />
          </mxGeometry>
        </mxCell>
        <mxCell id="r2Ocmoq0C5dt8iKspmja-152" value="" style="endArrow=blockThin;html=1;strokeColor=#475E75;bendable=1;rounded=0;endFill=1;endSize=4;strokeWidth=1.5;startSize=4;entryX=0;entryY=0.5;entryDx=0;entryDy=0;fontFamily=Arial;entryPerimeter=0;" parent="1" source="r2Ocmoq0C5dt8iKspmja-148" target="r2Ocmoq0C5dt8iKspmja-149" edge="1">
          <mxGeometry width="50" height="50" relative="1" as="geometry">
            <mxPoint x="914.5" y="235.32000000000016" as="sourcePoint" />
            <mxPoint x="1016.5" y="235.32000000000016" as="targetPoint" />
          </mxGeometry>
        </mxCell>
        <mxCell id="r2Ocmoq0C5dt8iKspmja-153" value="" style="endArrow=blockThin;html=1;strokeColor=#475E75;bendable=1;rounded=0;endFill=1;endSize=4;strokeWidth=1.5;startSize=4;exitX=1;exitY=0.5;exitDx=0;exitDy=0;fontFamily=Arial;entryX=0;entryY=0.5;entryDx=0;entryDy=0;" parent="1" source="r2Ocmoq0C5dt8iKspmja-141" target="r2Ocmoq0C5dt8iKspmja-143" edge="1">
          <mxGeometry width="50" height="50" relative="1" as="geometry">
            <mxPoint x="1347.75" y="355.1700000000001" as="sourcePoint" />
            <mxPoint x="1364.25" y="351" as="targetPoint" />
          </mxGeometry>
        </mxCell>
        <mxCell id="r2Ocmoq0C5dt8iKspmja-154" value="" style="endArrow=blockThin;html=1;strokeColor=#475E75;bendable=1;rounded=0;endFill=1;endSize=4;strokeWidth=1.5;startSize=4;exitX=0.5;exitY=0;exitDx=0;exitDy=0;fontFamily=Arial;entryX=0.5;entryY=1;entryDx=0;entryDy=0;" parent="1" source="r2Ocmoq0C5dt8iKspmja-143" target="r2Ocmoq0C5dt8iKspmja-138" edge="1">
          <mxGeometry width="50" height="50" relative="1" as="geometry">
            <mxPoint x="1337.25" y="393" as="sourcePoint" />
            <mxPoint x="1394.25" y="393" as="targetPoint" />
          </mxGeometry>
        </mxCell>
        <mxCell id="r2Ocmoq0C5dt8iKspmja-155" value="SAP Authorization and&#xa;Trust Management service" style="shape=image;verticalLabelPosition=bottom;verticalAlign=top;imageAspect=0;aspect=fixed;image=data:image/svg+xml,PHN2ZyB4bWxucz0iaHR0cDovL3d3dy53My5vcmcvMjAwMC9zdmciIGZpbGw9Im5vbmUiIHZpZXdCb3g9IjAgMCA0OSA0OSIgaGVpZ2h0PSI0OSIgd2lkdGg9IjQ5Ij4mI3hhOzxnIGNsaXAtcGF0aD0idXJsKCNjbGlwMF8yNjIyXzM1NTgpIj4mI3hhOzxjaXJjbGUgc3Ryb2tlLXdpZHRoPSIwLjg1NzE0MyIgc3Ryb2tlPSIjRDVEQUREIiBmaWxsPSJ1cmwoI3BhaW50MF9saW5lYXJfMjYyMl8zNTU4KSIgcj0iMjMuNTcxNCIgY3k9IjI0LjAzNDkiIGN4PSIyNC41Ii8+JiN4YTs8ZyBjbGlwLXBhdGg9InVybCgjY2xpcDFfMjYyMl8zNTU4KSI+JiN4YTs8cGF0aCBmaWxsPSJ1cmwoI3BhaW50MV9yYWRpYWxfMjYyMl8zNTU4KSIgZD0iTTE3Ljk5MjEgMTQuNTIwMUMxOS42ODAzIDEzLjc2ODQgMjEuNTEgMTMuMzg2OSAyMy4zNTggMTMuNDAxMkgyMy4zNTUxQzI1LjIwMjkgMTMuNDE1NiAyNy4wMjYzIDEzLjgyNTQgMjguNzAyNiAxNC42MDMxQzMwLjM3ODggMTUuMzgwOCAzMS44NjkyIDE2LjUwODQgMzMuMDczNCAxNy45MUMzMy4xNzM5IDE4LjAzMDIgMzMuMjk3MiAxOC4xMjkyIDMzLjQzNjIgMTguMjAxM0MzMy41NzUyIDE4LjI3MzUgMzMuNzI3MiAxOC4zMTczIDMzLjg4MzIgMTguMzMwMkMzNC4wMzkzIDE4LjM0MzEgMzQuMTk2NCAxOC4zMjQ5IDM0LjM0NTQgMTguMjc2N0MzNC40OTQ0IDE4LjIyODQgMzQuNjMyMyAxOC4xNTEgMzQuNzUxMSAxOC4wNDlDMzQuODcgMTcuOTQ3IDM0Ljk2NzQgMTcuODIyNCAzNS4wMzc3IDE3LjY4MjVDMzUuMTA4IDE3LjU0MjUgMzUuMTQ5OCAxNy4zOSAzNS4xNjA3IDE3LjIzMzhDMzUuMTcxNSAxNy4wNzc1IDM1LjE1MTMgMTYuOTIwNyAzNS4xMDExIDE2Ljc3MjRDMzUuMDUwOCAxNi42MjQgMzQuOTcxNyAxNi40ODcxIDM0Ljg2ODEgMTYuMzY5NkMzMy40NDQgMTQuNzExNSAzMS42ODE0IDEzLjM3NzYgMjkuNjk4OCAxMi40NTc1QzI3LjcxNjIgMTEuNTM3NCAyNS41NTk1IDExLjA1MjUgMjMuMzczOSAxMS4wMzU0QzIxLjE4ODIgMTEuMDE4MyAxOS4wMjQzIDExLjQ2OTQgMTcuMDI3NSAxMi4zNTg0QzE1LjAzMDcgMTMuMjQ3NCAxMy4yNDc1IDE0LjU1MzYgMTEuNzk3NyAxNi4xODkzQzExLjU4OTUgMTYuNDI0MyAxMS40ODMyIDE2LjczMjQgMTEuNTAyMiAxNy4wNDU5QzExLjUyMTIgMTcuMzU5MyAxMS42NjM5IDE3LjY1MjMgMTEuODk4OSAxNy44NjA1QzEyLjEzNCAxOC4wNjg3IDEyLjQ0MjEgMTguMTc1IDEyLjc1NTUgMTguMTU2QzEzLjA2ODkgMTguMTM3IDEzLjM2MiAxNy45OTQzIDEzLjU3MDEgMTcuNzU5MkMxNC43OTYgMTYuMzc2MyAxNi4zMDM4IDE1LjI3MTggMTcuOTkyMSAxNC41MjAxWk0yMC45MjgzIDE4LjQyMkMyMi40MTExIDE3Ljk4NjQgMjMuOTg2MyAxNy45NzU0IDI1LjQ3NSAxOC4zOTA1QzI3LjIwNzcgMTguODczNSAyOC43MzU0IDE5LjkwOTEgMjkuODI1NyAyMS4zMzk5QzMwLjkxNiAyMi43NzA3IDMxLjUwOTIgMjQuNTE4MyAzMS41MTUzIDI2LjMxNzJDMzEuNTE4NSAyNi40NjYzIDMxLjQ5MjMgMjYuNjE0NyAzMS40MzgyIDI2Ljc1MzhDMzEuMzg0IDI2Ljg5MjggMzEuMzAzIDI3LjAxOTkgMzEuMTk5OCAyNy4xMjc2QzMxLjA5NjYgMjcuMjM1NCAzMC45NzMxIDI3LjMyMTggMzAuODM2NSAyNy4zODE4QzMwLjY5OTkgMjcuNDQxOSAzMC41NTI4IDI3LjQ3NDQgMzAuNDAzNiAyNy40Nzc2QzMwLjI1NDQgMjcuNDgwOCAzMC4xMDYxIDI3LjQ1NDYgMjkuOTY3IDI3LjQwMDVDMjkuODI3OSAyNy4zNDYzIDI5LjcwMDkgMjcuMjY1NCAyOS41OTMyIDI3LjE2MjFDMjkuNDg1NCAyNy4wNTg5IDI5LjM5OSAyNi45MzU1IDI5LjMzOSAyNi43OTg4QzI5LjI3ODkgMjYuNjYyMiAyOS4yNDY0IDI2LjUxNTEgMjkuMjQzMiAyNi4zNjU5QzI5LjI0NDQgMjUuNTc5NyAyOS4wOTA4IDI0LjgwMDkgMjguNzkxMSAyNC4wNzRDMjguNDkxNCAyMy4zNDcyIDI4LjA1MTQgMjIuNjg2NCAyNy40OTY0IDIyLjEyOTZDMjYuOTQxMyAyMS41NzI3IDI2LjI4MiAyMS4xMzA3IDI1LjU1NjEgMjAuODI4NkMyNC44MzAyIDIwLjUyNjYgMjQuMDUxOSAyMC4zNzA1IDIzLjI2NTYgMjAuMzY5MkMyMi40Nzk0IDIwLjM2NzkgMjEuNzAwNiAyMC41MjE1IDIwLjk3MzcgMjAuODIxM0MyMC4yNDY4IDIxLjEyMSAxOS41ODYxIDIxLjU2MDkgMTkuMDI5MyAyMi4xMTZDMTguNDcyNCAyMi42NzExIDE4LjAzMDMgMjMuMzMwNCAxNy43MjgzIDI0LjA1NjNDMTcuNDI2MiAyNC43ODIyIDE3LjI3MDEgMjUuNTYwNSAxNy4yNjg5IDI2LjM0NjdDMTcuMjc5NSAyNy42ODkzIDE3LjQ3NzUgMjkuMDIzOCAxNy44NTcyIDMwLjMxMTVDMTguMjcxMiAzMS43MDU2IDE4Ljk1NzEgMzMuMTcyMSAyMC4wNTEgMzQuMjY2QzIwLjI3MyAzNC40ODc3IDIwLjU3MzkgMzQuNjEyMiAyMC44ODc1IDM0LjYxMjFDMjEuMjAxMiAzNC42MTE5IDIxLjUwMiAzNC40ODcyIDIxLjcyMzcgMzQuMjY1M0MyMS45NDU1IDM0LjA0MzQgMjIuMDY5OSAzMy43NDI1IDIyLjA2OTggMzMuNDI4OEMyMi4wNjk3IDMzLjExNTEgMjEuOTQ0OSAzMi44MTQzIDIxLjcyMyAzMi41OTI2QzIxLjAwOSAzMS44Nzg1IDIwLjQ3NTMgMzAuODIxNiAyMC4xMjUgMjkuNjM4OUMxOS43NzYxIDI4LjQ2NTEgMTkuNjM0MiAyNy4yNjAzIDE5LjYzNDIgMjYuMzQ2N0MxOS42MzE2IDI1LjM4NjEgMjAuMDEwOCAyNC40NjM5IDIwLjY4ODIgMjMuNzgyOUMyMS4zNjU2IDIzLjEwMTggMjIuMjg1OCAyMi43MTc4IDIzLjI0NjQgMjIuNzE1M0MyNC4yMDcgMjIuNzEyNyAyNS4xMjkyIDIzLjA5MTkgMjUuODEwMyAyMy43NjkzQzI2LjQ5MTMgMjQuNDQ2NyAyNi44NzUzIDI1LjM2NjkgMjYuODc3OSAyNi4zMjc1VjI2LjM0NjdWMjYuMzczM0MyNi44Nzc5IDI2LjQ0MTMgMjYuODc0OSAyNi41MTA4IDI2Ljg3MDUgMjYuNTgwM0MyNi44NTg1IDI2Ljc2NjYgMjYuODkxIDI2Ljk1MyAyNi45NjUxIDI3LjEyNDNDMjcuMTQxNSAyNy44OTE5IDI3LjU3MTQgMjguNTc3NiAyOC4xODU0IDI5LjA3MDlDMjguNzk5NCAyOS41NjQyIDI5LjU2MTcgMjkuODM2MiAzMC4zNDkyIDI5Ljg0M0MzMS4xMzY4IDI5Ljg0OTggMzEuOTAzNyAyOS41OTExIDMyLjUyNjIgMjkuMTA4NkMzMy4xNDg2IDI4LjYyNiAzMy41OTA0IDI3Ljk0NzggMzMuNzgwMSAyNy4xODM0QzMzLjgzNTYgMjcuMDUxNyAzMy44NjY2IDI2LjkxMDkgMzMuODcxNyAyNi43NjhDMzMuOTM1NSAyNS4xODIxIDMzLjY0MzIgMjMuNjAyIDMzLjAxNjIgMjIuMTQzOUMzMi4zODkyIDIwLjY4NTcgMzEuNDQzNCAxOS4zODY2IDMwLjI0ODQgMTguMzQxOUMyOS4wNTM0IDE3LjI5NzMgMjcuNjM5NiAxNi41MzM2IDI2LjExMDcgMTYuMTA3MUMyNC41ODE5IDE1LjY4MDYgMjIuOTc2OSAxNS42MDIxIDIxLjQxMzcgMTUuODc3MkMxOS44NTA1IDE2LjE1MjQgMTguMzY4OCAxNi43NzQ0IDE3LjA3NzUgMTcuNjk3M0MxNS43ODYyIDE4LjYyMDMgMTQuNzE4MiAxOS44MjA5IDEzLjk1MTggMjEuMjEwOEMxMy4xODU0IDIyLjYwMDggMTIuNzQwMSAyNC4xNDQ4IDEyLjY0ODggMjUuNzI5NEMxMi41NTc0IDI3LjMxNCAxMi44MjIyIDI4Ljg5ODkgMTMuNDIzOCAzMC4zNjc3QzEzLjU0ODkgMzAuNjQ4NiAxMy43Nzg0IDMwLjg2OTYgMTQuMDYzNyAzMC45ODQxQzE0LjM0OTEgMzEuMDk4NiAxNC42Njc4IDMxLjA5NzUgMTQuOTUyMyAzMC45ODFDMTUuMjM2OCAzMC44NjQ1IDE1LjQ2NDcgMzAuNjQxOCAxNS41ODc4IDMwLjM2MDFDMTUuNzEwOSAzMC4wNzg0IDE1LjcxOTUgMjkuNzU5OCAxNS42MTE3IDI5LjQ3MTlDMTUuMDI2OSAyOC4wNDE0IDE0Ljg1NTEgMjYuNDc1NSAxNS4xMTYgMjQuOTUyMkMxNS4zNzY4IDIzLjQyOSAxNi4wNTk4IDIyLjAwOTUgMTcuMDg3MyAyMC44NTUxQzE4LjExNDggMTkuNzAwNyAxOS40NDU2IDE4Ljg1NzcgMjAuOTI4MyAxOC40MjJaTTI0LjY4NTkgMjYuMzQ2NEMyNC42ODU5IDI1LjY5NCAyNC4xNTcgMjUuMTY1MiAyMy41MDQ2IDI1LjE2NTJDMjIuODUyMiAyNS4xNjUyIDIyLjMyMzQgMjUuNjk0MSAyMi4zMjM0IDI2LjM0NjVDMjIuMzIzNCAyOC4wODcyIDIyLjY2NDMgMjkuMTQyNyAyMy4zNDkzIDMwLjIzOTJDMjMuNjk1IDMwLjc5MjUgMjQuNDIzNyAzMC45NjA4IDI0Ljk3NyAzMC42MTUyQzI1LjUzMDMgMzAuMjY5NSAyNS42OTg2IDI5LjU0MDggMjUuMzUzIDI4Ljk4NzVDMjQuOTE5IDI4LjI5MjggMjQuNjg1OSAyNy42NzY4IDI0LjY4NTkgMjYuMzQ2NFoiIGNsaXAtcnVsZT0iZXZlbm9kZCIgZmlsbC1ydWxlPSJldmVub2RkIi8+JiN4YTs8cGF0aCBmaWxsPSJ1cmwoI3BhaW50Ml9yYWRpYWxfMjYyMl8zNTU4KSIgZD0iTTM4LjA4NzkgMjguNzgwNEMzOC42MjQyIDI5LjI5ODMgMzguNjM5MSAzMC4xNTMgMzguMTIxMSAzMC42ODkzTDMxLjQyNSAzNy42MjI4QzMwLjkxNzggMzguMTQ4IDMwLjA4NSAzOC4xNzQ3IDI5LjU0NTEgMzcuNjgzMkwyNi4zNjMzIDM0Ljc4NjRDMjUuODEyIDM0LjI4NDQgMjUuNzcxOSAzMy40MzA2IDI2LjI3MzkgMzIuODc5M0MyNi43NzU4IDMyLjMyNzkgMjcuNjI5NyAzMi4yODc5IDI4LjE4MSAzMi43ODk5TDMwLjM5MzUgMzQuODA0MkwzNi4xNzkgMjguODEzNkMzNi42OTY5IDI4LjI3NzMgMzcuNTUxNiAyOC4yNjI0IDM4LjA4NzkgMjguNzgwNFoiIGNsaXAtcnVsZT0iZXZlbm9kZCIgZmlsbC1ydWxlPSJldmVub2RkIi8+JiN4YTs8L2c+JiN4YTs8L2c+JiN4YTs8ZGVmcz4mI3hhOzxsaW5lYXJHcmFkaWVudCBncmFkaWVudFVuaXRzPSJ1c2VyU3BhY2VPblVzZSIgeTI9IjQ0LjI3OTIiIHgyPSI0MS41NjQ1IiB5MT0iNi44NDc3NSIgeDE9IjQuODUyODciIGlkPSJwYWludDBfbGluZWFyXzI2MjJfMzU1OCI+JiN4YTs8c3RvcCBzdG9wLWNvbG9yPSJ3aGl0ZSIvPiYjeGE7PHN0b3Agc3RvcC1jb2xvcj0iI0VBRUNFRSIgb2Zmc2V0PSIxIi8+JiN4YTs8L2xpbmVhckdyYWRpZW50PiYjeGE7PHJhZGlhbEdyYWRpZW50IGdyYWRpZW50VHJhbnNmb3JtPSJ0cmFuc2xhdGUoMTUuMTY5NiAxNC40OTY3KSByb3RhdGUoNDUuMjEzMykgc2NhbGUoMjMuMjU2MyA0My45NDI0KSIgZ3JhZGllbnRVbml0cz0idXNlclNwYWNlT25Vc2UiIHI9IjEiIGN5PSIwIiBjeD0iMCIgaWQ9InBhaW50MV9yYWRpYWxfMjYyMl8zNTU4Ij4mI3hhOzxzdG9wIHN0b3AtY29sb3I9IiMwMTk1RkYiLz4mI3hhOzxzdG9wIHN0b3AtY29sb3I9IiMxMTQ3RTkiIG9mZnNldD0iMSIvPiYjeGE7PC9yYWRpYWxHcmFkaWVudD4mI3hhOzxyYWRpYWxHcmFkaWVudCBncmFkaWVudFRyYW5zZm9ybT0idHJhbnNsYXRlKDI3Ljg2OTggMjkuODUwNykgcm90YXRlKDM3LjQ0ODcpIHNjYWxlKDExLjAzNiA5LjcwOTMzKSIgZ3JhZGllbnRVbml0cz0idXNlclNwYWNlT25Vc2UiIHI9IjEiIGN5PSIwIiBjeD0iMCIgaWQ9InBhaW50Ml9yYWRpYWxfMjYyMl8zNTU4Ij4mI3hhOzxzdG9wIHN0b3AtY29sb3I9IiMxMzQ4RkYiLz4mI3hhOzxzdG9wIHN0b3AtY29sb3I9IiMwNjIzOEQiIG9mZnNldD0iMSIvPiYjeGE7PC9yYWRpYWxHcmFkaWVudD4mI3hhOzxjbGlwUGF0aCBpZD0iY2xpcDBfMjYyMl8zNTU4Ij4mI3hhOzxyZWN0IHRyYW5zZm9ybT0idHJhbnNsYXRlKDAuNSAwLjAzNDkxMjEpIiBmaWxsPSJ3aGl0ZSIgaGVpZ2h0PSI0OCIgd2lkdGg9IjQ4Ii8+JiN4YTs8L2NsaXBQYXRoPiYjeGE7PGNsaXBQYXRoIGlkPSJjbGlwMV8yNjIyXzM1NTgiPiYjeGE7PHJlY3QgdHJhbnNmb3JtPSJ0cmFuc2xhdGUoMTEuNSAxMS4wMzQ5KSIgZmlsbD0id2hpdGUiIGhlaWdodD0iMjciIHdpZHRoPSIyNyIvPiYjeGE7PC9jbGlwUGF0aD4mI3hhOzwvZGVmcz4mI3hhOzwvc3ZnPg==;points=[[0,0,0,0,0],[0,0.25,0,0,0],[0,0.5,0,0,0],[0,0.75,0,0,0],[0.25,0,0,0,0],[0.5,0,0,0,0],[0.75,0,0,0,0],[1,0,0,0,0],[1,0.25,0,0,0],[1,0.5,0,0,0],[1,0.75,0,0,0]];labelBackgroundColor=default;strokeColor=default;fontFamily=Helvetica;fontSize=12;fontColor=default;fillColor=default;" parent="1" vertex="1">
          <mxGeometry x="560" y="462.9994" width="49" height="49" as="geometry" />
        </mxCell>
        <mxCell id="r2Ocmoq0C5dt8iKspmja-156" style="rounded=0;orthogonalLoop=1;jettySize=auto;html=1;strokeColor=#475e75;strokeWidth=1.5;align=center;verticalAlign=middle;fontFamily=Arial;fontSize=12;fontColor=default;labelBackgroundColor=default;startArrow=none;startFill=0;startSize=4;endArrow=blockThin;endFill=1;endSize=4;entryX=0.5;entryY=0;entryDx=0;entryDy=0;entryPerimeter=0;exitX=0.854;exitY=0.992;exitDx=0;exitDy=0;edgeStyle=elbowEdgeStyle;elbow=vertical;exitPerimeter=0;" parent="1" source="r2Ocmoq0C5dt8iKspmja-117" target="r2Ocmoq0C5dt8iKspmja-173" edge="1">
          <mxGeometry relative="1" as="geometry">
            <Array as="points">
              <mxPoint x="571" y="429" />
            </Array>
            <mxPoint x="533.6199999999999" y="461.28740000000016" as="targetPoint" />
            <mxPoint x="756" y="320" as="sourcePoint" />
          </mxGeometry>
        </mxCell>
        <mxCell id="r2Ocmoq0C5dt8iKspmja-157" value="" style="ellipse;whiteSpace=wrap;html=1;aspect=fixed;strokeColor=none;fillColor=#188918;" parent="1" vertex="1">
          <mxGeometry x="1285.62" y="735.96" width="16" height="16" as="geometry" />
        </mxCell>
        <mxCell id="r2Ocmoq0C5dt8iKspmja-158" value="&lt;div style=&quot;font-size: 10px; line-height: 100%;&quot;&gt;&lt;span style=&quot;font-family: arial; font-size: 10px; background-color: initial;&quot;&gt;&lt;font style=&quot;font-size: 10px;&quot;&gt;Authentication&lt;/font&gt;&lt;/span&gt;&lt;/div&gt;" style="text;html=1;align=left;verticalAlign=middle;resizable=0;points=[];autosize=1;strokeColor=none;fillColor=none;fontSize=10;fontColor=#1D2D3E;fontFamily=Helvetica;labelPosition=center;verticalLabelPosition=middle;" parent="1" vertex="1">
          <mxGeometry x="1308.62" y="732.96" width="90" height="20" as="geometry" />
        </mxCell>
        <mxCell id="r2Ocmoq0C5dt8iKspmja-159" value="" style="endArrow=none;html=1;strokeColor=#475e75;bendable=1;rounded=0;endFill=0;endSize=4;startArrow=none;startFill=0;startSize=0;jumpStyle=none;jumpSize=0;targetPerimeterSpacing=12;dashed=1;strokeWidth=1.5;fontFamily=Helvetica;fontSize=12;fontColor=default;" parent="1" edge="1">
          <mxGeometry width="50" height="50" relative="1" as="geometry">
            <mxPoint x="1428.75" y="744" as="sourcePoint" />
            <mxPoint x="1448.75" y="744" as="targetPoint" />
          </mxGeometry>
        </mxCell>
        <mxCell id="r2Ocmoq0C5dt8iKspmja-160" value="&lt;div style=&quot;font-size: 10px; line-height: 100%;&quot;&gt;Private deployment&amp;nbsp;&lt;/div&gt;&lt;div style=&quot;font-size: 10px; line-height: 100%;&quot;&gt;&lt;span style=&quot;background-color: initial;&quot;&gt;on hyperscaler&lt;/span&gt;&lt;/div&gt;" style="text;html=1;align=left;verticalAlign=middle;resizable=0;points=[];autosize=1;strokeColor=none;fillColor=none;fontSize=10;fontColor=#1D2D3E;fontFamily=Helvetica;labelPosition=center;verticalLabelPosition=middle;" parent="1" vertex="1">
          <mxGeometry x="1308.75" y="782" width="110" height="30" as="geometry" />
        </mxCell>
        <mxCell id="r2Ocmoq0C5dt8iKspmja-161" value="&lt;div style=&quot;line-height: 100%;&quot;&gt;&lt;font style=&quot;font-size: 13px;&quot; face=&quot;arial&quot;&gt;*&lt;/font&gt;&lt;/div&gt;" style="text;html=1;align=left;verticalAlign=middle;resizable=0;points=[];autosize=1;strokeColor=none;fillColor=none;fontSize=10;fontColor=#1D2D3E;fontFamily=Helvetica;labelPosition=center;verticalLabelPosition=middle;" parent="1" vertex="1">
          <mxGeometry x="1290.75" y="785.5" width="30" height="20" as="geometry" />
        </mxCell>
        <mxCell id="r2Ocmoq0C5dt8iKspmja-162" value="&lt;p style=&quot;line-height: 114%;&quot;&gt;&lt;font color=&quot;#cc00dc&quot; size=&quot;1&quot;&gt;&lt;b style=&quot;&quot;&gt;Trust&lt;/b&gt;&lt;/font&gt;&lt;/p&gt;" style="rounded=1;whiteSpace=wrap;html=1;arcSize=50;strokeColor=#CC00DC;fillColor=#fff0fa;fontColor=#266f3a;strokeWidth=1.5;" parent="1" vertex="1">
          <mxGeometry x="563" y="389.5" width="41.99" height="16" as="geometry" />
        </mxCell>
        <mxCell id="r2Ocmoq0C5dt8iKspmja-163" value="" style="endArrow=blockThin;html=1;rounded=0;entryX=0.5;entryY=1;entryDx=0;entryDy=0;strokeColor=#cc00dc;strokeWidth=1.5;exitX=0.5;exitY=0;exitDx=0;exitDy=0;endFill=1;endSize=4;startSize=4;" parent="1" source="r2Ocmoq0C5dt8iKspmja-162" edge="1">
          <mxGeometry width="50" height="50" relative="1" as="geometry">
            <mxPoint x="719.48" y="382.95000000000005" as="sourcePoint" />
            <mxPoint x="583.48" y="347" as="targetPoint" />
          </mxGeometry>
        </mxCell>
        <mxCell id="r2Ocmoq0C5dt8iKspmja-164" value="" style="shape=image;verticalLabelPosition=bottom;labelBackgroundColor=default;verticalAlign=top;aspect=fixed;imageAspect=0;image=data:image/svg+xml,PHN2ZyB4bWxuczp4bGluaz0iaHR0cDovL3d3dy53My5vcmcvMTk5OS94bGluayIgeG1sbnM9Imh0dHA6Ly93d3cudzMub3JnLzIwMDAvc3ZnIiB2aWV3Qm94PSIwIDAgMTQ0Ljc0NyAzOS44MzIiIGlkPSJhIj48ZGVmcz48bGluZWFyR3JhZGllbnQgZ3JhZGllbnRVbml0cz0idXNlclNwYWNlT25Vc2UiIHkyPSIzOS44MzIiIHgyPSI0MC4yNTgiIHkxPSIwIiB4MT0iNDAuMjU4IiBpZD0iYiI+PHN0b3Agc3RvcC1jb2xvcj0iIzAwYjhmMSIgb2Zmc2V0PSIwIi8+PHN0b3Agc3RvcC1jb2xvcj0iIzAwYjVlZiIgb2Zmc2V0PSIuMDE2Ii8+PHN0b3Agc3RvcC1jb2xvcj0iIzBkOTBkOCIgb2Zmc2V0PSIuMzA4Ii8+PHN0b3Agc3RvcC1jb2xvcj0iIzE2NzVjOCIgb2Zmc2V0PSIuNTc4Ii8+PHN0b3Agc3RvcC1jb2xvcj0iIzFjNjRiZSIgb2Zmc2V0PSIuODE3Ii8+PHN0b3Agc3RvcC1jb2xvcj0iIzFlNWZiYiIgb2Zmc2V0PSIxIi8+PC9saW5lYXJHcmFkaWVudD48L2RlZnM+PHBvbHlsaW5lIGZpbGwtcnVsZT0iZXZlbm9kZCIgZmlsbD0idXJsKCNiKSIgcG9pbnRzPSIwIDM5LjgzMiA0MC42OTIgMzkuODMyIDgwLjUxNyAwIDAgMCAwIDM5LjgzMiIvPjxwYXRoIGZpbGwtcnVsZT0iZXZlbm9kZCIgZmlsbD0iI2ZmZiIgZD0ibTQ3Ljc4Miw3LjQ4OWwtNy45MjUtLjAwNXYxOC44NDVsLTYuOTI0LTE4Ljg0NWgtNi44NjVsLTUuOTEyLDE1Ljc1OWMtLjYzLTMuOTczLTQuNzQtNS4zNDUtNy45NzQtNi4zNzQtMi4xMzUtLjY4Ni00LjQwMS0xLjY5NC00LjM4LTIuODA5LjAxNy0uOTE1LDEuMjE1LTEuNzY1LDMuNTg5LTEuNjM3LDEuNTk1LjA4NCwzLjAwMS4yMTMsNS44LDEuNTYzbDIuNzUzLTQuNzk1Yy0yLjU1NS0xLjMtNi4wODYtMi4xMjEtOC45NzgtMi4xMjRoLS4wMTdjLTMuMzc0LDAtNi4xODUsMS4wOTMtNy45MjgsMi44OTQtMS4yMTQsMS4yNTgtMS44NjksMi44NTYtMS44OTYsNC42MjMtLjA0NCwyLjQzMi44NDgsNC4xNTcsMi43MjEsNS41MzMsMS41ODMsMS4xNiwzLjYwNiwxLjkxMiw1LjM5LDIuNDY1LDIuMjAxLjY4MSwzLjk5NiwxLjI3NCwzLjk3NSwyLjUzOS0uMDE2LjQ1OS0uMTkxLjg4OC0uNTIxLDEuMjM2LS41NDguNTY2LTEuMzkxLjc3OS0yLjU1NS43OTktMi4yNDQuMDQ4LTMuOTEtLjMwMy02LjU2Mi0xLjg3bC0yLjQ0OCw0Ljg2MWMyLjY0NCwxLjUwNiw1Ljc3NiwyLjM4OCw4Ljk3MiwyLjM4OGwuNDExLS4wMDZjMi43ODItLjA1LDUuMDI2LS44NDIsNi44Mi0yLjI4Ni4xMDMtLjA4MS4xOTYtLjE2Ni4yOTEtLjI1bC0uNzk1LDIuMTIzaDcuMmwxLjIwOC0zLjY3NGMxLjI2NS40MzMsMi43MDQuNjcxLDQuMjMyLjY3MSwxLjQ4NywwLDIuODg5LS4yMjksNC4xMzEtLjYzNWwxLjE2NCwzLjYzN2gxMS43NDJ2LTcuNjA3aDIuNTYxYzYuMTg4LDAsOS44NTEtMy4xNTQsOS44NTEtOC40MzYsMC01Ljg4NS0zLjU1Ny04LjU4NS0xMS4xMzItOC41ODVabS0xOC4zMTcsMTYuMTI0Yy0uOTI1LDAtMS43OTItLjE2LTIuNTM5LS40NDNsMi41MTItNy45MjZoLjA0OGwyLjQ2OCw3Ljk0OGMtLjc0Mi4yNjMtMS41ODkuNDIxLTIuNDg4LjQyMVptMTguNzgzLTQuNTUzaC0xLjc0NnYtNi4zODZoMS43NDZjMi4zMjgsMCw0LjE4NS43NzMsNC4xODUsMy4xNTEsMCwyLjQ2MS0xLjg1NywzLjIzNi00LjE4NSwzLjIzNiIvPjxwYXRoIGZpbGw9IiMwMDJhODYiIGQ9Im04MC4yMTcsNy40MDFoMTAuMDYzYzUuNTk1LDAsOC42NzQsMS45MTcsOC42NzQsNi4xNTgsMCwyLjkwMy0xLjUxMyw1LjAxNC00LjMxMSw1LjcsMy4yOS40NTgsNS4yNzgsMi41ODYsNS4yNzgsNS44OTQsMCw1LjAxNC00LjA2NCw3LjAzNy05LjE4NCw3LjAzN2gtMTAuNTIxVjcuNDAxWm0xMy45NjksNi44MjZjMC0yLjE2NC0xLjQ5Ni0yLjk3My00LjI0LTIuOTczaC01LjA0OXY2LjI5OGg0Ljg5MWMzLjIwMiwwLDQuMzk4LTEuMTYxLDQuMzk4LTMuMzI1Wm0xLjAyMSwxMC41MjFjMC0yLjM1Ny0xLjc3Ny0zLjQ2Ni00LjgzOS0zLjQ2NmgtNS40NzF2Ny4wNTVoNS41MDZjMi44MTUsMCw0LjgwNC0uNzc0LDQuODA0LTMuNTg5WiIvPjxwYXRoIGZpbGw9IiMwMDJhODYiIGQ9Im0xMDkuMDUxLDExLjVoLTcuNTgzdi00LjA5OWgxOS44NDZ2NC4wOTloLTcuNTY1djIwLjY5aC00LjY5N1YxMS41WiIvPjxwYXRoIGZpbGw9IiMwMDJhODYiIGQ9Im0xMjUuMTQ4LDcuNDAxaDEwLjUwNGM2LjE5MiwwLDkuMDk2LDMuMTg1LDkuMDk2LDcuODk5LDAsNC4zOTgtMi44MzMsOC4xNDYtOC44NSw4LjE0NmgtNi4wN3Y4Ljc0NGgtNC42OFY3LjQwMVptMTQuOTAyLDcuOTUyYzAtMi41NTEtMS42ODktMy45MjMtNC45NDQtMy45MjNoLTUuMjc4djguMDRoNS40MTljMy4yNzIsMCw0LjgwNC0xLjU4Myw0LjgwNC00LjExN1oiLz48L3N2Zz4=;strokeWidth=1.5;" parent="1" vertex="1">
          <mxGeometry x="179.00000000000023" y="86.99999999999977" width="67.25" height="18.55" as="geometry" />
        </mxCell>
        <mxCell id="r2Ocmoq0C5dt8iKspmja-165" value="&lt;div style=&quot;font-size: 10px; line-height: 100%;&quot;&gt;&lt;span style=&quot;font-family: arial; font-size: 10px; background-color: initial;&quot;&gt;&lt;font color=&quot;#1d2d3e&quot; style=&quot;font-size: 10px;&quot;&gt;SAP&lt;/font&gt;&lt;/span&gt;&lt;/div&gt;" style="text;html=1;align=left;verticalAlign=middle;resizable=0;points=[];autosize=1;strokeColor=none;fillColor=none;fontSize=10;fontColor=#556B82;fontFamily=Helvetica;labelPosition=center;verticalLabelPosition=middle;" parent="1" vertex="1">
          <mxGeometry x="1453.25" y="756.3599999999999" width="40" height="20" as="geometry" />
        </mxCell>
        <mxCell id="r2Ocmoq0C5dt8iKspmja-166" value="" style="endArrow=none;html=1;strokeColor=#0070F2;bendable=1;rounded=1;endFill=0;endSize=4;strokeWidth=1.5;startSize=4;" parent="1" edge="1">
          <mxGeometry width="50" height="50" relative="1" as="geometry">
            <mxPoint x="1428.75" y="766" as="sourcePoint" />
            <mxPoint x="1448.75" y="766" as="targetPoint" />
            <Array as="points" />
          </mxGeometry>
        </mxCell>
        <mxCell id="r2Ocmoq0C5dt8iKspmja-167" value="&lt;div style=&quot;font-size: 10px; line-height: 100%;&quot;&gt;&lt;font face=&quot;arial&quot; color=&quot;#1d2d3e&quot;&gt;3rd party&lt;/font&gt;&lt;/div&gt;" style="text;html=1;align=left;verticalAlign=middle;resizable=0;points=[];autosize=1;strokeColor=none;fillColor=none;fontSize=10;fontColor=#556B82;fontFamily=Helvetica;labelPosition=center;verticalLabelPosition=middle;" parent="1" vertex="1">
          <mxGeometry x="1453.25" y="780" width="60" height="20" as="geometry" />
        </mxCell>
        <mxCell id="r2Ocmoq0C5dt8iKspmja-168" value="" style="endArrow=none;html=1;strokeColor=#475E75;bendable=1;rounded=1;endFill=0;endSize=4;strokeWidth=1.5;startSize=4;" parent="1" edge="1">
          <mxGeometry width="50" height="50" relative="1" as="geometry">
            <mxPoint x="1428.75" y="791" as="sourcePoint" />
            <mxPoint x="1448.75" y="790.8499999999999" as="targetPoint" />
            <Array as="points" />
          </mxGeometry>
        </mxCell>
        <mxCell id="r2Ocmoq0C5dt8iKspmja-169" value="" style="endArrow=blockThin;html=1;rounded=0;entryX=0.5;entryY=0;entryDx=0;entryDy=0;strokeColor=#cc00dc;strokeWidth=1.5;exitX=0.5;exitY=1;exitDx=0;exitDy=0;endFill=1;endSize=4;startSize=4;entryPerimeter=0;" parent="1" edge="1">
          <mxGeometry width="50" height="50" relative="1" as="geometry">
            <mxPoint x="585" y="405.5" as="sourcePoint" />
            <mxPoint x="585" y="462.5" as="targetPoint" />
          </mxGeometry>
        </mxCell>
        <mxCell id="r2Ocmoq0C5dt8iKspmja-170" style="rounded=0;orthogonalLoop=1;jettySize=auto;html=1;fontSize=18;strokeColor=#188918;fontFamily=Helvetica;fontColor=default;targetPerimeterSpacing=15;endSize=4;startSize=4;endArrow=blockThin;endFill=1;strokeWidth=1.5;startArrow=none;startFill=0;edgeStyle=orthogonalEdgeStyle;exitX=0.478;exitY=1.042;exitDx=0;exitDy=0;exitPerimeter=0;entryX=0;entryY=0.5;entryDx=0;entryDy=0;" parent="1" source="r2Ocmoq0C5dt8iKspmja-209" target="r2Ocmoq0C5dt8iKspmja-195" edge="1">
          <mxGeometry relative="1" as="geometry">
            <mxPoint x="402" y="727" as="targetPoint" />
            <mxPoint x="83" y="387" as="sourcePoint" />
            <Array as="points">
              <mxPoint x="83" y="659" />
            </Array>
          </mxGeometry>
        </mxCell>
        <mxCell id="r2Ocmoq0C5dt8iKspmja-171" style="rounded=0;orthogonalLoop=1;jettySize=auto;html=1;endArrow=none;endFill=0;strokeColor=#188918;strokeWidth=1.5;entryX=1;entryY=0.5;entryDx=0;entryDy=0;exitX=0;exitY=0.5;exitDx=0;exitDy=0;" parent="1" source="r2Ocmoq0C5dt8iKspmja-192" edge="1">
          <mxGeometry relative="1" as="geometry">
            <mxPoint x="763.4999999999998" y="658.23" as="targetPoint" />
            <mxPoint x="887" y="658" as="sourcePoint" />
          </mxGeometry>
        </mxCell>
        <mxCell id="r2Ocmoq0C5dt8iKspmja-172" value="" style="group" parent="1" vertex="1" connectable="0">
          <mxGeometry x="662" y="463" width="110" height="95" as="geometry" />
        </mxCell>
        <mxCell id="r2Ocmoq0C5dt8iKspmja-173" value="" style="shape=image;verticalLabelPosition=bottom;verticalAlign=top;imageAspect=0;aspect=fixed;image=data:image/svg+xml,PHN2ZyB4bWxucz0iaHR0cDovL3d3dy53My5vcmcvMjAwMC9zdmciIGZpbGw9Im5vbmUiIHZpZXdCb3g9IjAgMCA0OSA0OSIgaGVpZ2h0PSI0OSIgd2lkdGg9IjQ5Ij4mI3hhOzxnIGNsaXAtcGF0aD0idXJsKCNjbGlwMF8yNjIyXzM5NjcpIj4mI3hhOzxjaXJjbGUgc3Ryb2tlLXdpZHRoPSIwLjg1NzE0MyIgc3Ryb2tlPSIjRDVEQUREIiBmaWxsPSJ1cmwoI3BhaW50MF9saW5lYXJfMjYyMl8zOTY3KSIgcj0iMjMuNTcxNCIgY3k9IjI0LjAzNDkiIGN4PSIyNC41Ii8+JiN4YTs8ZyBjbGlwLXBhdGg9InVybCgjY2xpcDFfMjYyMl8zOTY3KSI+JiN4YTs8cGF0aCBmaWxsPSJ1cmwoI3BhaW50MV9yYWRpYWxfMjYyMl8zOTY3KSIgZD0iTTIyLjI0MjkgMzcuNDA4NUMyMS45MTMzIDM3LjMwNDcgMjEuNjAwMyAzNy4xMzQyIDIxLjMwNCAzNi44OTcyQzIwLjgxMTggMzYuNTEwNCAyMC41MTMgMzYuMDAwNyAyMC40MDc1IDM1LjM2NzlMMjAuMDM4NCAzMy42Mjc2TDE3Ljc3MDggMzIuMjU2NUwxNi4xODg4IDMyLjk0MjFDMTUuODM3MiAzMy4wNDc1IDE1LjUwMzIgMzMuMTAwMyAxNS4xODY4IDMzLjEwMDNDMTQuNjk0NiAzMy4xMDAzIDE0LjIyIDMyLjk3NzIgMTMuNzYzIDMyLjczMTFDMTMuMzQxMSAzMi40ODUgMTMuMDA3MSAzMi4xMTU5IDEyLjc2MSAzMS42MjM3TDExLjc1OTEgMjkuNjcyNUMxMS41ODMzIDI5LjI1MDcgMTEuNDk1NCAyOC44NjQgMTEuNDk1NCAyOC41MTI0QzExLjQ5NTQgMjcuNTk4MyAxMS44NjQ2IDI2Ljg2IDEyLjYwMjggMjYuMjk3NUwxMy44MTU3IDI1LjQwMTFWMjIuNjU4OUwxMi41NTAxIDIxLjcwOTdDMTEuODQ3IDIxLjE4MjMgMTEuNDk1NCAyMC40NjE2IDExLjQ5NTQgMTkuNTQ3NUMxMS40OTU0IDE5LjE5NiAxMS41ODMzIDE4LjgwOTMgMTEuNzU5MSAxOC4zODc0TDEyLjc2MSAxNi40MzYyQzEzLjAwNzEgMTUuOTQ0IDEzLjM0MTEgMTUuNTc0OSAxMy43NjMgMTUuMzI4OEMxNC4yMiAxNS4wODI3IDE0LjY5NDYgMTQuOTU5NyAxNS4xODY4IDE0Ljk1OTdDMTUuNTczNSAxNC45NTk3IDE1LjkwNzUgMTUuMDMgMTYuMTg4OCAxNS4xNzA2TDE3Ljc3MDggMTUuODAzNEwyMC4wMzg0IDE0LjQzMjNMMjAuNDA3NSAxMi42OTIxQzIwLjU0ODEgMTIuMDU5MyAyMC44NjQ1IDExLjU0OTUgMjEuMzU2NyAxMS4xNjI4QzIxLjg0ODkgMTAuNzQwOSAyMi40MTE0IDEwLjUzIDIzLjA0NDIgMTAuNTNIMjQuODg5OUMyNS41MjI3IDEwLjUzIDI2LjA4NTIgMTAuNzQwOSAyNi41Nzc0IDExLjE2MjhDMjcuMDY5NiAxMS41NDk1IDI3LjM4NiAxMi4wNTkzIDI3LjUyNjYgMTIuNjkyMUwyNy44NDMgMTQuNDMyM0wzMC4xNjM0IDE1LjgwMzRMMzEuNzQ1NCAxNS4xNzA2QzMyLjAyNjYgMTUuMDMgMzIuMzYwNiAxNC45NTk3IDMyLjc0NzMgMTQuOTU5N0MzMy4yMzk1IDE0Ljk1OTcgMzMuNjk2NiAxNS4wODI3IDM0LjExODQgMTUuMzI4OEMzNC41NzU1IDE1LjU3NDkgMzQuOTI3IDE1Ljk0NCAzNS4xNzMxIDE2LjQzNjJMMzYuMTIyMyAxOC4zODc0QzM2LjMzMzMgMTguNzM5IDM2LjQzODcgMTkuMTQzMiAzNi40Mzg3IDE5LjYwMDNDMzYuNDM4NyAyMC40NzkyIDM2LjA2OTYgMjEuMTgyMyAzNS4zMzEzIDIxLjcwOTdMMzQuNjMyMyAyMi4yMzM5SDI5LjA1NzJDMjkuMDI0MiAyMi4xNDYxIDI4Ljk4ODYgMjIuMDU5MiAyOC45NTA1IDIxLjk3MzNDMjguNjY5MiAyMS4zMDU0IDI4LjI4MjUgMjAuNzI1MyAyNy43OTAzIDIwLjIzMzFDMjcuMjk4MSAxOS43NDA5IDI2LjcxODEgMTkuMzU0MiAyNi4wNTAxIDE5LjA3MjlDMjUuMzgyMSAxOC43OTE3IDI0LjY3OSAxOC42NTExIDIzLjk0MDcgMTguNjUxMUMyMy4yMDI0IDE4LjY1MTEgMjIuNDk5MyAxOC43OTE3IDIxLjgzMTMgMTkuMDcyOUMyMS4xOTg1IDE5LjM1NDIgMjAuNjM2IDE5Ljc0MDkgMjAuMTQzOCAyMC4yMzMxQzE5LjY1MTcgMjAuNzI1MyAxOS4yNjQ5IDIxLjMwNTQgMTguOTgzNyAyMS45NzMzQzE4LjcwMjQgMjIuNjA2MSAxOC41NjE4IDIzLjI5MTcgMTguNTYxOCAyNC4wM0MxOC41NjE4IDI0Ljc2ODIgMTguNzAyNCAyNS40NzE0IDE4Ljk4MzcgMjYuMTM5M0MxOS4yNjQ5IDI2Ljc3MjIgMTkuNjUxNyAyNy4zMzQ3IDIwLjE0MzggMjcuODI2OEMyMC42MzYgMjguMzE5IDIxLjE5ODUgMjguNzA1NyAyMS44MzEzIDI4Ljk4N0MyMS45NjcxIDI5LjA0NDIgMjIuMTA0MyAyOS4wOTU1IDIyLjI0MjkgMjkuMTQxTDIyLjI0MjkgMzcuNDA4NVoiIGNsaXAtcnVsZT0iZXZlbm9kZCIgZmlsbC1ydWxlPSJldmVub2RkIi8+JiN4YTs8cGF0aCBmaWxsPSJ1cmwoI3BhaW50Ml9yYWRpYWxfMjYyMl8zOTY3KSIgZD0iTTI2LjYzMDQgMjQuOTMzOEMyNS42OTg1IDI0LjkzMzggMjQuOTQyOSAyNS42ODk0IDI0Ljk0MjkgMjYuNjIxM1YzNS44MDcyQzI0Ljk0MjkgMzYuNzM5MiAyNS42OTg1IDM3LjQ5NDcgMjYuNjMwNCAzNy40OTQ3SDM2Ljc4MjVDMzcuNzE0NSAzNy40OTQ3IDM4LjQ3IDM2LjczOTIgMzguNDcgMzUuODA3MlYyNi42MjEzQzM4LjQ3IDI1LjY4OTQgMzcuNzE0NSAyNC45MzM4IDM2Ljc4MjUgMjQuOTMzOEgyNi42MzA0Wk0zMS43MDc2IDI3LjQ3MTRDMzEuNzA3NiAyNy44OTg2IDMxLjM2MTMgMjguMjQ1IDMwLjkzNDEgMjguMjQ1QzMwLjUwNjggMjguMjQ1IDMwLjE2MDUgMjcuODk4NiAzMC4xNjA1IDI3LjQ3MTRDMzAuMTYwNSAyNy4wNDQyIDMwLjUwNjggMjYuNjk3OSAzMC45MzQxIDI2LjY5NzlDMzEuMzYxMyAyNi42OTc5IDMxLjcwNzYgMjcuMDQ0MiAzMS43MDc2IDI3LjQ3MTRaTTM0LjAyNjYgMjcuNDcxNEMzNC4wMjY2IDI3Ljg5ODYgMzMuNjgwMiAyOC4yNDUgMzMuMjUzIDI4LjI0NUMzMi44MjU4IDI4LjI0NSAzMi40Nzk1IDI3Ljg5ODYgMzIuNDc5NSAyNy40NzE0QzMyLjQ3OTUgMjcuMDQ0MiAzMi44MjU4IDI2LjY5NzkgMzMuMjUzIDI2LjY5NzlDMzMuNjgwMiAyNi42OTc5IDM0LjAyNjYgMjcuMDQ0MiAzNC4wMjY2IDI3LjQ3MTRaTTM1LjU3MTkgMjguMjQ1QzM1Ljk5OTEgMjguMjQ1IDM2LjM0NTUgMjcuODk4NiAzNi4zNDU1IDI3LjQ3MTRDMzYuMzQ1NSAyNy4wNDQyIDM1Ljk5OTEgMjYuNjk3OSAzNS41NzE5IDI2LjY5NzlDMzUuMTQ0NyAyNi42OTc5IDM0Ljc5ODQgMjcuMDQ0MiAzNC43OTg0IDI3LjQ3MTRDMzQuNzk4NCAyNy44OTg2IDM1LjE0NDcgMjguMjQ1IDM1LjU3MTkgMjguMjQ1Wk0yNi44NzU0IDMxLjEwOTNDMjYuODc1NCAzMC44OTU5IDI3LjA0ODQgMzAuNzIyOCAyNy4yNjE5IDMwLjcyMjhIMzYuMTUxMUMzNi4zNjQ2IDMwLjcyMjggMzYuNTM3NiAzMC44OTU5IDM2LjUzNzYgMzEuMTA5M1YzNC45Nzc3QzM2LjUzNzYgMzUuMTkxMSAzNi4zNjQ2IDM1LjM2NDEgMzYuMTUxMSAzNS4zNjQxSDI3LjI2MTlDMjcuMDQ4NCAzNS4zNjQxIDI2Ljg3NTQgMzUuMTkxMSAyNi44NzU0IDM0Ljk3NzdWMzEuMTA5M1oiIGNsaXAtcnVsZT0iZXZlbm9kZCIgZmlsbC1ydWxlPSJldmVub2RkIi8+JiN4YTs8L2c+JiN4YTs8L2c+JiN4YTs8ZGVmcz4mI3hhOzxsaW5lYXJHcmFkaWVudCBncmFkaWVudFVuaXRzPSJ1c2VyU3BhY2VPblVzZSIgeTI9IjQ0LjI3OTIiIHgyPSI0MS41NjQ1IiB5MT0iNi44NDc3NSIgeDE9IjQuODUyODciIGlkPSJwYWludDBfbGluZWFyXzI2MjJfMzk2NyI+JiN4YTs8c3RvcCBzdG9wLWNvbG9yPSJ3aGl0ZSIvPiYjeGE7PHN0b3Agc3RvcC1jb2xvcj0iI0VBRUNFRSIgb2Zmc2V0PSIxIi8+JiN4YTs8L2xpbmVhckdyYWRpZW50PiYjeGE7PHJhZGlhbEdyYWRpZW50IGdyYWRpZW50VHJhbnNmb3JtPSJ0cmFuc2xhdGUoMTUuMzYzNSAxNC40NzY1KSByb3RhdGUoNDcuNDU1Nykgc2NhbGUoMjUuNTQwNCA0OC4wODI0KSIgZ3JhZGllbnRVbml0cz0idXNlclNwYWNlT25Vc2UiIHI9IjEiIGN5PSIwIiBjeD0iMCIgaWQ9InBhaW50MV9yYWRpYWxfMjYyMl8zOTY3Ij4mI3hhOzxzdG9wIHN0b3AtY29sb3I9IiMwMTk1RkYiLz4mI3hhOzxzdG9wIHN0b3AtY29sb3I9IiMxMTQ3RTkiIG9mZnNldD0iMSIvPiYjeGE7PC9yYWRpYWxHcmFkaWVudD4mI3hhOzxyYWRpYWxHcmFkaWVudCBncmFkaWVudFRyYW5zZm9ybT0idHJhbnNsYXRlKDI3LjA5NTcgMjYuODE5KSByb3RhdGUoNDIuODc4OSkgc2NhbGUoMTIuOTI3NCAxNS42NDYyKSIgZ3JhZGllbnRVbml0cz0idXNlclNwYWNlT25Vc2UiIHI9IjEiIGN5PSIwIiBjeD0iMCIgaWQ9InBhaW50Ml9yYWRpYWxfMjYyMl8zOTY3Ij4mI3hhOzxzdG9wIHN0b3AtY29sb3I9IiMwMEJCRkYiLz4mI3hhOzxzdG9wIHN0b3AtY29sb3I9IiMwMDhCRkYiIG9mZnNldD0iMSIvPiYjeGE7PC9yYWRpYWxHcmFkaWVudD4mI3hhOzxjbGlwUGF0aCBpZD0iY2xpcDBfMjYyMl8zOTY3Ij4mI3hhOzxyZWN0IHRyYW5zZm9ybT0idHJhbnNsYXRlKDAuNSAwLjAzNDkxMjEpIiBmaWxsPSJ3aGl0ZSIgaGVpZ2h0PSI0OCIgd2lkdGg9IjQ4Ii8+JiN4YTs8L2NsaXBQYXRoPiYjeGE7PGNsaXBQYXRoIGlkPSJjbGlwMV8yNjIyXzM5NjciPiYjeGE7PHJlY3QgdHJhbnNmb3JtPSJ0cmFuc2xhdGUoMTEuNSAxMC41MzQ5KSIgZmlsbD0id2hpdGUiIGhlaWdodD0iMjciIHdpZHRoPSIyNyIvPiYjeGE7PC9jbGlwUGF0aD4mI3hhOzwvZGVmcz4mI3hhOzwvc3ZnPg==;points=[[0,0,0,0,0],[0,0.25,0,0,0],[0,0.5,0,0,0],[0,0.75,0,0,0],[0,1,0,-45,66],[0.25,0,0,0,0],[0.5,0,0,0,0],[0.75,0,0,0,0],[1,0,0,0,0],[1,0.25,0,0,0],[1,0.5,0,0,0],[1,0.75,0,0,0],[1,1,0,167,59],[1,1,0,185,119],[1,1,0,227,108],[1,1,0,253,92]];" parent="r2Ocmoq0C5dt8iKspmja-172" vertex="1">
          <mxGeometry x="30.5" width="49" height="49" as="geometry" />
        </mxCell>
        <mxCell id="r2Ocmoq0C5dt8iKspmja-174" value="&lt;font color=&quot;#1d2d3e&quot; face=&quot;arial&quot; style=&quot;&quot;&gt;&lt;font style=&quot;font-size: 12px;&quot;&gt;SAP BTP Services&lt;/font&gt;&lt;br&gt;&lt;/font&gt;" style="text;html=1;align=center;verticalAlign=top;resizable=1;points=[[0,0.5,0,0,0],[0.21,1,0,0,0],[0.5,1,0,0,0],[0.85,1,0,0,0],[1,0.5,0,0,0]];autosize=0;strokeColor=none;fillColor=none;fontSize=12;fontColor=default;fontFamily=Helvetica;fixedWidth=1;imageWidth=24;whiteSpace=wrap;labelBackgroundColor=none;" parent="r2Ocmoq0C5dt8iKspmja-172" vertex="1">
          <mxGeometry y="49" width="110" height="46" as="geometry" />
        </mxCell>
        <mxCell id="r2Ocmoq0C5dt8iKspmja-175" value="SAP Private&#xa;Link service" style="shape=image;verticalLabelPosition=bottom;verticalAlign=top;imageAspect=0;aspect=fixed;image=data:image/svg+xml,PHN2ZyB4bWxucz0iaHR0cDovL3d3dy53My5vcmcvMjAwMC9zdmciIGZpbGw9Im5vbmUiIHZpZXdCb3g9IjAgMCA0OSA0OSIgaGVpZ2h0PSI0OSIgd2lkdGg9IjQ5Ij4mI3hhOzxnIGNsaXAtcGF0aD0idXJsKCNjbGlwMF8yNjIyXzM2NjcpIj4mI3hhOzxjaXJjbGUgc3Ryb2tlLXdpZHRoPSIwLjg1NzE0MyIgc3Ryb2tlPSIjRDVEQUREIiBmaWxsPSJ1cmwoI3BhaW50MF9saW5lYXJfMjYyMl8zNjY3KSIgcj0iMjMuNTcxNCIgY3k9IjI0LjAzNDkiIGN4PSIyNC40ODU0Ii8+JiN4YTs8ZyBjbGlwLXBhdGg9InVybCgjY2xpcDFfMjYyMl8zNjY3KSI+JiN4YTs8cGF0aCBmaWxsPSJ1cmwoI3BhaW50MV9yYWRpYWxfMjYyMl8zNjY3KSIgZD0iTTE5Ljk4ODcgMjMuNjA5NUMxOS4zMjA5IDIzLjMzMTIgMTguNzI2OCAyMi45MDE5IDE4LjIwNjYgMjIuMzI4NEMxNy45NTAxIDIyLjA2OTQgMTcuODA1MSAyMS43NTcyIDE3LjgwNTEgMjEuNDAxNUMxNy44MDUxIDIxLjAyNjIgMTcuOTQ1NSAyMC42OTY5IDE4LjIxMjYgMjAuNDI5N0MxOC40NzI5IDIwLjE2OTUgMTguNzg3MiAyMC4wMjIyIDE5LjE0NTYgMjAuMDIyMkMxOS41MjA5IDIwLjAyMjIgMTkuODUwMyAyMC4xNjI2IDIwLjExNzUgMjAuNDI5N0wyMC4xMjc2IDIwLjQzOTlDMjAuMzc5IDIwLjcxNDEgMjAuNjczOSAyMC45MTg1IDIxLjAxNTUgMjEuMDU1MUMyMS4zNjc2IDIxLjE5NiAyMS43MTQyIDIxLjI2NDQgMjIuMDU3MSAyMS4yNjQ0QzIyLjQyODYgMjEuMjY0NCAyMi43ODggMjEuMTk0OSAyMy4xMzc0IDIxLjA1NTFDMjMuNDgxOSAyMC45MTc0IDIzLjc5MzggMjAuNzEwMiAyNC4wNzQzIDIwLjQyOTdMMjcuMDI5NSAxNy40NzQ1QzI3LjU4NiAxNi45NDEyIDI3Ljg1OTIgMTYuMzAyOCAyNy44NTkyIDE1LjUzOTlDMjcuODU5MiAxNC43NzYgMjcuNTg1IDE0LjEwNjUgMjcuMDE5OCAxMy41MTc4QzI2LjQ4NjYgMTIuOTYxNCAyNS44NDc5IDEyLjY4OCAyNS4wODQ5IDEyLjY4OEMyNC4zMjIxIDEyLjY4OCAyMy42NTM0IDEyLjk2MTUgMjMuMDY1MyAxMy41MjUxTDIxLjU5MjYgMTQuOTk3OEMyMS4zMjU0IDE1LjI2NDkgMjAuOTk2MSAxNS40MDUzIDIwLjYyMDggMTUuNDA1M0MyMC4yNDU1IDE1LjQwNTMgMTkuOTE2MSAxNS4yNjQ5IDE5LjY0ODkgMTQuOTk3OEMxOS4zODE4IDE0LjczMDYgMTkuMjQxNCAxNC40MDEyIDE5LjI0MTQgMTQuMDI1OUMxOS4yNDE0IDEzLjY1MDYgMTkuMzgxOCAxMy4zMjEzIDE5LjY0ODkgMTMuMDU0MUwyMS4xMjQxIDExLjU3OUMyMS42NzA5IDExLjAzMjEgMjIuMjg5NiAxMC42MTg2IDIyLjk3OTEgMTAuMzQyM0MyMy42ODgzIDEwLjA0MjcgMjQuNDAzOSA5Ljg5MDQgMjUuMTIzOCA5Ljg5MDRDMjUuODQzMSA5Ljg5MDQgMjYuNTQ2NiAxMC4wNDI1IDI3LjIzMTggMTAuMzQzMkMyNy45MTk0IDEwLjYxOTEgMjguNTI0OCAxMS4wMzIxIDI5LjA0NTkgMTEuNTc4OUMyOS41OTI4IDEyLjEgMzAuMDA1NyAxMi43MDU0IDMwLjI4MTYgMTMuMzkzMUMzMC41ODIzIDE0LjA3ODMgMzAuNzM0NCAxNC43ODE4IDMwLjczNDQgMTUuNTAxMUMzMC43MzQ0IDE2LjIyMTEgMzAuNTgyIDE2LjkyNTMgMzAuMjgwNyAxNy42MTEzQzMwLjAwMzggMTguMjc0NSAyOS41OTA1IDE4Ljg3ODUgMjkuMDQ1OCAxOS40MjMxTDI2LjEzNDQgMjIuMzM0NUMyNS41NjI1IDIyLjkwNjQgMjQuOTMwMiAyMy4zMzQyIDI0LjIzNzUgMjMuNjExM0MyMy41NTEzIDIzLjg4NTcgMjIuODM2NiAyNC4wMjMxIDIyLjA5NTkgMjQuMDIzMUMyMS4zNzk0IDI0LjAyMzEgMjAuNjc3OCAyMy44ODUxIDE5Ljk5MzEgMjMuNjExM0wxOS45ODg3IDIzLjYwOTVaIi8+JiN4YTs8cGF0aCBmaWxsPSJ1cmwoI3BhaW50Ml9yYWRpYWxfMjYyMl8zNjY3KSIgZD0iTTEzLjk1MDIgMjYuNzIzNEMxNC40ODM0IDI3LjI3OTkgMTUuMTIxOSAyNy41NTMgMTUuODg0OCAyNy41NTNDMTYuNjQ4MiAyNy41NTMgMTcuMzAyMyAyNy4yNzk0IDE3Ljg2MzMgMjYuNzE4NEwxOS4zMzg0IDI1LjI0MzNDMTkuNjExNiAyNC45NzAxIDE5Ljk1NjUgMjQuODM1NyAyMC4zNDkgMjQuODM1N0MyMC41NTY3IDI0LjgzNTcgMjAuNzU0IDI0Ljg4MzkgMjAuOTI5NCAyNC45OTExQzIxLjA5MDYgMjUuMDg5NiAyMS4yMTc2IDI1LjIyODQgMjEuMzE1IDI1LjM5MzdDMjEuNTYwNyAyNS42NTQ2IDIxLjY4OTYgMjUuOTcyIDIxLjY4OTYgMjYuMzMxNUMyMS42ODk2IDI2LjcwNjggMjEuNTQ5MiAyNy4wMzYyIDIxLjI4MiAyNy4zMDM0TDIxLjI3ODkgMjcuMzA2NUwxOS44MDUzIDI4Ljc0MTNDMTkuMjU3NyAyOS4yODg0IDE4LjYyNjMgMjkuNzAwOSAxNy45MTMyIDI5Ljk3NjRDMTcuMjI4NiAzMC4yNzY1IDE2LjUyNTggMzAuNDI4MyAxNS44MDcyIDMwLjQyODNDMTUuMDg3MSAzMC40MjgzIDE0LjM4MjkgMzAuMjc1OSAxMy42OTcgMjkuOTc0NUMxMy4wMzM3IDI5LjY5NzcgMTIuNDI5OCAyOS4yODQzIDExLjg4NTEgMjguNzM5N0MxMS4zMzc1IDI4LjE5MiAxMC45MjM1IDI3LjU3MjMgMTAuNjQ3MiAyNi44ODE2QzEwLjM3MzQgMjYuMTk2OSAxMC4yMzU0IDI1LjQ5NTMgMTAuMjM1NCAyNC43Nzg4QzEwLjIzNTQgMjQuMDYyMyAxMC4zNzM0IDIzLjM2MDcgMTAuNjQ3MiAyMi42NzZDMTAuOTIzNSAyMS45ODUzIDExLjMzNzUgMjEuMzY1NiAxMS44ODUxIDIwLjgxNzlMMTEuODg2NyAyMC44MTY0TDE0LjgzNTQgMTcuOTA2NUMxNS4zODIxIDE3LjM2IDE2LjAwMTIgMTYuOTQ2IDE2LjY5MDQgMTYuNjY5OEMxNy4zOTk2IDE2LjM3MDIgMTguMTE1MiAxNi4yMTc5IDE4LjgzNTEgMTYuMjE3OUMxOS41NTQ0IDE2LjIxNzkgMjAuMjU3OSAxNi4zNyAyMC45NDMxIDE2LjY3MDdDMjEuNjMyMSAxNi45NDcyIDIyLjIzODUgMTcuMzYxMiAyMi43NjAyIDE3LjkwOTZDMjMuMDI1NCAxOC4xNzYyIDIzLjE2NDcgMTguNTA0NSAyMy4xNjQ3IDE4Ljg3ODNDMjMuMTY0NyAxOS4yNTM2IDIzLjAyNDMgMTkuNTgyOSAyMi43NTcxIDE5Ljg1MDFDMjIuNDg5OSAyMC4xMTczIDIyLjE2MDYgMjAuMjU3NyAyMS43ODUzIDIwLjI1NzdDMjEuNDEgMjAuMjU3NyAyMS4wODA3IDIwLjExNzMgMjAuODEzNSAxOS44NTAxTDIwLjgwMzcgMTkuODQwNEMyMC4yNjkyIDE5LjI1OTMgMTkuNjMyMiAxOC45NzY3IDE4Ljg3MzkgMTguOTc2N0MxOC4xMTUgMTguOTc2NyAxNy40NjIzIDE5LjI1OTcgMTYuOTAwMiAxOS44NDUzTDE2Ljg5NCAxOS44NTE4TDEzLjkzNTQgMjIuNzcxMkMxMy4zNTQzIDIzLjMwNTggMTMuMDcxOCAyMy45NDI4IDEzLjA3MTggMjQuNzAxMkMxMy4wNzE4IDI1LjQ2MDYgMTMuMzU1NSAyNi4xMjg2IDEzLjk0NTIgMjYuNzE4NEwxMy45NTAyIDI2LjcyMzRaIi8+JiN4YTs8cGF0aCBmaWxsPSJ1cmwoI3BhaW50M19yYWRpYWxfMjYyMl8zNjY3KSIgZD0iTTI5LjYwODQgMjUuNjU2M0MyOS42MDg0IDI0LjgyNTQgMzAuMjgyIDI0LjE1MTggMzEuMTEyOSAyNC4xNTE4QzMxLjk0MzggMjQuMTUxOCAzMi42MTc0IDI0LjgyNTQgMzIuNjE3NCAyNS42NTYzVjI3LjYxNUgyOS42MDg0VjI1LjY1NjNaTTM1LjMxNzQgMjcuNjUyNFYyNS42NTYzQzM1LjMxNzQgMjMuMzM0MyAzMy40MzUgMjEuNDUxOCAzMS4xMTI5IDIxLjQ1MThDMjguNzkwOCAyMS40NTE4IDI2LjkwODQgMjMuMzM0MyAyNi45MDg0IDI1LjY1NjNWMjcuNjUyNEMyNi40NTA0IDI3LjczMzggMjYuMDU1NyAyNy45NDc3IDI1LjcyNDQgMjguMjk0MUMyNS4yOTE0IDI4LjcyNzEgMjUuMDc0OCAyOS4yNTg2IDI1LjA3NDggMjkuODg4NVYzNC40MDZDMjUuMDc0OCAzNS4wNTU1IDI1LjI5MTQgMzUuNTk2OCAyNS43MjQ0IDM2LjAyOTlDMjYuMTU3NSAzNi40NjI5IDI2LjY5ODggMzYuNjc5NSAyNy4zNDgzIDM2LjY3OTVIMzQuODc3NUMzNS41MjcxIDM2LjY3OTUgMzYuMDY4NCAzNi40NjI5IDM2LjUwMTQgMzYuMDI5OUMzNi45MzQ1IDM1LjU5NjggMzcuMTUxIDM1LjA1NTUgMzcuMTUxIDM0LjQwNlYyOS44ODg1QzM3LjE1MSAyOS4yNTg2IDM2LjkzNDUgMjguNzI3MSAzNi41MDE0IDI4LjI5NDFDMzYuMTcwMSAyNy45NDc3IDM1Ljc3NTUgMjcuNzMzOCAzNS4zMTc0IDI3LjY1MjRaTTMxLjA5ODIgMzAuNjU2MUMzMS41MzEyIDMwLjY1NjEgMzEuODg1NSAzMC44MDM4IDMyLjE2MTEgMzEuMDk5QzMyLjQ1NjQgMzEuMzc0NiAzMi42MDQgMzEuNzI4OSAzMi42MDQgMzIuMTYyQzMyLjYwNCAzMi41NzUzIDMyLjQ1NjQgMzIuOTI5NyAzMi4xNjExIDMzLjIyNDlDMzEuODg1NSAzMy41MjAyIDMxLjUzMTIgMzMuNjY3OCAzMS4wOTgyIDMzLjY2NzhDMzAuNjg0OCAzMy42Njc4IDMwLjMzMDUgMzMuNTIwMiAzMC4wMzUyIDMzLjIyNDlDMjkuNzQgMzIuOTI5NyAyOS41OTIzIDMyLjU3NTMgMjkuNTkyMyAzMi4xNjJDMjkuNTkyMyAzMS43Mjg5IDI5Ljc0IDMxLjM3NDYgMzAuMDM1MiAzMS4wOTlDMzAuMzMwNSAzMC44MDM4IDMwLjY4NDggMzAuNjU2MSAzMS4wOTgyIDMwLjY1NjFaIiBjbGlwLXJ1bGU9ImV2ZW5vZGQiIGZpbGwtcnVsZT0iZXZlbm9kZCIvPiYjeGE7PC9nPiYjeGE7PC9nPiYjeGE7PGRlZnM+JiN4YTs8bGluZWFyR3JhZGllbnQgZ3JhZGllbnRVbml0cz0idXNlclNwYWNlT25Vc2UiIHkyPSI0NC4yNzkyIiB4Mj0iNDEuNTQ5OCIgeTE9IjYuODQ3NzUiIHgxPSI0LjgzODIyIiBpZD0icGFpbnQwX2xpbmVhcl8yNjIyXzM2NjciPiYjeGE7PHN0b3Agc3RvcC1jb2xvcj0id2hpdGUiLz4mI3hhOzxzdG9wIHN0b3AtY29sb3I9IiNFQUVDRUUiIG9mZnNldD0iMSIvPiYjeGE7PC9saW5lYXJHcmFkaWVudD4mI3hhOzxyYWRpYWxHcmFkaWVudCBncmFkaWVudFRyYW5zZm9ybT0idHJhbnNsYXRlKDEzLjQwOTYgMTIuOTgpIHJvdGF0ZSg0NS4wNTQyKSBzY2FsZSgyMC4yMTI4IDE4LjQxOTIpIiBncmFkaWVudFVuaXRzPSJ1c2VyU3BhY2VPblVzZSIgcj0iMSIgY3k9IjAiIGN4PSIwIiBpZD0icGFpbnQxX3JhZGlhbF8yNjIyXzM2NjciPiYjeGE7PHN0b3Agc3RvcC1jb2xvcj0iIzEzNDhGRiIvPiYjeGE7PHN0b3Agc3RvcC1jb2xvcj0iIzA2MjM4RCIgb2Zmc2V0PSIxIi8+JiN4YTs8L3JhZGlhbEdyYWRpZW50PiYjeGE7PHJhZGlhbEdyYWRpZW50IGdyYWRpZW50VHJhbnNmb3JtPSJ0cmFuc2xhdGUoMTMuNDA5NiAxMi45OCkgcm90YXRlKDQ1LjA1NDIpIHNjYWxlKDIwLjIxMjggMTguNDE5MikiIGdyYWRpZW50VW5pdHM9InVzZXJTcGFjZU9uVXNlIiByPSIxIiBjeT0iMCIgY3g9IjAiIGlkPSJwYWludDJfcmFkaWFsXzI2MjJfMzY2NyI+JiN4YTs8c3RvcCBzdG9wLWNvbG9yPSIjMTM0OEZGIi8+JiN4YTs8c3RvcCBzdG9wLWNvbG9yPSIjMDYyMzhEIiBvZmZzZXQ9IjEiLz4mI3hhOzwvcmFkaWFsR3JhZGllbnQ+JiN4YTs8cmFkaWFsR3JhZGllbnQgZ3JhZGllbnRUcmFuc2Zvcm09InRyYW5zbGF0ZSgyNi45NDc1IDIzLjY4NzcpIHJvdGF0ZSg1MS44OTMzKSBzY2FsZSgxMy41NDgxIDI0Ljg2MjEpIiBncmFkaWVudFVuaXRzPSJ1c2VyU3BhY2VPblVzZSIgcj0iMSIgY3k9IjAiIGN4PSIwIiBpZD0icGFpbnQzX3JhZGlhbF8yNjIyXzM2NjciPiYjeGE7PHN0b3Agc3RvcC1jb2xvcj0iIzAxOTVGRiIvPiYjeGE7PHN0b3Agc3RvcC1jb2xvcj0iIzExNDdFOSIgb2Zmc2V0PSIxIi8+JiN4YTs8L3JhZGlhbEdyYWRpZW50PiYjeGE7PGNsaXBQYXRoIGlkPSJjbGlwMF8yNjIyXzM2NjciPiYjeGE7PHJlY3QgdHJhbnNmb3JtPSJ0cmFuc2xhdGUoMC40ODUzNTIgMC4wMzQ5MTIxKSIgZmlsbD0id2hpdGUiIGhlaWdodD0iNDgiIHdpZHRoPSI0OCIvPiYjeGE7PC9jbGlwUGF0aD4mI3hhOzxjbGlwUGF0aCBpZD0iY2xpcDFfMjYyMl8zNjY3Ij4mI3hhOzxyZWN0IHRyYW5zZm9ybT0idHJhbnNsYXRlKDEwLjIzNTQgOS43ODQ5MSkiIGZpbGw9IndoaXRlIiBoZWlnaHQ9IjI3IiB3aWR0aD0iMjciLz4mI3hhOzwvY2xpcFBhdGg+JiN4YTs8L2RlZnM+JiN4YTs8L3N2Zz4=;points=[[0,0,0,0,0],[0,0.25,0,0,0],[0,0.5,0,0,0],[0,0.75,0,0,0],[0.25,0,0,0,0],[0.5,0,0,0,0],[0.75,0,0,0,0],[1,0,0,0,0],[1,0.25,0,0,0],[1,0.5,0,0,0],[1,0.75,0,0,0]];" parent="1" vertex="1">
          <mxGeometry x="1026.5" y="355.5" width="49" height="49" as="geometry" />
        </mxCell>
        <mxCell id="r2Ocmoq0C5dt8iKspmja-176" style="edgeStyle=orthogonalEdgeStyle;rounded=0;orthogonalLoop=1;jettySize=auto;html=1;exitX=1;exitY=0.5;exitDx=0;exitDy=0;strokeColor=#475e75;strokeWidth=1.5;align=center;verticalAlign=middle;fontFamily=Arial;fontSize=12;fontColor=default;labelBackgroundColor=default;startArrow=none;startFill=0;startSize=4;endArrow=blockThin;endFill=1;endSize=4;entryX=0;entryY=0.5;entryDx=0;entryDy=0;entryPerimeter=0;" parent="1" source="r2Ocmoq0C5dt8iKspmja-117" target="r2Ocmoq0C5dt8iKspmja-179" edge="1">
          <mxGeometry relative="1" as="geometry">
            <Array as="points">
              <mxPoint x="849" y="273" />
              <mxPoint x="849" y="380" />
            </Array>
            <mxPoint x="943" y="358" as="targetPoint" />
            <mxPoint x="756" y="283" as="sourcePoint" />
          </mxGeometry>
        </mxCell>
        <mxCell id="r2Ocmoq0C5dt8iKspmja-177" value="" style="group" parent="1" vertex="1" connectable="0">
          <mxGeometry x="863" y="355.5" width="110" height="98" as="geometry" />
        </mxCell>
        <mxCell id="r2Ocmoq0C5dt8iKspmja-178" value="&lt;font color=&quot;#1d2d3e&quot; face=&quot;arial&quot; style=&quot;&quot;&gt;&lt;font style=&quot;font-size: 12px;&quot;&gt;SAP Destination service&lt;/font&gt;&lt;br&gt;&lt;/font&gt;" style="text;html=1;align=center;verticalAlign=top;resizable=1;points=[[0,0.5,0,0,0],[0.21,1,0,0,0],[0.5,1,0,0,0],[0.85,1,0,0,0],[1,0.5,0,0,0]];autosize=0;strokeColor=none;fillColor=none;fontSize=12;fontColor=default;fontFamily=Helvetica;fixedWidth=1;imageWidth=24;whiteSpace=wrap;labelBackgroundColor=none;" parent="r2Ocmoq0C5dt8iKspmja-177" vertex="1">
          <mxGeometry y="52" width="110" height="46" as="geometry" />
        </mxCell>
        <mxCell id="r2Ocmoq0C5dt8iKspmja-179" value="" style="shape=image;verticalLabelPosition=bottom;verticalAlign=top;imageAspect=0;aspect=fixed;image=data:image/svg+xml,PHN2ZyB4bWxucz0iaHR0cDovL3d3dy53My5vcmcvMjAwMC9zdmciIGZpbGw9Im5vbmUiIHZpZXdCb3g9IjAgMCA0OCA0OSIgaGVpZ2h0PSI0OSIgd2lkdGg9IjQ4Ij4mI3hhOzxjaXJjbGUgc3Ryb2tlLXdpZHRoPSIwLjg1NzE0MyIgc3Ryb2tlPSIjRDVEQUREIiBmaWxsPSJ1cmwoI3BhaW50MF9saW5lYXJfMjYyMV8yOTIwMikiIHI9IjIzLjU3MTQiIGN5PSIyNC4wNDkxIiBjeD0iMjQiLz4mI3hhOzxnIGNsaXAtcGF0aD0idXJsKCNjbGlwMF8yNjIxXzI5MjAyKSI+JiN4YTs8cGF0aCBmaWxsPSJ1cmwoI3BhaW50MV9yYWRpYWxfMjYyMV8yOTIwMikiIGQ9Ik0zMC45MTE3IDkuNjAxODFIMjIuOTQyOUMyMi42NDQ2IDkuNjAxODEgMjIuMzU4NSA5LjcyMDMxIDIyLjE0NzYgOS45MzEyNEMyMS45MzY2IDEwLjE0MjIgMjEuODE4MSAxMC40MjgyIDIxLjgxODEgMTAuNzI2NVYxNC42NzVDMjEuODE4MSAxNS41OTc0IDIxLjQ4ODcgMTYuMzg4IDIwLjgyOTkgMTcuMDQ2OUMyMC4xNzEgMTcuNzA1OCAxOS4zODA0IDE4LjAzNTIgMTguNDU4IDE4LjAzNTJIMTQuNTA5NUMxNC4yMTEyIDE4LjAzNTIgMTMuOTI1MSAxOC4xNTM3IDEzLjcxNDIgMTguMzY0NkMxMy41MDMzIDE4LjU3NTUgMTMuMzg0OCAxOC44NjE2IDEzLjM4NDggMTkuMTU5OVYzMy44NDkxQzEzLjM4NDggMzUuMzQwMiAxNC41OTM2IDM2LjU0OTEgMTYuMDg0OCAzNi41NDkxSDIzLjEwMUMyMi41OTQ5IDM2LjA0NSAyMi4xMzM0IDM1LjQ5NjIgMjEuNzIyOCAzNC45MDkxQzIxLjQwMjQgMzQuNDUwOSAyMS41MTQxIDMzLjgxOTYgMjEuOTcyNCAzMy40OTkxQzIyLjQzMDYgMzMuMTc4NyAyMy4wNjE5IDMzLjI5MDQgMjMuMzgyMyAzMy43NDg3QzI0LjA1ODEgMzQuNzE1MiAyNC45MDAxIDM1LjU1NzEgMjUuODY2NiAzNi4yMzI5QzI1Ljk4OTcgMzYuMzE5IDI2LjA4NzggMzYuNDI3NSAyNi4xNTkyIDM2LjU0OTFIMzAuOTExN0MzMi4xNjg1IDM2LjU0OTEgMzMuMjI0NyAzNS42OTA0IDMzLjUyNTcgMzQuNTI3N0MzMy4xMzk0IDM0LjU5ODYgMzIuNzQwNiAzNC42MzM5IDMyLjMzMSAzNC42MzM5SDMwLjk0N0MzMC4xNjY5IDM0LjYzMzkgMjkuNTAwMSAzNC4zMDcyIDI5LjAwMTUgMzMuODA4NkMyOC41OTMzIDMzLjQwMDQgMjguMzMxNiAzMi44OTQzIDI4LjI0MTUgMzIuMzM1M0wyNy4xNTU5IDMyLjM0NzNDMjYuNDUxNSAzMi4zNDczIDI1Ljc0IDMyLjExMTcgMjUuMTgwMyAzMS41NTJDMjQuNjIwNyAzMC45OTI0IDI0LjM4NTIgMzAuMjgwOSAyNC4zODUyIDI5LjU3NjVDMjQuMzg1MiAyOS4wNDY0IDI0LjUxODYgMjguNTEyNCAyNC44MjMgMjguMDQyQzI0LjUxODYgMjcuNTcxNiAyNC4zODUyIDI3LjAzNzYgMjQuMzg1MiAyNi41MDc1QzI0LjM4NTIgMjUuODAzMSAyNC42MjA3IDI1LjA5MTYgMjUuMTgwMyAyNC41MzJDMjUuNzUzOSAyMy45NTg0IDI2LjQ3ODYgMjMuNzY2OSAyNy4xMjU4IDIzLjc2NjlMMjguMjQ0NiAyMy43NjY5QzI4LjMzMTUgMjMuMjI4IDI4LjU3MDMgMjIuNzA2NiAyOS4wMDE1IDIyLjI3NTRDMjkuNTMxNyAyMS43NDUyIDMwLjIyODcgMjEuNDUzIDMwLjk5NzkgMjEuNDc5M0wzMi4zMTIzIDIxLjQ1MDFIMzIuMzMxQzMyLjc3MDcgMjEuNDUwMSAzMy4xOTg1IDIxLjQ4OTIgMzMuNjExNyAyMS41Njg4VjE4LjE1NDNDMzMuNTI5NyAxOC4xNjAyIDMzLjQ0NTcgMTguMTU2MyAzMy4zNjExIDE4LjE0MTNDMzIuNzkxMSAxOC4wNDA2IDMyLjIwMzggMTcuOTg3OSAzMS42MDM1IDE3Ljk4NzlDMzEuMDAzMSAxNy45ODc5IDMwLjQxNTggMTguMDQwNiAyOS44NDU5IDE4LjE0MTNDMjkuMjk1MiAxOC4yMzg2IDI4Ljc2OTkgMTcuODcxMSAyOC42NzI2IDE3LjMyMDVDMjguNTc1MyAxNi43Njk4IDI4Ljk0MjggMTYuMjQ0NSAyOS40OTM0IDE2LjE0NzJDMzAuMTc5MiAxNi4wMjYgMzAuODg0NCAxNS45NjI5IDMxLjYwMzUgMTUuOTYyOUMzMi4yODcgMTUuOTYyOSAzMi45NTggMTYuMDE5OSAzMy42MTE3IDE2LjEyOTdWMTIuMzAxOEMzMy42MTE3IDEwLjgxMDYgMzIuNDAyOSA5LjYwMTgxIDMwLjkxMTcgOS42MDE4MVpNMjYuMTE2MSAxOC4zODA3QzI2LjQzNjYgMTguODM5IDI2LjMyNDkgMTkuNDcwMyAyNS44NjY2IDE5Ljc5MDdDMjQuOTAwMSAyMC40NjY1IDI0LjA1ODEgMjEuMzA4NSAyMy4zODIzIDIyLjI3NUMyMy4wNjE5IDIyLjczMzIgMjIuNDMwNiAyMi44NDQ5IDIxLjk3MjQgMjIuNTI0NUMyMS41MTQxIDIyLjIwNDEgMjEuNDAyNCAyMS41NzI4IDIxLjcyMjggMjEuMTE0NUMyMi41MzQ1IDE5Ljk1MzggMjMuNTQ1NCAxOC45NDI5IDI0LjcwNjIgMTguMTMxMkMyNS4xNjQ0IDE3LjgxMDcgMjUuNzk1NyAxNy45MjI1IDI2LjExNjEgMTguMzgwN1pNMjAuOTEyMSAyNS4wODFDMjEuNDYyOCAyNS4xNzgzIDIxLjgzMDMgMjUuNzAzNiAyMS43MzI5IDI2LjI1NDJDMjEuNjMyMiAyNi44MjQyIDIxLjU3OTUgMjcuNDExNCAyMS41Nzk1IDI4LjAxMThDMjEuNTc5NSAyOC42MTIyIDIxLjYzMjIgMjkuMTk5NSAyMS43MzI5IDI5Ljc2OTRDMjEuODMwMyAzMC4zMjAxIDIxLjQ2MjggMzAuODQ1NCAyMC45MTIxIDMwLjk0MjdDMjAuMzYxNSAzMS4wNCAxOS44MzYyIDMwLjY3MjUgMTkuNzM4OCAzMC4xMjE5QzE5LjYxNzYgMjkuNDM2MSAxOS41NTQ1IDI4LjczMDkgMTkuNTU0NSAyOC4wMTE4QzE5LjU1NDUgMjcuMjkyOCAxOS42MTc2IDI2LjU4NzYgMTkuNzM4OCAyNS45MDE4QzE5LjgzNjIgMjUuMzUxMSAyMC4zNjE0IDI0Ljk4MzYgMjAuOTEyMSAyNS4wODFaIiBjbGlwLXJ1bGU9ImV2ZW5vZGQiIGZpbGwtcnVsZT0iZXZlbm9kZCIvPiYjeGE7PHBhdGggZmlsbD0idXJsKCNwYWludDJfcmFkaWFsXzI2MjFfMjkyMDIpIiBkPSJNMjYuMzczNiAyNS43MjUyQzI2LjE3MyAyNS45MjU4IDI2LjA3MjggMjYuMTg2NiAyNi4wNzI4IDI2LjUwNzVDMjYuMDcyOCAyNi44Mjg0IDI2LjE3MyAyNy4wODkyIDI2LjM3MzYgMjcuMjg5OEMyNi41NzQyIDI3LjQ5MDQgMjYuODM1IDI3LjU5MDcgMjcuMTU1OSAyNy41OTA3TDI5Ljg5MzkgMjcuNTYwNkwyOS44OTM5IDI4LjUyMzRMMjcuMTU1OSAyOC40OTMzQzI2LjgzNSAyOC40OTMzIDI2LjU3NDIgMjguNTkzNiAyNi4zNzM2IDI4Ljc5NDJDMjYuMTczIDI4Ljk5NDggMjYuMDcyOCAyOS4yNTU2IDI2LjA3MjggMjkuNTc2NUMyNi4wNzI4IDI5Ljg5NzQgMjYuMTczIDMwLjE1ODIgMjYuMzczNiAzMC4zNTg4QzI2LjU3NDIgMzAuNTU5NCAyNi44MzUgMzAuNjU5NyAyNy4xNTU5IDMwLjY1OTdMMjkuODkzOSAzMC42Mjk2VjMxLjg5MzNDMjkuODkzOSAzMi4xNzQxIDI5Ljk5NDIgMzIuNDE0OCAzMC4xOTQ4IDMyLjYxNTRDMzAuNDE1NSAzMi44MzYgMzAuNjY2MiAzMi45NDY0IDMwLjk0NyAzMi45NDY0SDMyLjMzMTFDMzMuNDk0NSAzMi45NDY0IDM0LjQ4NzQgMzIuNTc1MyAzNS4zMDk4IDMxLjgzMzFDMzYuMTMyMiAzMS4wOTA5IDM2LjYwMzYgMzAuMTU4MiAzNi43MjQgMjkuMDM0OUwzOS40Mjc4IDI5LjAzNDlDMzkuNzQ4NyAyOS4wMzQ5IDQwLjAwOTUgMjguOTM0NiA0MC4yMTAxIDI4LjczNEM0MC4zOTA2IDI4LjU1MzUgNDAuNDgwOSAyOC4zMDI3IDQwLjQ4MDkgMjcuOTgxOEM0MC40ODA5IDI3LjY2MDkgNDAuMzgwNiAyNy40MDAxIDQwLjE4IDI3LjE5OTVDMzkuOTc5NCAyNi45OTg5IDM5LjcxODcgMjYuODk4NiAzOS4zOTc3IDI2Ljg5ODZMMzYuNjkzOSAyNi44OTg3QzM2LjUzMzQgMjUuODE1NSAzNi4wNTIgMjQuOTEyOCAzNS4yNDk2IDI0LjE5MDdDMzQuNDY3MyAyMy40ODg3IDMzLjQ5NDUgMjMuMTM3NiAzMi4zMzExIDIzLjEzNzZMMzAuOTc3MSAyMy4xNjc3QzMwLjY3NjIgMjMuMTQ3NyAzMC40MTU1IDIzLjI0OCAzMC4xOTQ4IDIzLjQ2ODZDMjkuOTk0MiAyMy42NjkyIDI5Ljg5MzkgMjMuOTMgMjkuODkzOSAyNC4yNTA5TDI5Ljg5MzkgMjUuNDU0NEwyNy4xMjU4IDI1LjQ1NDRDMjYuODA0OSAyNS40NTQ0IDI2LjU1NDIgMjUuNTQ0NyAyNi4zNzM2IDI1LjcyNTJaIi8+JiN4YTs8cGF0aCBmaWxsPSJ1cmwoI3BhaW50M19yYWRpYWxfMjYyMV8yOTIwMikiIGQ9Ik0yMC41NjcgMTQuNTA1NFYxMS41MTE4TDE1LjI5NDcgMTYuNzg0MUgxOC4yODgzQzE4LjkxMzggMTYuNzg0MSAxOS40NSAxNi41NjA3IDE5Ljg5NjggMTYuMTEzOUMyMC4zNDM2IDE1LjY2NzEgMjAuNTY3IDE1LjEzMDkgMjAuNTY3IDE0LjUwNTRaIi8+JiN4YTs8L2c+JiN4YTs8ZGVmcz4mI3hhOzxsaW5lYXJHcmFkaWVudCBncmFkaWVudFVuaXRzPSJ1c2VyU3BhY2VPblVzZSIgeTI9IjQ0LjI5MzQiIHgyPSI0MS4wNjQ1IiB5MT0iNi44NjE5MSIgeDE9IjQuMzUyODciIGlkPSJwYWludDBfbGluZWFyXzI2MjFfMjkyMDIiPiYjeGE7PHN0b3Agc3RvcC1jb2xvcj0id2hpdGUiLz4mI3hhOzxzdG9wIHN0b3AtY29sb3I9IiNFQUVDRUUiIG9mZnNldD0iMSIvPiYjeGE7PC9saW5lYXJHcmFkaWVudD4mI3hhOzxyYWRpYWxHcmFkaWVudCBncmFkaWVudFRyYW5zZm9ybT0idHJhbnNsYXRlKDE2LjUyMTQgMTMuNTU4NSkgcm90YXRlKDUzLjQxMjYpIHNjYWxlKDIzLjQ5NDggNDIuNDkzOSkiIGdyYWRpZW50VW5pdHM9InVzZXJTcGFjZU9uVXNlIiByPSIxIiBjeT0iMCIgY3g9IjAiIGlkPSJwYWludDFfcmFkaWFsXzI2MjFfMjkyMDIiPiYjeGE7PHN0b3Agc3RvcC1jb2xvcj0iIzAxOTVGRiIvPiYjeGE7PHN0b3Agc3RvcC1jb2xvcj0iIzExNDdFOSIgb2Zmc2V0PSIxIi8+JiN4YTs8L3JhZGlhbEdyYWRpZW50PiYjeGE7PHJhZGlhbEdyYWRpZW50IGdyYWRpZW50VHJhbnNmb3JtPSJ0cmFuc2xhdGUoMjguMzAzOCAyNC42MTMyKSByb3RhdGUoMzQuMjQ2MSkgc2NhbGUoMTIuMTQxMyAxMC4yOTM1KSIgZ3JhZGllbnRVbml0cz0idXNlclNwYWNlT25Vc2UiIHI9IjEiIGN5PSIwIiBjeD0iMCIgaWQ9InBhaW50Ml9yYWRpYWxfMjYyMV8yOTIwMiI+JiN4YTs8c3RvcCBzdG9wLWNvbG9yPSIjMTM0OEZGIi8+JiN4YTs8c3RvcCBzdG9wLWNvbG9yPSIjMDYyMzhEIiBvZmZzZXQ9IjEiLz4mI3hhOzwvcmFkaWFsR3JhZGllbnQ+JiN4YTs8cmFkaWFsR3JhZGllbnQgZ3JhZGllbnRUcmFuc2Zvcm09InRyYW5zbGF0ZSgxNi4xMTExIDEyLjMwNDkpIHJvdGF0ZSg0NSkgc2NhbGUoNS4xOTM3NyA0LjczMjg5KSIgZ3JhZGllbnRVbml0cz0idXNlclNwYWNlT25Vc2UiIHI9IjEiIGN5PSIwIiBjeD0iMCIgaWQ9InBhaW50M19yYWRpYWxfMjYyMV8yOTIwMiI+JiN4YTs8c3RvcCBzdG9wLWNvbG9yPSIjMTM0OEZGIi8+JiN4YTs8c3RvcCBzdG9wLWNvbG9yPSIjMDYyMzhEIiBvZmZzZXQ9IjEiLz4mI3hhOzwvcmFkaWFsR3JhZGllbnQ+JiN4YTs8Y2xpcFBhdGggaWQ9ImNsaXAwXzI2MjFfMjkyMDIiPiYjeGE7PHJlY3QgdHJhbnNmb3JtPSJ0cmFuc2xhdGUoMTMuNSA5LjU0OTA3KSIgZmlsbD0id2hpdGUiIGhlaWdodD0iMjciIHdpZHRoPSIyNyIvPiYjeGE7PC9jbGlwUGF0aD4mI3hhOzwvZGVmcz4mI3hhOzwvc3ZnPg==;points=[[0,0,0,0,0],[0,0.25,0,0,0],[0,0.5,0,0,0],[0,0.75,0,0,0],[0.25,0,0,0,0],[0.5,0,0,0,0],[0.75,0,0,0,0],[1,0,0,0,0],[1,0.25,0,0,0],[1,0.5,0,0,0],[1,0.75,0,0,0]];" parent="r2Ocmoq0C5dt8iKspmja-177" vertex="1">
          <mxGeometry x="31" width="47.51" height="48.5" as="geometry" />
        </mxCell>
        <mxCell id="r2Ocmoq0C5dt8iKspmja-180" value="SAP Private&#xa;Link service" style="shape=image;verticalLabelPosition=bottom;verticalAlign=top;imageAspect=0;aspect=fixed;image=data:image/svg+xml,PHN2ZyB4bWxucz0iaHR0cDovL3d3dy53My5vcmcvMjAwMC9zdmciIGZpbGw9Im5vbmUiIHZpZXdCb3g9IjAgMCA0OSA0OSIgaGVpZ2h0PSI0OSIgd2lkdGg9IjQ5Ij4mI3hhOzxnIGNsaXAtcGF0aD0idXJsKCNjbGlwMF8yNjIyXzM2NjcpIj4mI3hhOzxjaXJjbGUgc3Ryb2tlLXdpZHRoPSIwLjg1NzE0MyIgc3Ryb2tlPSIjRDVEQUREIiBmaWxsPSJ1cmwoI3BhaW50MF9saW5lYXJfMjYyMl8zNjY3KSIgcj0iMjMuNTcxNCIgY3k9IjI0LjAzNDkiIGN4PSIyNC40ODU0Ii8+JiN4YTs8ZyBjbGlwLXBhdGg9InVybCgjY2xpcDFfMjYyMl8zNjY3KSI+JiN4YTs8cGF0aCBmaWxsPSJ1cmwoI3BhaW50MV9yYWRpYWxfMjYyMl8zNjY3KSIgZD0iTTE5Ljk4ODcgMjMuNjA5NUMxOS4zMjA5IDIzLjMzMTIgMTguNzI2OCAyMi45MDE5IDE4LjIwNjYgMjIuMzI4NEMxNy45NTAxIDIyLjA2OTQgMTcuODA1MSAyMS43NTcyIDE3LjgwNTEgMjEuNDAxNUMxNy44MDUxIDIxLjAyNjIgMTcuOTQ1NSAyMC42OTY5IDE4LjIxMjYgMjAuNDI5N0MxOC40NzI5IDIwLjE2OTUgMTguNzg3MiAyMC4wMjIyIDE5LjE0NTYgMjAuMDIyMkMxOS41MjA5IDIwLjAyMjIgMTkuODUwMyAyMC4xNjI2IDIwLjExNzUgMjAuNDI5N0wyMC4xMjc2IDIwLjQzOTlDMjAuMzc5IDIwLjcxNDEgMjAuNjczOSAyMC45MTg1IDIxLjAxNTUgMjEuMDU1MUMyMS4zNjc2IDIxLjE5NiAyMS43MTQyIDIxLjI2NDQgMjIuMDU3MSAyMS4yNjQ0QzIyLjQyODYgMjEuMjY0NCAyMi43ODggMjEuMTk0OSAyMy4xMzc0IDIxLjA1NTFDMjMuNDgxOSAyMC45MTc0IDIzLjc5MzggMjAuNzEwMiAyNC4wNzQzIDIwLjQyOTdMMjcuMDI5NSAxNy40NzQ1QzI3LjU4NiAxNi45NDEyIDI3Ljg1OTIgMTYuMzAyOCAyNy44NTkyIDE1LjUzOTlDMjcuODU5MiAxNC43NzYgMjcuNTg1IDE0LjEwNjUgMjcuMDE5OCAxMy41MTc4QzI2LjQ4NjYgMTIuOTYxNCAyNS44NDc5IDEyLjY4OCAyNS4wODQ5IDEyLjY4OEMyNC4zMjIxIDEyLjY4OCAyMy42NTM0IDEyLjk2MTUgMjMuMDY1MyAxMy41MjUxTDIxLjU5MjYgMTQuOTk3OEMyMS4zMjU0IDE1LjI2NDkgMjAuOTk2MSAxNS40MDUzIDIwLjYyMDggMTUuNDA1M0MyMC4yNDU1IDE1LjQwNTMgMTkuOTE2MSAxNS4yNjQ5IDE5LjY0ODkgMTQuOTk3OEMxOS4zODE4IDE0LjczMDYgMTkuMjQxNCAxNC40MDEyIDE5LjI0MTQgMTQuMDI1OUMxOS4yNDE0IDEzLjY1MDYgMTkuMzgxOCAxMy4zMjEzIDE5LjY0ODkgMTMuMDU0MUwyMS4xMjQxIDExLjU3OUMyMS42NzA5IDExLjAzMjEgMjIuMjg5NiAxMC42MTg2IDIyLjk3OTEgMTAuMzQyM0MyMy42ODgzIDEwLjA0MjcgMjQuNDAzOSA5Ljg5MDQgMjUuMTIzOCA5Ljg5MDRDMjUuODQzMSA5Ljg5MDQgMjYuNTQ2NiAxMC4wNDI1IDI3LjIzMTggMTAuMzQzMkMyNy45MTk0IDEwLjYxOTEgMjguNTI0OCAxMS4wMzIxIDI5LjA0NTkgMTEuNTc4OUMyOS41OTI4IDEyLjEgMzAuMDA1NyAxMi43MDU0IDMwLjI4MTYgMTMuMzkzMUMzMC41ODIzIDE0LjA3ODMgMzAuNzM0NCAxNC43ODE4IDMwLjczNDQgMTUuNTAxMUMzMC43MzQ0IDE2LjIyMTEgMzAuNTgyIDE2LjkyNTMgMzAuMjgwNyAxNy42MTEzQzMwLjAwMzggMTguMjc0NSAyOS41OTA1IDE4Ljg3ODUgMjkuMDQ1OCAxOS40MjMxTDI2LjEzNDQgMjIuMzM0NUMyNS41NjI1IDIyLjkwNjQgMjQuOTMwMiAyMy4zMzQyIDI0LjIzNzUgMjMuNjExM0MyMy41NTEzIDIzLjg4NTcgMjIuODM2NiAyNC4wMjMxIDIyLjA5NTkgMjQuMDIzMUMyMS4zNzk0IDI0LjAyMzEgMjAuNjc3OCAyMy44ODUxIDE5Ljk5MzEgMjMuNjExM0wxOS45ODg3IDIzLjYwOTVaIi8+JiN4YTs8cGF0aCBmaWxsPSJ1cmwoI3BhaW50Ml9yYWRpYWxfMjYyMl8zNjY3KSIgZD0iTTEzLjk1MDIgMjYuNzIzNEMxNC40ODM0IDI3LjI3OTkgMTUuMTIxOSAyNy41NTMgMTUuODg0OCAyNy41NTNDMTYuNjQ4MiAyNy41NTMgMTcuMzAyMyAyNy4yNzk0IDE3Ljg2MzMgMjYuNzE4NEwxOS4zMzg0IDI1LjI0MzNDMTkuNjExNiAyNC45NzAxIDE5Ljk1NjUgMjQuODM1NyAyMC4zNDkgMjQuODM1N0MyMC41NTY3IDI0LjgzNTcgMjAuNzU0IDI0Ljg4MzkgMjAuOTI5NCAyNC45OTExQzIxLjA5MDYgMjUuMDg5NiAyMS4yMTc2IDI1LjIyODQgMjEuMzE1IDI1LjM5MzdDMjEuNTYwNyAyNS42NTQ2IDIxLjY4OTYgMjUuOTcyIDIxLjY4OTYgMjYuMzMxNUMyMS42ODk2IDI2LjcwNjggMjEuNTQ5MiAyNy4wMzYyIDIxLjI4MiAyNy4zMDM0TDIxLjI3ODkgMjcuMzA2NUwxOS44MDUzIDI4Ljc0MTNDMTkuMjU3NyAyOS4yODg0IDE4LjYyNjMgMjkuNzAwOSAxNy45MTMyIDI5Ljk3NjRDMTcuMjI4NiAzMC4yNzY1IDE2LjUyNTggMzAuNDI4MyAxNS44MDcyIDMwLjQyODNDMTUuMDg3MSAzMC40MjgzIDE0LjM4MjkgMzAuMjc1OSAxMy42OTcgMjkuOTc0NUMxMy4wMzM3IDI5LjY5NzcgMTIuNDI5OCAyOS4yODQzIDExLjg4NTEgMjguNzM5N0MxMS4zMzc1IDI4LjE5MiAxMC45MjM1IDI3LjU3MjMgMTAuNjQ3MiAyNi44ODE2QzEwLjM3MzQgMjYuMTk2OSAxMC4yMzU0IDI1LjQ5NTMgMTAuMjM1NCAyNC43Nzg4QzEwLjIzNTQgMjQuMDYyMyAxMC4zNzM0IDIzLjM2MDcgMTAuNjQ3MiAyMi42NzZDMTAuOTIzNSAyMS45ODUzIDExLjMzNzUgMjEuMzY1NiAxMS44ODUxIDIwLjgxNzlMMTEuODg2NyAyMC44MTY0TDE0LjgzNTQgMTcuOTA2NUMxNS4zODIxIDE3LjM2IDE2LjAwMTIgMTYuOTQ2IDE2LjY5MDQgMTYuNjY5OEMxNy4zOTk2IDE2LjM3MDIgMTguMTE1MiAxNi4yMTc5IDE4LjgzNTEgMTYuMjE3OUMxOS41NTQ0IDE2LjIxNzkgMjAuMjU3OSAxNi4zNyAyMC45NDMxIDE2LjY3MDdDMjEuNjMyMSAxNi45NDcyIDIyLjIzODUgMTcuMzYxMiAyMi43NjAyIDE3LjkwOTZDMjMuMDI1NCAxOC4xNzYyIDIzLjE2NDcgMTguNTA0NSAyMy4xNjQ3IDE4Ljg3ODNDMjMuMTY0NyAxOS4yNTM2IDIzLjAyNDMgMTkuNTgyOSAyMi43NTcxIDE5Ljg1MDFDMjIuNDg5OSAyMC4xMTczIDIyLjE2MDYgMjAuMjU3NyAyMS43ODUzIDIwLjI1NzdDMjEuNDEgMjAuMjU3NyAyMS4wODA3IDIwLjExNzMgMjAuODEzNSAxOS44NTAxTDIwLjgwMzcgMTkuODQwNEMyMC4yNjkyIDE5LjI1OTMgMTkuNjMyMiAxOC45NzY3IDE4Ljg3MzkgMTguOTc2N0MxOC4xMTUgMTguOTc2NyAxNy40NjIzIDE5LjI1OTcgMTYuOTAwMiAxOS44NDUzTDE2Ljg5NCAxOS44NTE4TDEzLjkzNTQgMjIuNzcxMkMxMy4zNTQzIDIzLjMwNTggMTMuMDcxOCAyMy45NDI4IDEzLjA3MTggMjQuNzAxMkMxMy4wNzE4IDI1LjQ2MDYgMTMuMzU1NSAyNi4xMjg2IDEzLjk0NTIgMjYuNzE4NEwxMy45NTAyIDI2LjcyMzRaIi8+JiN4YTs8cGF0aCBmaWxsPSJ1cmwoI3BhaW50M19yYWRpYWxfMjYyMl8zNjY3KSIgZD0iTTI5LjYwODQgMjUuNjU2M0MyOS42MDg0IDI0LjgyNTQgMzAuMjgyIDI0LjE1MTggMzEuMTEyOSAyNC4xNTE4QzMxLjk0MzggMjQuMTUxOCAzMi42MTc0IDI0LjgyNTQgMzIuNjE3NCAyNS42NTYzVjI3LjYxNUgyOS42MDg0VjI1LjY1NjNaTTM1LjMxNzQgMjcuNjUyNFYyNS42NTYzQzM1LjMxNzQgMjMuMzM0MyAzMy40MzUgMjEuNDUxOCAzMS4xMTI5IDIxLjQ1MThDMjguNzkwOCAyMS40NTE4IDI2LjkwODQgMjMuMzM0MyAyNi45MDg0IDI1LjY1NjNWMjcuNjUyNEMyNi40NTA0IDI3LjczMzggMjYuMDU1NyAyNy45NDc3IDI1LjcyNDQgMjguMjk0MUMyNS4yOTE0IDI4LjcyNzEgMjUuMDc0OCAyOS4yNTg2IDI1LjA3NDggMjkuODg4NVYzNC40MDZDMjUuMDc0OCAzNS4wNTU1IDI1LjI5MTQgMzUuNTk2OCAyNS43MjQ0IDM2LjAyOTlDMjYuMTU3NSAzNi40NjI5IDI2LjY5ODggMzYuNjc5NSAyNy4zNDgzIDM2LjY3OTVIMzQuODc3NUMzNS41MjcxIDM2LjY3OTUgMzYuMDY4NCAzNi40NjI5IDM2LjUwMTQgMzYuMDI5OUMzNi45MzQ1IDM1LjU5NjggMzcuMTUxIDM1LjA1NTUgMzcuMTUxIDM0LjQwNlYyOS44ODg1QzM3LjE1MSAyOS4yNTg2IDM2LjkzNDUgMjguNzI3MSAzNi41MDE0IDI4LjI5NDFDMzYuMTcwMSAyNy45NDc3IDM1Ljc3NTUgMjcuNzMzOCAzNS4zMTc0IDI3LjY1MjRaTTMxLjA5ODIgMzAuNjU2MUMzMS41MzEyIDMwLjY1NjEgMzEuODg1NSAzMC44MDM4IDMyLjE2MTEgMzEuMDk5QzMyLjQ1NjQgMzEuMzc0NiAzMi42MDQgMzEuNzI4OSAzMi42MDQgMzIuMTYyQzMyLjYwNCAzMi41NzUzIDMyLjQ1NjQgMzIuOTI5NyAzMi4xNjExIDMzLjIyNDlDMzEuODg1NSAzMy41MjAyIDMxLjUzMTIgMzMuNjY3OCAzMS4wOTgyIDMzLjY2NzhDMzAuNjg0OCAzMy42Njc4IDMwLjMzMDUgMzMuNTIwMiAzMC4wMzUyIDMzLjIyNDlDMjkuNzQgMzIuOTI5NyAyOS41OTIzIDMyLjU3NTMgMjkuNTkyMyAzMi4xNjJDMjkuNTkyMyAzMS43Mjg5IDI5Ljc0IDMxLjM3NDYgMzAuMDM1MiAzMS4wOTlDMzAuMzMwNSAzMC44MDM4IDMwLjY4NDggMzAuNjU2MSAzMS4wOTgyIDMwLjY1NjFaIiBjbGlwLXJ1bGU9ImV2ZW5vZGQiIGZpbGwtcnVsZT0iZXZlbm9kZCIvPiYjeGE7PC9nPiYjeGE7PC9nPiYjeGE7PGRlZnM+JiN4YTs8bGluZWFyR3JhZGllbnQgZ3JhZGllbnRVbml0cz0idXNlclNwYWNlT25Vc2UiIHkyPSI0NC4yNzkyIiB4Mj0iNDEuNTQ5OCIgeTE9IjYuODQ3NzUiIHgxPSI0LjgzODIyIiBpZD0icGFpbnQwX2xpbmVhcl8yNjIyXzM2NjciPiYjeGE7PHN0b3Agc3RvcC1jb2xvcj0id2hpdGUiLz4mI3hhOzxzdG9wIHN0b3AtY29sb3I9IiNFQUVDRUUiIG9mZnNldD0iMSIvPiYjeGE7PC9saW5lYXJHcmFkaWVudD4mI3hhOzxyYWRpYWxHcmFkaWVudCBncmFkaWVudFRyYW5zZm9ybT0idHJhbnNsYXRlKDEzLjQwOTYgMTIuOTgpIHJvdGF0ZSg0NS4wNTQyKSBzY2FsZSgyMC4yMTI4IDE4LjQxOTIpIiBncmFkaWVudFVuaXRzPSJ1c2VyU3BhY2VPblVzZSIgcj0iMSIgY3k9IjAiIGN4PSIwIiBpZD0icGFpbnQxX3JhZGlhbF8yNjIyXzM2NjciPiYjeGE7PHN0b3Agc3RvcC1jb2xvcj0iIzEzNDhGRiIvPiYjeGE7PHN0b3Agc3RvcC1jb2xvcj0iIzA2MjM4RCIgb2Zmc2V0PSIxIi8+JiN4YTs8L3JhZGlhbEdyYWRpZW50PiYjeGE7PHJhZGlhbEdyYWRpZW50IGdyYWRpZW50VHJhbnNmb3JtPSJ0cmFuc2xhdGUoMTMuNDA5NiAxMi45OCkgcm90YXRlKDQ1LjA1NDIpIHNjYWxlKDIwLjIxMjggMTguNDE5MikiIGdyYWRpZW50VW5pdHM9InVzZXJTcGFjZU9uVXNlIiByPSIxIiBjeT0iMCIgY3g9IjAiIGlkPSJwYWludDJfcmFkaWFsXzI2MjJfMzY2NyI+JiN4YTs8c3RvcCBzdG9wLWNvbG9yPSIjMTM0OEZGIi8+JiN4YTs8c3RvcCBzdG9wLWNvbG9yPSIjMDYyMzhEIiBvZmZzZXQ9IjEiLz4mI3hhOzwvcmFkaWFsR3JhZGllbnQ+JiN4YTs8cmFkaWFsR3JhZGllbnQgZ3JhZGllbnRUcmFuc2Zvcm09InRyYW5zbGF0ZSgyNi45NDc1IDIzLjY4NzcpIHJvdGF0ZSg1MS44OTMzKSBzY2FsZSgxMy41NDgxIDI0Ljg2MjEpIiBncmFkaWVudFVuaXRzPSJ1c2VyU3BhY2VPblVzZSIgcj0iMSIgY3k9IjAiIGN4PSIwIiBpZD0icGFpbnQzX3JhZGlhbF8yNjIyXzM2NjciPiYjeGE7PHN0b3Agc3RvcC1jb2xvcj0iIzAxOTVGRiIvPiYjeGE7PHN0b3Agc3RvcC1jb2xvcj0iIzExNDdFOSIgb2Zmc2V0PSIxIi8+JiN4YTs8L3JhZGlhbEdyYWRpZW50PiYjeGE7PGNsaXBQYXRoIGlkPSJjbGlwMF8yNjIyXzM2NjciPiYjeGE7PHJlY3QgdHJhbnNmb3JtPSJ0cmFuc2xhdGUoMC40ODUzNTIgMC4wMzQ5MTIxKSIgZmlsbD0id2hpdGUiIGhlaWdodD0iNDgiIHdpZHRoPSI0OCIvPiYjeGE7PC9jbGlwUGF0aD4mI3hhOzxjbGlwUGF0aCBpZD0iY2xpcDFfMjYyMl8zNjY3Ij4mI3hhOzxyZWN0IHRyYW5zZm9ybT0idHJhbnNsYXRlKDEwLjIzNTQgOS43ODQ5MSkiIGZpbGw9IndoaXRlIiBoZWlnaHQ9IjI3IiB3aWR0aD0iMjciLz4mI3hhOzwvY2xpcFBhdGg+JiN4YTs8L2RlZnM+JiN4YTs8L3N2Zz4=;points=[[0,0,0,0,0],[0,0.25,0,0,0],[0,0.5,0,0,0],[0,0.75,0,0,0],[0.25,0,0,0,0],[0.5,0,0,0,0],[0.75,0,0,0,0],[1,0,0,0,0],[1,0.25,0,0,0],[1,0.5,0,0,0],[1,0.75,0,0,0]];" parent="1" vertex="1">
          <mxGeometry x="1026.5" y="490" width="49" height="49" as="geometry" />
        </mxCell>
        <mxCell id="r2Ocmoq0C5dt8iKspmja-181" style="edgeStyle=orthogonalEdgeStyle;rounded=0;orthogonalLoop=1;jettySize=auto;html=1;exitX=1;exitY=0.75;exitDx=0;exitDy=0;strokeColor=#475e75;strokeWidth=1.5;align=center;verticalAlign=middle;fontFamily=Arial;fontSize=12;fontColor=default;labelBackgroundColor=default;startArrow=none;startFill=0;startSize=4;endArrow=blockThin;endFill=1;endSize=4;entryX=0;entryY=0.5;entryDx=0;entryDy=0;entryPerimeter=0;" parent="1" source="r2Ocmoq0C5dt8iKspmja-117" target="r2Ocmoq0C5dt8iKspmja-180" edge="1">
          <mxGeometry relative="1" as="geometry">
            <Array as="points">
              <mxPoint x="813" y="310" />
              <mxPoint x="813" y="514" />
            </Array>
            <mxPoint x="945" y="480" as="targetPoint" />
            <mxPoint x="756" y="320" as="sourcePoint" />
          </mxGeometry>
        </mxCell>
        <mxCell id="r2Ocmoq0C5dt8iKspmja-182" value="" style="endArrow=blockThin;html=1;strokeColor=#475E75;bendable=1;rounded=0;endFill=1;endSize=4;strokeWidth=1.5;startSize=4;entryX=0;entryY=0.5;entryDx=0;entryDy=0;fontFamily=Arial;entryPerimeter=0;exitX=1;exitY=0.5;exitDx=0;exitDy=0;exitPerimeter=0;" parent="1" source="r2Ocmoq0C5dt8iKspmja-179" target="r2Ocmoq0C5dt8iKspmja-175" edge="1">
          <mxGeometry width="50" height="50" relative="1" as="geometry">
            <mxPoint x="951" y="379.15999999999997" as="sourcePoint" />
            <mxPoint x="1037" y="380.15999999999997" as="targetPoint" />
          </mxGeometry>
        </mxCell>
        <mxCell id="r2Ocmoq0C5dt8iKspmja-183" style="rounded=0;orthogonalLoop=1;jettySize=auto;html=1;fontSize=18;strokeColor=#475E75;fontFamily=Helvetica;fontColor=default;targetPerimeterSpacing=15;endSize=4;startSize=4;dashed=1;endArrow=blockThin;endFill=1;strokeWidth=1.5;startArrow=none;startFill=0;exitX=1;exitY=0.5;exitDx=0;exitDy=0;exitPerimeter=0;edgeStyle=orthogonalEdgeStyle;entryX=0;entryY=0.5;entryDx=0;entryDy=0;" parent="1" source="r2Ocmoq0C5dt8iKspmja-145" target="r2Ocmoq0C5dt8iKspmja-117" edge="1">
          <mxGeometry relative="1" as="geometry">
            <mxPoint x="361" y="472" as="targetPoint" />
            <mxPoint x="508" y="360" as="sourcePoint" />
          </mxGeometry>
        </mxCell>
        <mxCell id="r2Ocmoq0C5dt8iKspmja-184" style="rounded=0;orthogonalLoop=1;jettySize=auto;html=1;fontSize=18;strokeColor=#475E75;fontFamily=Helvetica;fontColor=default;targetPerimeterSpacing=15;endSize=4;startSize=4;dashed=1;endArrow=blockThin;endFill=1;strokeWidth=1.5;startArrow=none;startFill=0;exitX=1;exitY=0.5;exitDx=0;exitDy=0;exitPerimeter=0;edgeStyle=orthogonalEdgeStyle;entryX=0;entryY=0.5;entryDx=0;entryDy=0;entryPerimeter=0;" parent="1" source="r2Ocmoq0C5dt8iKspmja-146" target="r2Ocmoq0C5dt8iKspmja-145" edge="1">
          <mxGeometry relative="1" as="geometry">
            <mxPoint x="402" y="274" as="targetPoint" />
            <mxPoint x="308" y="274" as="sourcePoint" />
          </mxGeometry>
        </mxCell>
        <mxCell id="r2Ocmoq0C5dt8iKspmja-185" style="rounded=0;orthogonalLoop=1;jettySize=auto;html=1;fontSize=18;strokeColor=#475E75;fontFamily=Helvetica;fontColor=default;targetPerimeterSpacing=15;endSize=4;startSize=4;dashed=1;endArrow=blockThin;endFill=1;strokeWidth=1.5;startArrow=none;startFill=0;exitX=1;exitY=0.5;exitDx=0;exitDy=0;exitPerimeter=0;edgeStyle=orthogonalEdgeStyle;entryX=0;entryY=0.5;entryDx=0;entryDy=0;entryPerimeter=0;" parent="1" source="r2Ocmoq0C5dt8iKspmja-110" target="r2Ocmoq0C5dt8iKspmja-146" edge="1">
          <mxGeometry relative="1" as="geometry">
            <mxPoint x="224" y="316.56" as="targetPoint" />
            <mxPoint x="121" y="316.56" as="sourcePoint" />
          </mxGeometry>
        </mxCell>
        <mxCell id="r2Ocmoq0C5dt8iKspmja-186" value="" style="group" parent="1" vertex="1" connectable="0">
          <mxGeometry x="1287.25" y="484" width="223" height="107" as="geometry" />
        </mxCell>
        <mxCell id="r2Ocmoq0C5dt8iKspmja-187" value="" style="rounded=1;whiteSpace=wrap;html=1;strokeColor=#0070F2;fillColor=#FFFFFF;arcSize=24;absoluteArcSize=1;imageWidth=64;imageHeight=64;strokeWidth=1.5;" parent="r2Ocmoq0C5dt8iKspmja-186" vertex="1">
          <mxGeometry x="10.619047619047619" y="5.095238095238096" width="212.38095238095238" height="101.90476190476191" as="geometry" />
        </mxCell>
        <mxCell id="r2Ocmoq0C5dt8iKspmja-188" value="&lt;b&gt;Supported Hyperscaler Services&lt;br&gt;&lt;br&gt;&lt;/b&gt;(e.g. Azure Storage Account, &lt;br&gt;Amazon SQS, ...)" style="rounded=1;whiteSpace=wrap;html=1;strokeColor=#0070F2;fillColor=#FFFFFF;arcSize=24;absoluteArcSize=1;imageWidth=64;imageHeight=64;strokeWidth=1.5;" parent="r2Ocmoq0C5dt8iKspmja-186" vertex="1">
          <mxGeometry width="212.38" height="98" as="geometry" />
        </mxCell>
        <mxCell id="r2Ocmoq0C5dt8iKspmja-189" value="" style="endArrow=blockThin;html=1;strokeColor=#475E75;bendable=1;rounded=0;endFill=1;endSize=4;strokeWidth=1.5;startSize=4;fontFamily=Arial;" parent="1" source="r2Ocmoq0C5dt8iKspmja-180" edge="1">
          <mxGeometry width="50" height="50" relative="1" as="geometry">
            <mxPoint x="1089" y="557.31" as="sourcePoint" />
            <mxPoint x="1287" y="516" as="targetPoint" />
          </mxGeometry>
        </mxCell>
        <mxCell id="r2Ocmoq0C5dt8iKspmja-190" value="&lt;font face=&quot;arial&quot; color=&quot;#475e75&quot;&gt;This BTP Solution Diagram depicts secure connectivity with SAP Private Link service which allows&lt;br&gt;to securely connect applications running on SAP BTP to workloads running on hyperscalers. &lt;br&gt;This ensures that traffic is not routed through the public internet but stays within the hyperscaler infrastructure.&lt;/font&gt;" style="text;html=1;align=left;verticalAlign=middle;resizable=0;points=[];autosize=1;strokeColor=none;fillColor=none;fontSize=12;fontColor=#1D2D3E;fontFamily=Helvetica;" parent="1" vertex="1">
          <mxGeometry x="31" y="767" width="610" height="60" as="geometry" />
        </mxCell>
        <mxCell id="r2Ocmoq0C5dt8iKspmja-191" value="&lt;font face=&quot;arial&quot; color=&quot;#475e75&quot;&gt;&lt;b&gt;Diagram Level: 2&lt;/b&gt;&lt;/font&gt;" style="text;html=1;align=left;verticalAlign=middle;resizable=0;points=[];autosize=1;strokeColor=none;fillColor=none;fontSize=12;fontColor=#1D2D3E;fontFamily=Helvetica;" parent="1" vertex="1">
          <mxGeometry x="29" y="743" width="120" height="30" as="geometry" />
        </mxCell>
        <mxCell id="r2Ocmoq0C5dt8iKspmja-192" value="&lt;font color=&quot;#188918&quot; size=&quot;1&quot;&gt;&lt;b style=&quot;&quot;&gt;SAML2/OIDC&lt;/b&gt;&lt;/font&gt;" style="rounded=1;whiteSpace=wrap;html=1;arcSize=50;strokeColor=#188918;fillColor=#f5fae5;fontColor=#266f3a;strokeWidth=1.5;" parent="1" vertex="1">
          <mxGeometry x="960" y="648.9999999999998" width="72" height="16" as="geometry" />
        </mxCell>
        <mxCell id="r2Ocmoq0C5dt8iKspmja-193" value="" style="endArrow=blockThin;html=1;rounded=0;strokeColor=#188918;endFill=1;startArrow=blockThin;startFill=1;endSize=4;startSize=4;strokeWidth=1.5;exitX=0.229;exitY=-0.001;exitDx=0;exitDy=0;exitPerimeter=0;" parent="1" edge="1">
          <mxGeometry width="50" height="50" relative="1" as="geometry">
            <mxPoint x="666.7500000000001" y="614.9999999999999" as="sourcePoint" />
            <mxPoint x="666.2500000000001" y="577.8199999999998" as="targetPoint" />
            <Array as="points" />
          </mxGeometry>
        </mxCell>
        <mxCell id="r2Ocmoq0C5dt8iKspmja-194" value="&lt;font color=&quot;#188918&quot; size=&quot;1&quot;&gt;&lt;b style=&quot;&quot;&gt;OIDC&lt;/b&gt;&lt;/font&gt;" style="rounded=1;whiteSpace=wrap;html=1;arcSize=50;strokeColor=#188918;fillColor=#f5fae5;fontColor=#266f3a;strokeWidth=1.5;" parent="1" vertex="1">
          <mxGeometry x="648" y="589.0041071428573" width="36" height="16" as="geometry" />
        </mxCell>
        <mxCell id="r2Ocmoq0C5dt8iKspmja-195" value="" style="rounded=1;whiteSpace=wrap;html=1;strokeColor=#0070F2;strokeWidth=1.5;arcSize=16;fillColor=#FFFFFF;perimeterSpacing=0;absoluteArcSize=1;" parent="1" vertex="1">
          <mxGeometry x="487.75000000000045" y="612.9999999999998" width="356.5" height="92" as="geometry" />
        </mxCell>
        <mxCell id="r2Ocmoq0C5dt8iKspmja-196" value="&lt;font face=&quot;arial&quot; style=&quot;font-size: 16px;&quot;&gt;&lt;b style=&quot;font-size: 16px;&quot;&gt;SAP Cloud &lt;br&gt;Identity &lt;br&gt;Services&lt;/b&gt;&lt;/font&gt;" style="text;html=1;align=left;verticalAlign=middle;resizable=0;points=[];autosize=1;strokeColor=none;fillColor=none;fontSize=12;fontColor=#1d2d3e;fontFamily=Helvetica;" parent="1" vertex="1">
          <mxGeometry x="496.75000000000045" y="624.9999999999998" width="100" height="70" as="geometry" />
        </mxCell>
        <mxCell id="r2Ocmoq0C5dt8iKspmja-197" value="Identity&#xa;Directory" style="shape=image;verticalLabelPosition=bottom;labelBackgroundColor=default;verticalAlign=top;aspect=fixed;imageAspect=0;image=data:image/svg+xml,PHN2ZyB4bWxucz0iaHR0cDovL3d3dy53My5vcmcvMjAwMC9zdmciIGZpbGw9Im5vbmUiIHZpZXdCb3g9IjAgMCAxNiAxNiIgaGVpZ2h0PSIxNiIgd2lkdGg9IjE2Ij4mI3hhOzxjaXJjbGUgc3Ryb2tlLXdpZHRoPSIwLjI4NTcwOCIgc3Ryb2tlPSIjRDVEQUREIiBmaWxsPSJ1cmwoI3BhaW50MF9saW5lYXJfMzg5MF8yMTUyMCkiIHI9IjcuODU2OTYiIGN5PSI3Ljk5Nzg2IiBjeD0iNy45OTY4OSIvPiYjeGE7PGcgY2xpcC1wYXRoPSJ1cmwoI2NsaXAwXzM4OTBfMjE1MjApIj4mI3hhOzxwYXRoIGZpbGw9InVybCgjcGFpbnQxX2xpbmVhcl8zODkwXzIxNTIwKSIgZD0iTTQuNjg1NDQgMy43MTg5N0M0LjQxMzUxIDMuODI2NjkgNC4xNTU0IDMuOTczMiAzLjk1NjYzIDQuMTc1NkMzLjgyNjY3IDQuMzA3OTQgMy41OTcxNyA0LjU2MzU2IDMuNTk3MTcgNS4wNDU5NVY5LjcyMzMyQzMuNTk3NSAxMC41NDAyIDQuMjAwMzUgMTAuOTgxNSA0LjczNTk3IDExLjIwMDJDNS4zMDI3NCAxMS40MzE3IDYuMDIyOTMgMTEuNTIyNSA2LjcwOTUxIDExLjUyM0M2Ljc5OTU3IDExLjUyMyA2LjkzOTA4IDExLjUwNiA3LjA4NDQzIDExLjQ4NTRDNy4zNjE3MiAxMS40NDYzIDcuNTc1MjkgMTEuMjAzMiA3LjU3NTI5IDEwLjkyMzFDNy41NzUyOSAxMC42MDU2IDcuMzAzODEgMTAuMzcyOSA2Ljk4ODk1IDEwLjQxNDNDNi44ODA4MSAxMC40Mjg1IDYuNzgxMzIgMTAuNDM4NyA2LjcxMDEgMTAuNDM4N0M2LjA3OTEgMTAuNDM4MiA1LjQ4Mzc0IDEwLjM1MjIgNS4wNjQzNyAxMC4xODA5QzQuNjEzOTggOS45OTcwMiA0LjU2MDI3IDkuODA5OSA0LjU2MDI3IDkuNzIyNjVMNC41NTk3MyA5LjA1NzI2QzQuNzMyNzYgOS4xMTYxOCA0LjkxNDMzIDkuMTY0NTUgNS4wOTc4IDkuMjA0MTZDNS41OTkyMiA5LjMxMjQxIDYuMTY3NTkgOS4zNjYwNyA2LjcyODkxIDkuMzY3MzlDNi44MjA0MyA5LjM2NzYxIDYuODk5MTkgOS4zNjkwMSA2Ljk5MDcyIDkuMzY2NDJDNy4xNzE2OSA5LjM2MTMxIDcuMzEyMTggOS4yMTA2NSA3LjMxMjE4IDkuMDI5NjFDNy4zMTIxOCA4LjgzMDA1IDcuMTQyNjkgOC42NzMwOCA2Ljk0MzE5IDguNjc4MTNDNi44Njg0NiA4LjY4MDAzIDYuODA2MjQgOC42NzgzMSA2LjczMDk0IDguNjc4MTRDNi4yMTg0NyA4LjY3NjkyIDUuNzExMyA4LjYyNzU5IDUuMjc5MTggOC41MzQzQzQuOTc3NjYgOC40NjkyIDQuNzM1MTggOC4zODczNyA0LjU1NzQyIDguMjk5OTdMNC41NTYzIDcuNDg3OTRDNC43MzAzNiA3LjU0NzM5IDQuOTEzMTIgNy41OTYxNCA1LjA5NzggNy42MzYwMUM1LjU5OTIyIDcuNzQ0MjYgNi4xNjc1OSA3Ljc5NzkyIDYuNzI4OTEgNy43OTkyNUM3LjE5MDg2IDcuODAwMzQgNy42NTcwOSA3Ljc2NjAxIDguMDg2MDQgNy42OTM2M0M4LjU0MDMgNy42MzYwMSA4LjQ5MzQ0IDYuOTQyNjYgOC4wODYwNCA3LjAyMjgyQzcuNjc4NjQgNy4xMDI5OSA3LjIwODI5IDcuMTQzNjQgNi43MzA5NCA3LjE0MjUxQzYuMjE4NDcgNy4xNDEzIDUuNzExMyA3LjA5MTk3IDUuMjc5MTggNi45OTg2OEM0Ljk3NTcyIDYuOTMzMTYgNC43MzIwNyA2Ljg1MDcgNC41NTQwMSA2Ljc2MjY3TDQuNTUyNjcgNS45MDU4NEM0LjU5OTE2IDUuOTI2NzUgNC42NDYzMSA1Ljk0NjQgNC42OTM4NiA1Ljk2NDg4QzUuMjM5ODYgNi4xNzcxNyA1Ljk1NTIgNi4yODAxNCA2LjcwOTgxIDYuMjgwMTRDNy40NzA3MSA2LjI4MDE0IDguMTkzMDYgNi4xNzU0NSA4Ljc0MzE1IDUuOTU5NjdDOC43OTA2IDUuOTQxMDYgOC44Mzc2NSA1LjkyMTI4IDguODg0MDYgNS45MDAyNUw4Ljg4NDA2IDYuNTk0NzJMOC44ODE5NiA2LjM1ODk3QzguODgxNzcgNi41Njc0NCA5LjA1MDcyIDYuNzM2NTMgOS4yNTkxOSA2LjczNjUzSDkuMzY0NTVDOS42MzEwMyA2LjczNjUzIDkuODQ3MDUgNi41MjA1MSA5Ljg0NzA0IDYuMjU0MDNMOS44NDcwMSA1LjA0NTk1QzkuODQ3MDEgNC42NzY2IDkuNjgzOTcgNC4zODMxOCA5LjQ3NzM2IDQuMTc0MzFDOS4yNzcxNiAzLjk3MTkxIDkuMDE2NjYgMy44MjU3NiA4Ljc0MzAxIDMuNzE4NDFDOC4xOTI5MSAzLjUwMjY0IDcuNDcwNTYgMy4zOTc5NSA2LjcwOTY2IDMuMzk3OTVDNS45NDg3NiAzLjM5Nzk1IDUuMjMxNTYgMy41MDI2MyA0LjY4NTQ0IDMuNzE4OTdaIiBjbGlwLXJ1bGU9ImV2ZW5vZGQiIGZpbGwtcnVsZT0iZXZlbm9kZCIvPiYjeGE7PHBhdGggZmlsbD0idXJsKCNwYWludDJfbGluZWFyXzM4OTBfMjE1MjApIiBkPSJNMTAuNTUwMSA3LjQzNDQyQzEwLjU4NzQgNy4xOTU3IDEwLjgxMTIgNy4wMzI0NCAxMS4wNDk5IDcuMDY5NzdDMTEuOTA2NCA3LjIwMzcyIDEyLjc0ODggNy42MTA5IDEzLjQ0MTYgOC4zMDc1NkMxMy42MTIgOC40Nzg4OSAxMy42MTEzIDguNzU1OSAxMy40Mzk5IDguOTI2MjhDMTMuMjY4NiA5LjA5NjY2IDEyLjk5MTYgOS4wOTU5IDEyLjgyMTIgOC45MjQ1OEMxMi4yNjA2IDguMzYwODkgMTEuNTg4NiA4LjAzOTY1IDEwLjkxNDcgNy45MzQyNkMxMC42NzYgNy44OTY5MyAxMC41MTI4IDcuNjczMTQgMTAuNTUwMSA3LjQzNDQyWiIgY2xpcC1ydWxlPSJldmVub2RkIiBmaWxsLXJ1bGU9ImV2ZW5vZGQiLz4mI3hhOzxwYXRoIGZpbGw9InVybCgjcGFpbnQzX2xpbmVhcl8zODkwXzIxNTIwKSIgZD0iTTEwLjkzMzcgMTEuMTcwNEMxMC45MzM3IDEwLjkyODggMTAuNzM3OSAxMC43MzI5IDEwLjQ5NjIgMTAuNzMyOUMxMC4yNTQ2IDEwLjczMjkgMTAuMDU4NyAxMC45Mjg4IDEwLjA1ODcgMTEuMTcwNEMxMC4wNTg3IDExLjUxNCAxMC4xNTA4IDExLjg4MDIgMTAuMzM0MiAxMi4xNzY0QzEwLjM1MzEgMTIuMjA3IDEwLjM3MjIgMTIuMjM3NCAxMC4zOTUxIDEyLjI2NDlDMTAuNTM3NCAxMi40MzUgMTAuNzk0NiAxMi40NzM2IDEwLjk4MDMgMTIuMzQ1NEMxMS4xNzggMTIuMjA4OCAxMS4yMjg0IDExLjkzODUgMTEuMDkzOCAxMS43NEMxMC45ODg2IDExLjU3MzggMTAuOTMzNyAxMS4zNjU3IDEwLjkzMzcgMTEuMTcwNFoiLz4mI3hhOzxwYXRoIGZpbGw9InVybCgjcGFpbnQ0X2xpbmVhcl8zODkwXzIxNTIwKSIgZD0iTTEzLjI4NTYgMTAuOTAwM0MxMy4zMzE2IDkuNzc0MDMgMTIuNDY0NCA4LjgyOTkxIDExLjQ1NDkgOC40NTA4MUMxMC40MDkzIDguMDU4MTMgOS4xMDEzMSA4LjIxOTk5IDguMTk2MTIgOS4zOTc2OEM4LjA0ODg3IDkuNTg5MjUgOC4wODQ4IDkuODYzOTIgOC4yNzYzNyAxMC4wMTEyQzguNDY3OTUgMTAuMTU4NCA4Ljc0MjYyIDEwLjEyMjUgOC44ODk4NyA5LjkzMDkxQzkuNTI3MDIgOS4xMDE5NiAxMC40MDc4IDguOTkyMjQgMTEuMTQ3MyA5LjI2OTk1QzExLjkyMyA5LjU2MTI2IDEyLjQzNzMgMTAuMjI5NSAxMi40MTEzIDEwLjg2NDVDMTIuNDA2NSAxMC45ODI1IDEyLjM2NjcgMTEuMDQyNCAxMi4zMzYyIDExLjA3MjJDMTIuMzAxOCAxMS4xMDU5IDEyLjI1NzUgMTEuMTIyOSAxMi4yMTUxIDExLjEyMzdDMTIuMTczNiAxMS4xMjQ1IDEyLjE0MjUgMTEuMTEwMyAxMi4xMjE4IDExLjA4OTRDMTIuMTA0MSAxMS4wNzE3IDEyLjA2MzIgMTEuMDE4IDEyLjA2MzIgMTAuODgyNEMxMi4wNjMyIDEwLjUwODIgMTEuODI1NyAxMC4xMDcxIDExLjQ4MTMgOS44NDg2QzExLjExMDQgOS41NzAyMyAxMC41ODU2IDkuNDI4MDkgOS45Njg5NSA5LjU5ODI1TDkuOTU5OTIgOS42MDA3NUw5Ljk1MSA5LjYwMzYyQzkuMzYwNDcgOS43OTQxMiA4Ljk4Mzc5IDEwLjM0NjEgOC44OTkxNiAxMC45OTExQzguODEzNjkgMTEuNjQyNCA5LjAxMzc5IDEyLjQwODYgOS41NjU4NyAxMy4xNTM2QzkuNzA5NzMgMTMuMzQ3OCA5Ljk4MzczIDEzLjM4ODUgMTAuMTc3OSAxMy4yNDQ3QzEwLjM3MiAxMy4xMDA4IDEwLjQxMjcgMTIuODI2OCAxMC4yNjg5IDEyLjYzMjdDOS44MjU0NSAxMi4wMzQzIDkuNzE2MDcgMTEuNDkwOSA5Ljc2NjcyIDExLjEwNDlDOS44MTc1MSAxMC43MTc5IDEwLjAxNzcgMTAuNTA1NSAxMC4yMTE2IDEwLjQzOUMxMC41NTggMTAuMzQ2MyAxMC44MDAzIDEwLjQzMTUgMTAuOTU2IDEwLjU0ODRDMTEuMDM5NSAxMC42MTEgMTEuMTAxNCAxMC42ODU1IDExLjE0MDkgMTAuNzU0OUMxMS4xODMgMTAuODI2OSAxMS4xODY1IDEwLjg2MzUgMTEuMTg4OSAxMC45MjgzQzExLjE5ODQgMTEuMjM3OCAxMS4zMDUyIDExLjUwOTMgMTEuNTAxNSAxMS43MDY2QzExLjcwNDQgMTEuOTEwNSAxMS45NzIzIDEyLjAwMzYgMTIuMjMyIDExLjk5ODZDMTIuNzY0NiAxMS45ODgzIDEzLjI1ODIgMTEuNTcyMyAxMy4yODU2IDEwLjkwMDNaIi8+JiN4YTs8L2c+JiN4YTs8ZGVmcz4mI3hhOzxsaW5lYXJHcmFkaWVudCBncmFkaWVudFVuaXRzPSJ1c2VyU3BhY2VPblVzZSIgeTI9IjE0Ljc0NTgiIHgyPSIxMy42ODQ5IiB5MT0iMi4yNjg5NCIgeDE9IjEuNDQ3OTkiIGlkPSJwYWludDBfbGluZWFyXzM4OTBfMjE1MjAiPiYjeGE7PHN0b3Agc3RvcC1jb2xvcj0id2hpdGUiLz4mI3hhOzxzdG9wIHN0b3AtY29sb3I9IiNFQUVDRUUiIG9mZnNldD0iMSIvPiYjeGE7PC9saW5lYXJHcmFkaWVudD4mI3hhOzxsaW5lYXJHcmFkaWVudCBncmFkaWVudFVuaXRzPSJ1c2VyU3BhY2VPblVzZSIgeTI9IjguODQ0NTUiIHgyPSIxMC4wMzMzIiB5MT0iNC42MTI5OSIgeDE9IjQuNTM0MDUiIGlkPSJwYWludDFfbGluZWFyXzM4OTBfMjE1MjAiPiYjeGE7PHN0b3Agc3RvcC1jb2xvcj0iIzAxOTVGRiIvPiYjeGE7PHN0b3Agc3RvcC1jb2xvcj0iIzExNDdFOSIgb2Zmc2V0PSIwLjk5MTAyOCIvPiYjeGE7PC9saW5lYXJHcmFkaWVudD4mI3hhOzxsaW5lYXJHcmFkaWVudCBncmFkaWVudFVuaXRzPSJ1c2VyU3BhY2VPblVzZSIgeTI9IjExLjc5MjgiIHgyPSIxMy4yNjAyIiB5MT0iNy45ODYzNSIgeDE9IjguOTEzMjEiIGlkPSJwYWludDJfbGluZWFyXzM4OTBfMjE1MjAiPiYjeGE7PHN0b3Agc3RvcC1jb2xvcj0iIzEzNDhGRiIvPiYjeGE7PHN0b3Agc3RvcC1jb2xvcj0iIzA2MjM4RCIgb2Zmc2V0PSIxIi8+JiN4YTs8L2xpbmVhckdyYWRpZW50PiYjeGE7PGxpbmVhckdyYWRpZW50IGdyYWRpZW50VW5pdHM9InVzZXJTcGFjZU9uVXNlIiB5Mj0iMTEuNzkyOCIgeDI9IjEzLjI2MDIiIHkxPSI3Ljk4NjM1IiB4MT0iOC45MTMyMSIgaWQ9InBhaW50M19saW5lYXJfMzg5MF8yMTUyMCI+JiN4YTs8c3RvcCBzdG9wLWNvbG9yPSIjMTM0OEZGIi8+JiN4YTs8c3RvcCBzdG9wLWNvbG9yPSIjMDYyMzhEIiBvZmZzZXQ9IjEiLz4mI3hhOzwvbGluZWFyR3JhZGllbnQ+JiN4YTs8bGluZWFyR3JhZGllbnQgZ3JhZGllbnRVbml0cz0idXNlclNwYWNlT25Vc2UiIHkyPSIxMS43OTI4IiB4Mj0iMTMuMjYwMiIgeTE9IjcuOTg2MzUiIHgxPSI4LjkxMzIxIiBpZD0icGFpbnQ0X2xpbmVhcl8zODkwXzIxNTIwIj4mI3hhOzxzdG9wIHN0b3AtY29sb3I9IiMxMzQ4RkYiLz4mI3hhOzxzdG9wIHN0b3AtY29sb3I9IiMwNjIzOEQiIG9mZnNldD0iMSIvPiYjeGE7PC9saW5lYXJHcmFkaWVudD4mI3hhOzxjbGlwUGF0aCBpZD0iY2xpcDBfMzg5MF8yMTUyMCI+JiN4YTs8cmVjdCB0cmFuc2Zvcm09InRyYW5zbGF0ZSgzLjU5NzE3IDMuMzk3OTUpIiBmaWxsPSJ3aGl0ZSIgaGVpZ2h0PSIxMCIgd2lkdGg9IjEwIi8+JiN4YTs8L2NsaXBQYXRoPiYjeGE7PC9kZWZzPiYjeGE7PC9zdmc+;fontStyle=0;fontSize=12;fontColor=#1D2D3E" parent="1" vertex="1">
          <mxGeometry x="602.74" y="629.4999999999998" width="32" height="32" as="geometry" />
        </mxCell>
        <mxCell id="r2Ocmoq0C5dt8iKspmja-198" value="Identity&#xa;Authentication" style="shape=image;verticalLabelPosition=bottom;labelBackgroundColor=default;verticalAlign=top;aspect=fixed;imageAspect=0;image=data:image/svg+xml,PHN2ZyB4bWxucz0iaHR0cDovL3d3dy53My5vcmcvMjAwMC9zdmciIGZpbGw9Im5vbmUiIHZpZXdCb3g9IjAgMCAxNiAxNiIgaGVpZ2h0PSIxNiIgd2lkdGg9IjE2Ij4mI3hhOzxjaXJjbGUgc3Ryb2tlLXdpZHRoPSIwLjI4NTcwOCIgc3Ryb2tlPSIjRDVEQUREIiBmaWxsPSJ1cmwoI3BhaW50MF9saW5lYXJfMzg5MF8yMTUxMykiIHI9IjcuODU2OTYiIGN5PSI3Ljk5Nzg2IiBjeD0iNy45OTkzMyIvPiYjeGE7PHBhdGggZmlsbD0idXJsKCNwYWludDFfbGluZWFyXzM4OTBfMjE1MTMpIiBkPSJNNy4xNzQ4NCAzLjQxNDlMMTAuMTkzNiA0LjI4NTYxSDEwLjE5MjhDMTAuNDA2NSA0LjM0MjkgMTAuNTEzMyA0LjQ4NDkzIDEwLjUxMzMgNC43MTI0OVY2LjIzMDQ0QzEwLjAxNjEgNi4zNzgwNSA5LjY1MjU1IDYuNzY4MjQgOS41NTU4MyA3LjQ0NTUzQzkuNTU1ODMgNy40NDU1MyA5LjI2OTcxIDcuNDYxODcgOC42MzQ4NiA3LjgwMTE2QzggOC4xNDA0NCA3LjU2MzcxIDguNjkwNTQgNy41NjM3MSA4LjY5MDU0QzcuMTM3NDggOS4xNzM1MSA3LjAzMzEyIDkuNDk2MjYgNy4xODA2NiAxMC4yMDMxQzcuMzcwMDQgMTAuNjQzNyA3LjUzMjQ4IDEwLjgxOTggNy45MDEzMSAxMS4wMzQxQzcuOTAxMzEgMTEuMDM0MSA3Ljg1MTMxIDExLjI5OTYgNy45MDI2NCAxMS43Mzc3QzcuNzU0NzYgMTEuODI3OSA3LjYyNDQgMTEuOTAxNCA3LjUxMTY3IDExLjk1ODZDNy4zNDMwNiAxMi4wNDQyIDcuMjQ3MzkgMTIuMDkyNiA3LjIyNTA2IDEyLjEwMzlDNy4xNTc3IDEyLjEyNjkgNy4xMDE0OSAxMi4xMzgyIDcuMDU2NDUgMTIuMTM4MkM3LjAxMTQgMTIuMTM4MiA2Ljk1NTIgMTIuMTI2NSA2Ljg4NzgzIDEyLjEwMzlDNi44NjUxMSAxMi4wOTI2IDYuNzY5ODQgMTIuMDQ3IDYuNjAxMjIgMTEuOTY3NUM2LjQzMjYxIDExLjg4NzYgNi4yMjQ1MyAxMS43NjU0IDUuOTc3MzggMTEuNjAwM0M1LjczMDI0IDExLjQzNTMgNS40Njg3NCAxMS4yMzMyIDUuMTkzMjkgMTAuOTk0M0M0LjkxNzg1IDEwLjc1NTQgNC42NjE5MyAxMC40NzY2IDQuNDI1OTUgMTAuMTU3OUM0LjE4OTU3IDkuODM5NTQgMy45OTMwNSA5LjQ4MTI1IDMuODM1NTkgOS4wODI2MUMzLjY3ODE0IDguNjg0MzcgMy41OTk2MSA4LjI0NjE5IDMuNTk5NjEgNy43NjgwNlY0LjcxMjQ5QzMuNTk5NjEgNC40ODQ5MyAzLjcwNjQ0IDQuMzQyNSAzLjkyMDEgNC4yODU2MUw2LjkzODg1IDMuNDE0OUM3LjAwNjIyIDMuMzkyMyA3LjA4NDc1IDMuMzkyMyA3LjE3NDg0IDMuNDE0OVoiLz4mI3hhOzxwYXRoIGZpbGw9InVybCgjcGFpbnQyX2xpbmVhcl8zODkwXzIxNTEzKSIgZD0iTTEwLjU1MjUgNy41MTg4OUMxMC41ODk5IDcuMjgwMTcgMTAuODEzNiA3LjExNjkxIDExLjA1MjQgNy4xNTQyNEMxMS45MDg5IDcuMjg4MTkgMTIuNzUxMiA3LjY5NTM3IDEzLjQ0NDEgOC4zOTIwNEMxMy42MTQ1IDguNTYzMzYgMTMuNjEzNyA4Ljg0MDM3IDEzLjQ0MjQgOS4wMTA3NUMxMy4yNzExIDkuMTgxMTQgMTIuOTk0MSA5LjE4MDM3IDEyLjgyMzcgOS4wMDkwNUMxMi4yNjMxIDguNDQ1MzYgMTEuNTkxMSA4LjEyNDEyIDEwLjkxNzIgOC4wMTg3M0MxMC42Nzg1IDcuOTgxNCAxMC41MTUyIDcuNzU3NjEgMTAuNTUyNSA3LjUxODg5WiIgY2xpcC1ydWxlPSJldmVub2RkIiBmaWxsLXJ1bGU9ImV2ZW5vZGQiLz4mI3hhOzxwYXRoIGZpbGw9InVybCgjcGFpbnQzX2xpbmVhcl8zODkwXzIxNTEzKSIgZD0iTTEwLjkzNjIgMTEuMjU0OUMxMC45MzYyIDExLjAxMzMgMTAuNzQwMyAxMC44MTc0IDEwLjQ5ODcgMTAuODE3NEMxMC4yNTcxIDEwLjgxNzQgMTAuMDYxMiAxMS4wMTMzIDEwLjA2MTIgMTEuMjU0OUMxMC4wNjEyIDExLjU5ODUgMTAuMTUzMiAxMS45NjQ2IDEwLjMzNjYgMTIuMjYwOUMxMC4zNTU1IDEyLjI5MTQgMTAuMzc0NiAxMi4zMjE5IDEwLjM5NzYgMTIuMzQ5M0MxMC41Mzk4IDEyLjUxOTUgMTAuNzk3IDEyLjU1ODEgMTAuOTgyNyAxMi40Mjk4QzExLjE4MDUgMTIuMjkzMiAxMS4yMzA4IDEyLjAyMjkgMTEuMDk2MiAxMS44MjQ0QzEwLjk5MSAxMS42NTgzIDEwLjkzNjIgMTEuNDUwMiAxMC45MzYyIDExLjI1NDlaIi8+JiN4YTs8cGF0aCBmaWxsPSJ1cmwoI3BhaW50NF9saW5lYXJfMzg5MF8yMTUxMykiIGQ9Ik0xMy4yODggMTAuOTg0N0MxMy4zMzQxIDkuODU4NSAxMi40NjY4IDguOTE0MzggMTEuNDU3MyA4LjUzNTI5QzEwLjQxMTcgOC4xNDI2IDkuMTAzNzUgOC4zMDQ0NiA4LjE5ODU2IDkuNDgyMTVDOC4wNTEzMSA5LjY3MzcyIDguMDg3MjQgOS45NDgzOSA4LjI3ODgyIDEwLjA5NTZDOC40NzAzOSAxMC4yNDI5IDguNzQ1MDYgMTAuMjA3IDguODkyMzEgMTAuMDE1NEM5LjUyOTQ2IDkuMTg2NDMgMTAuNDEwMiA5LjA3NjcxIDExLjE0OTcgOS4zNTQ0M0MxMS45MjU0IDkuNjQ1NzMgMTIuNDM5NyAxMC4zMTQgMTIuNDEzOCAxMC45NDlDMTIuNDA5IDExLjA2NyAxMi4zNjkyIDExLjEyNjkgMTIuMzM4NiAxMS4xNTY3QzEyLjMwNDMgMTEuMTkwNCAxMi4yNTk5IDExLjIwNzQgMTIuMjE3NiAxMS4yMDgyQzEyLjE3NjEgMTEuMjA5IDEyLjE0NSAxMS4xOTQ3IDEyLjEyNDIgMTEuMTczOUMxMi4xMDY2IDExLjE1NjEgMTIuMDY1NiAxMS4xMDI0IDEyLjA2NTYgMTAuOTY2OUMxMi4wNjU2IDEwLjU5MjYgMTEuODI4MiAxMC4xOTE2IDExLjQ4MzcgOS45MzMwOEMxMS4xMTI4IDkuNjU0NzEgMTAuNTg4MSA5LjUxMjU3IDkuOTcxMzkgOS42ODI3M0w5Ljk2MjM2IDkuNjg1MjJMOS45NTM0NCA5LjY4ODA5QzkuMzYyOTEgOS44Nzg1OSA4Ljk4NjIzIDEwLjQzMDYgOC45MDE2IDExLjA3NTVDOC44MTYxMyAxMS43MjY5IDkuMDE2MjMgMTIuNDkzMSA5LjU2ODMxIDEzLjIzODFDOS43MTIxNyAxMy40MzIyIDkuOTg2MTcgMTMuNDczIDEwLjE4MDMgMTMuMzI5MUMxMC4zNzQ0IDEzLjE4NTMgMTAuNDE1MiAxMi45MTEzIDEwLjI3MTMgMTIuNzE3MUM5LjgyNzkgMTIuMTE4OCA5LjcxODUyIDExLjU3NTMgOS43NjkxNiAxMS4xODk0QzkuODE5OTUgMTAuODAyNCAxMC4wMjAxIDEwLjU5IDEwLjIxNCAxMC41MjM1QzEwLjU2MDUgMTAuNDMwOCAxMC44MDI4IDEwLjUxNiAxMC45NTg1IDEwLjYzMjlDMTEuMDQxOSAxMC42OTU1IDExLjEwMzkgMTAuNzcgMTEuMTQzNCAxMC44Mzk0QzExLjE4NTQgMTAuOTExNCAxMS4xODg5IDEwLjk0OCAxMS4xOTEzIDExLjAxMjhDMTEuMjAwOSAxMS4zMjIzIDExLjMwNzYgMTEuNTkzNyAxMS41MDQgMTEuNzkxMUMxMS43MDY5IDExLjk5NSAxMS45NzQ3IDEyLjA4ODEgMTIuMjM0NSAxMi4wODNDMTIuNzY3IDEyLjA3MjcgMTMuMjYwNiAxMS42NTY4IDEzLjI4OCAxMC45ODQ3WiIvPiYjeGE7PGRlZnM+JiN4YTs8bGluZWFyR3JhZGllbnQgZ3JhZGllbnRVbml0cz0idXNlclNwYWNlT25Vc2UiIHkyPSIxNC43NDU4IiB4Mj0iMTMuNjg3NCIgeTE9IjIuMjY4OTQiIHgxPSIxLjQ1MDQzIiBpZD0icGFpbnQwX2xpbmVhcl8zODkwXzIxNTEzIj4mI3hhOzxzdG9wIHN0b3AtY29sb3I9IndoaXRlIi8+JiN4YTs8c3RvcCBzdG9wLWNvbG9yPSIjRUFFQ0VFIiBvZmZzZXQ9IjEiLz4mI3hhOzwvbGluZWFyR3JhZGllbnQ+JiN4YTs8bGluZWFyR3JhZGllbnQgZ3JhZGllbnRVbml0cz0idXNlclNwYWNlT25Vc2UiIHkyPSI5LjQxNzg5IiB4Mj0iMTAuNTkxOSIgeTE9IjQuNzA1IiB4MT0iNC42MzYiIGlkPSJwYWludDFfbGluZWFyXzM4OTBfMjE1MTMiPiYjeGE7PHN0b3Agc3RvcC1jb2xvcj0iIzAxOTVGRiIvPiYjeGE7PHN0b3Agc3RvcC1jb2xvcj0iIzExNDdFOSIgb2Zmc2V0PSIwLjk5MTAyOCIvPiYjeGE7PC9saW5lYXJHcmFkaWVudD4mI3hhOzxsaW5lYXJHcmFkaWVudCBncmFkaWVudFVuaXRzPSJ1c2VyU3BhY2VPblVzZSIgeTI9IjExLjg3NzMiIHgyPSIxMy4yNjI3IiB5MT0iOC4wNzA4MiIgeDE9IjguOTE1NjUiIGlkPSJwYWludDJfbGluZWFyXzM4OTBfMjE1MTMiPiYjeGE7PHN0b3Agc3RvcC1jb2xvcj0iIzEzNDhGRiIvPiYjeGE7PHN0b3Agc3RvcC1jb2xvcj0iIzA2MjM4RCIgb2Zmc2V0PSIxIi8+JiN4YTs8L2xpbmVhckdyYWRpZW50PiYjeGE7PGxpbmVhckdyYWRpZW50IGdyYWRpZW50VW5pdHM9InVzZXJTcGFjZU9uVXNlIiB5Mj0iMTEuODc3MyIgeDI9IjEzLjI2MjciIHkxPSI4LjA3MDgyIiB4MT0iOC45MTU2NSIgaWQ9InBhaW50M19saW5lYXJfMzg5MF8yMTUxMyI+JiN4YTs8c3RvcCBzdG9wLWNvbG9yPSIjMTM0OEZGIi8+JiN4YTs8c3RvcCBzdG9wLWNvbG9yPSIjMDYyMzhEIiBvZmZzZXQ9IjEiLz4mI3hhOzwvbGluZWFyR3JhZGllbnQ+JiN4YTs8bGluZWFyR3JhZGllbnQgZ3JhZGllbnRVbml0cz0idXNlclNwYWNlT25Vc2UiIHkyPSIxMS44NzczIiB4Mj0iMTMuMjYyNyIgeTE9IjguMDcwODIiIHgxPSI4LjkxNTY1IiBpZD0icGFpbnQ0X2xpbmVhcl8zODkwXzIxNTEzIj4mI3hhOzxzdG9wIHN0b3AtY29sb3I9IiMxMzQ4RkYiLz4mI3hhOzxzdG9wIHN0b3AtY29sb3I9IiMwNjIzOEQiIG9mZnNldD0iMSIvPiYjeGE7PC9saW5lYXJHcmFkaWVudD4mI3hhOzwvZGVmcz4mI3hhOzwvc3ZnPg==;fontStyle=0;fontSize=12;fontColor=#1D2D3E" parent="1" vertex="1">
          <mxGeometry x="682.75" y="629.4999999999998" width="32" height="32" as="geometry" />
        </mxCell>
        <mxCell id="r2Ocmoq0C5dt8iKspmja-199" value="Identity&#xa;Provisioning" style="shape=image;verticalLabelPosition=bottom;labelBackgroundColor=default;verticalAlign=top;aspect=fixed;imageAspect=0;image=data:image/svg+xml,PHN2ZyB4bWxucz0iaHR0cDovL3d3dy53My5vcmcvMjAwMC9zdmciIGZpbGw9Im5vbmUiIHZpZXdCb3g9IjAgMCAxNiAxNiIgaGVpZ2h0PSIxNiIgd2lkdGg9IjE2Ij4mI3hhOzxjaXJjbGUgc3Ryb2tlLXdpZHRoPSIwLjI4NTcwOCIgc3Ryb2tlPSIjRDVEQUREIiBmaWxsPSJ1cmwoI3BhaW50MF9saW5lYXJfMzg5MF8yMTUxNCkiIHI9IjcuODU2OTYiIGN5PSI3Ljk5Nzg2IiBjeD0iNy45OTg4NCIvPiYjeGE7PHBhdGggZmlsbD0idXJsKCNwYWludDFfbGluZWFyXzM4OTBfMjE1MTQpIiBkPSJNOS45NTE5NCA3LjUxODg5QzkuOTg5MjcgNy4yODAxNyAxMC4yMTMxIDcuMTE2OTEgMTAuNDUxOCA3LjE1NDI0QzExLjMwODMgNy4yODgxOSAxMi4xNTA3IDcuNjk1MzcgMTIuODQzNSA4LjM5MjA0QzEzLjAxMzkgOC41NjMzNiAxMy4wMTMxIDguODQwMzcgMTIuODQxOCA5LjAxMDc1QzEyLjY3MDUgOS4xODExNCAxMi4zOTM1IDkuMTgwMzcgMTIuMjIzMSA5LjAwOTA1QzExLjY2MjUgOC40NDUzNiAxMC45OTA1IDguMTI0MTIgMTAuMzE2NiA4LjAxODczQzEwLjA3NzkgNy45ODE0IDkuOTE0NjEgNy43NTc2MSA5Ljk1MTk0IDcuNTE4ODlaIiBjbGlwLXJ1bGU9ImV2ZW5vZGQiIGZpbGwtcnVsZT0iZXZlbm9kZCIvPiYjeGE7PHBhdGggZmlsbD0idXJsKCNwYWludDJfbGluZWFyXzM4OTBfMjE1MTQpIiBkPSJNMTAuMzM1NiAxMS4yNTQ5QzEwLjMzNTYgMTEuMDEzMyAxMC4xMzk3IDEwLjgxNzQgOS44OTgwOSAxMC44MTc0QzkuNjU2NDcgMTAuODE3NCA5LjQ2MDU5IDExLjAxMzMgOS40NjA1OSAxMS4yNTQ5QzkuNDYwNTkgMTEuNTk4NSA5LjU1MjY0IDExLjk2NDYgOS43MzYwMSAxMi4yNjA5QzkuNzU0OTQgMTIuMjkxNCA5Ljc3NDAxIDEyLjMyMTkgOS43OTY5NyAxMi4zNDkzQzkuOTM5MjIgMTIuNTE5NSAxMC4xOTY1IDEyLjU1ODEgMTAuMzgyMiAxMi40Mjk4QzEwLjU3OTkgMTIuMjkzMiAxMC42MzAyIDEyLjAyMjkgMTAuNDk1NiAxMS44MjQ0QzEwLjM5MDQgMTEuNjU4MyAxMC4zMzU2IDExLjQ1MDIgMTAuMzM1NiAxMS4yNTQ5WiIvPiYjeGE7PHBhdGggZmlsbD0idXJsKCNwYWludDNfbGluZWFyXzM4OTBfMjE1MTQpIiBkPSJNMTIuNjg3NSAxMC45ODQ3QzEyLjczMzUgOS44NTg1IDExLjg2NjIgOC45MTQzOCAxMC44NTY4IDguNTM1MjlDOS44MTExMiA4LjE0MjYgOC41MDMxNyA4LjMwNDQ2IDcuNTk3OTcgOS40ODIxNUM3LjQ1MDcyIDkuNjczNzIgNy40ODY2NiA5Ljk0ODM5IDcuNjc4MjMgMTAuMDk1NkM3Ljg2OTggMTAuMjQyOSA4LjE0NDQ3IDEwLjIwNyA4LjI5MTcyIDEwLjAxNTRDOC45Mjg4NyA5LjE4NjQzIDkuODA5NjQgOS4wNzY3MSAxMC41NDkxIDkuMzU0NDNDMTEuMzI0OCA5LjY0NTczIDExLjgzOTEgMTAuMzE0IDExLjgxMzIgMTAuOTQ5QzExLjgwODQgMTEuMDY3IDExLjc2ODYgMTEuMTI2OSAxMS43MzgxIDExLjE1NjdDMTEuNzAzNyAxMS4xOTA0IDExLjY1OTMgMTEuMjA3NCAxMS42MTcgMTEuMjA4MkMxMS41NzU1IDExLjIwOSAxMS41NDQ0IDExLjE5NDcgMTEuNTIzNyAxMS4xNzM5QzExLjUwNiAxMS4xNTYxIDExLjQ2NSAxMS4xMDI0IDExLjQ2NSAxMC45NjY5QzExLjQ2NSAxMC41OTI2IDExLjIyNzYgMTAuMTkxNiAxMC44ODMxIDkuOTMzMDhDMTAuNTEyMyA5LjY1NDcxIDkuOTg3NSA5LjUxMjU3IDkuMzcwODEgOS42ODI3M0w5LjM2MTc4IDkuNjg1MjJMOS4zNTI4NiA5LjY4ODA5QzguNzYyMzIgOS44Nzg1OSA4LjM4NTY1IDEwLjQzMDYgOC4zMDEwMSAxMS4wNzU1QzguMjE1NTQgMTEuNzI2OSA4LjQxNTY1IDEyLjQ5MzEgOC45Njc3MyAxMy4yMzgxQzkuMTExNTkgMTMuNDMyMiA5LjM4NTU4IDEzLjQ3MyA5LjU3OTcxIDEzLjMyOTFDOS43NzM4NSAxMy4xODUzIDkuODE0NiAxMi45MTEzIDkuNjcwNzQgMTIuNzE3MUM5LjIyNzMxIDEyLjExODggOS4xMTc5MyAxMS41NzUzIDkuMTY4NTggMTEuMTg5NEM5LjIxOTM2IDEwLjgwMjQgOS40MTk1NSAxMC41OSA5LjYxMzQ2IDEwLjUyMzVDOS45NTk4OCAxMC40MzA4IDEwLjIwMjIgMTAuNTE2IDEwLjM1NzkgMTAuNjMyOUMxMC40NDEzIDEwLjY5NTUgMTAuNTAzMyAxMC43NyAxMC41NDI4IDEwLjgzOTRDMTAuNTg0OCAxMC45MTE0IDEwLjU4ODMgMTAuOTQ4IDEwLjU5MDcgMTEuMDEyOEMxMC42MDAzIDExLjMyMjMgMTAuNzA3MSAxMS41OTM3IDEwLjkwMzQgMTEuNzkxMUMxMS4xMDYzIDExLjk5NSAxMS4zNzQxIDEyLjA4ODEgMTEuNjMzOSAxMi4wODNDMTIuMTY2NCAxMi4wNzI3IDEyLjY2IDExLjY1NjggMTIuNjg3NSAxMC45ODQ3WiIvPiYjeGE7PHBhdGggZmlsbD0idXJsKCNwYWludDRfbGluZWFyXzM4OTBfMjE1MTQpIiBkPSJNOC41NzMzMSA3LjI4NTg0QzguMzc4MDUgNy40ODExMSA4LjA2MTQ3IDcuNDgxMTEgNy44NjYyMSA3LjI4NTg1QzcuNjcwOTQgNy4wOTA1OSA3LjY3MDk0IDYuNzc0IDcuODY2MiA2LjU3ODc0TDguNTI5OCA1LjkxNTEzSDQuNTcwNzdDNC4yOTQ2MiA1LjkxNTEzIDQuMDcwNzcgNS42OTEyNyA0LjA3MDc3IDUuNDE1MTNDNC4wNzA3NyA1LjEzODk5IDQuMjk0NjIgNC45MTUxMyA0LjU3MDc3IDQuOTE1MTNIOC41Mjk4MUw3Ljg2NjIgNC4yNTE1QzcuNjcwOTQgNC4wNTYyMyA3LjY3MDk0IDMuNzM5NjUgNy44NjYyMSAzLjU0NDM5QzguMDYxNDcgMy4zNDkxMyA4LjM3ODA1IDMuMzQ5MTQgOC41NzMzMSAzLjU0NDRMMTAuMDkwNSA1LjA2MTU4QzEwLjI4NTcgNS4yNTY4NCAxMC4yODU3IDUuNTczNDIgMTAuMDkwNSA1Ljc2ODY4TDguNTczMzEgNy4yODU4NFoiLz4mI3hhOzxwYXRoIGZpbGw9InVybCgjcGFpbnQ1X2xpbmVhcl8zODkwXzIxNTE0KSIgZD0iTTQuNjYyNjEgNi43NzE2MkM0Ljg1Nzg3IDYuNTc2MzUgNS4xNzQ0NSA2LjU3NjM1IDUuMzY5NzIgNi43NzE2MUM1LjU2NDk4IDYuOTY2ODcgNS41NjQ5OCA3LjI4MzQ2IDUuMzY5NzIgNy40Nzg3Mkw0LjcwNjEyIDguMTQyMzNINi40MTIzOEM2LjY4ODUyIDguMTQyMzMgNi45MTIzOCA4LjM2NjE5IDYuOTEyMzggOC42NDIzM0M2LjkxMjM4IDguOTE4NDcgNi42ODg1MiA5LjE0MjMzIDYuNDEyMzggOS4xNDIzM0g0LjcwNjExTDUuMzY5NzIgOS44MDU5NkM1LjU2NDk4IDEwLjAwMTIgNS41NjQ5OCAxMC4zMTc4IDUuMzY5NzIgMTAuNTEzMUM1LjE3NDQ1IDEwLjcwODMgNC44NTc4NyAxMC43MDgzIDQuNjYyNjEgMTAuNTEzMUwzLjE0NTQ3IDguOTk1ODhDMi45NTAyMSA4LjgwMDYyIDIuOTUwMjEgOC40ODQwNCAzLjE0NTQ3IDguMjg4NzhMNC42NjI2MSA2Ljc3MTYyWiIvPiYjeGE7PGRlZnM+JiN4YTs8bGluZWFyR3JhZGllbnQgZ3JhZGllbnRVbml0cz0idXNlclNwYWNlT25Vc2UiIHkyPSIxNC43NDU4IiB4Mj0iMTMuNjg2OSIgeTE9IjIuMjY4OTQiIHgxPSIxLjQ0OTk1IiBpZD0icGFpbnQwX2xpbmVhcl8zODkwXzIxNTE0Ij4mI3hhOzxzdG9wIHN0b3AtY29sb3I9IndoaXRlIi8+JiN4YTs8c3RvcCBzdG9wLWNvbG9yPSIjRUFFQ0VFIiBvZmZzZXQ9IjEiLz4mI3hhOzwvbGluZWFyR3JhZGllbnQ+JiN4YTs8bGluZWFyR3JhZGllbnQgZ3JhZGllbnRVbml0cz0idXNlclNwYWNlT25Vc2UiIHkyPSIxMS44NzczIiB4Mj0iMTIuNjYyMSIgeTE9IjguMDcwODIiIHgxPSI4LjMxNTA2IiBpZD0icGFpbnQxX2xpbmVhcl8zODkwXzIxNTE0Ij4mI3hhOzxzdG9wIHN0b3AtY29sb3I9IiMxMzQ4RkYiLz4mI3hhOzxzdG9wIHN0b3AtY29sb3I9IiMwNjIzOEQiIG9mZnNldD0iMSIvPiYjeGE7PC9saW5lYXJHcmFkaWVudD4mI3hhOzxsaW5lYXJHcmFkaWVudCBncmFkaWVudFVuaXRzPSJ1c2VyU3BhY2VPblVzZSIgeTI9IjExLjg3NzMiIHgyPSIxMi42NjIxIiB5MT0iOC4wNzA4MiIgeDE9IjguMzE1MDYiIGlkPSJwYWludDJfbGluZWFyXzM4OTBfMjE1MTQiPiYjeGE7PHN0b3Agc3RvcC1jb2xvcj0iIzEzNDhGRiIvPiYjeGE7PHN0b3Agc3RvcC1jb2xvcj0iIzA2MjM4RCIgb2Zmc2V0PSIxIi8+JiN4YTs8L2xpbmVhckdyYWRpZW50PiYjeGE7PGxpbmVhckdyYWRpZW50IGdyYWRpZW50VW5pdHM9InVzZXJTcGFjZU9uVXNlIiB5Mj0iMTEuODc3MyIgeDI9IjEyLjY2MjEiIHkxPSI4LjA3MDgyIiB4MT0iOC4zMTUwNiIgaWQ9InBhaW50M19saW5lYXJfMzg5MF8yMTUxNCI+JiN4YTs8c3RvcCBzdG9wLWNvbG9yPSIjMTM0OEZGIi8+JiN4YTs8c3RvcCBzdG9wLWNvbG9yPSIjMDYyMzhEIiBvZmZzZXQ9IjEiLz4mI3hhOzwvbGluZWFyR3JhZGllbnQ+JiN4YTs8bGluZWFyR3JhZGllbnQgZ3JhZGllbnRVbml0cz0idXNlclNwYWNlT25Vc2UiIHkyPSI5LjU1MzU0IiB4Mj0iOS4xNjg1IiB5MT0iNC40ODM4NyIgeDE9IjQuMDg0MDEiIGlkPSJwYWludDRfbGluZWFyXzM4OTBfMjE1MTQiPiYjeGE7PHN0b3Agc3RvcC1jb2xvcj0iIzAxOTVGRiIvPiYjeGE7PHN0b3Agc3RvcC1jb2xvcj0iIzExNDdFOSIgb2Zmc2V0PSIwLjk5MTAyOCIvPiYjeGE7PC9saW5lYXJHcmFkaWVudD4mI3hhOzxsaW5lYXJHcmFkaWVudCBncmFkaWVudFVuaXRzPSJ1c2VyU3BhY2VPblVzZSIgeTI9IjkuNTUzNTQiIHgyPSI5LjE2ODUiIHkxPSI0LjQ4Mzg3IiB4MT0iNC4wODQwMSIgaWQ9InBhaW50NV9saW5lYXJfMzg5MF8yMTUxNCI+JiN4YTs8c3RvcCBzdG9wLWNvbG9yPSIjMDE5NUZGIi8+JiN4YTs8c3RvcCBzdG9wLWNvbG9yPSIjMTE0N0U5IiBvZmZzZXQ9IjAuOTkxMDI4Ii8+JiN4YTs8L2xpbmVhckdyYWRpZW50PiYjeGE7PC9kZWZzPiYjeGE7PC9zdmc+;fontStyle=0;fontSize=12;fontColor=#1D2D3E" parent="1" vertex="1">
          <mxGeometry x="772.75" y="629.4999999999998" width="32" height="32" as="geometry" />
        </mxCell>
        <mxCell id="r2Ocmoq0C5dt8iKspmja-200" value="" style="endArrow=none;html=1;strokeColor=#188918;bendable=1;rounded=0;endFill=0;endSize=3;strokeWidth=1.5;entryX=0.5;entryY=0;entryDx=0;entryDy=0;dashed=1;" parent="1" edge="1">
          <mxGeometry width="50" height="50" relative="1" as="geometry">
            <mxPoint x="594.2829015544044" y="705.9999999999998" as="sourcePoint" />
            <mxPoint x="595.0000000000005" y="745.9999999999998" as="targetPoint" />
            <Array as="points" />
          </mxGeometry>
        </mxCell>
        <mxCell id="r2Ocmoq0C5dt8iKspmja-201" value="&lt;font color=&quot;#188918&quot; size=&quot;1&quot;&gt;&lt;b style=&quot;&quot;&gt;SAML2/OIDC&lt;/b&gt;&lt;/font&gt;" style="rounded=1;whiteSpace=wrap;html=1;arcSize=50;strokeColor=#188918;fillColor=#f5fae5;fontColor=#266f3a;strokeWidth=1.5;" parent="1" vertex="1">
          <mxGeometry x="558.0000000000005" y="721.9999999999998" width="72" height="16" as="geometry" />
        </mxCell>
        <mxCell id="r2Ocmoq0C5dt8iKspmja-202" value="" style="endArrow=none;html=1;strokeColor=#470BED;bendable=1;rounded=0;endFill=0;endSize=3;strokeWidth=1.5;entryX=0.5;entryY=0;entryDx=0;entryDy=0;dashed=1;" parent="1" edge="1">
          <mxGeometry width="50" height="50" relative="1" as="geometry">
            <mxPoint x="671.7700000000004" y="705.9999999999998" as="sourcePoint" />
            <mxPoint x="671.7700000000004" y="745.9999999999998" as="targetPoint" />
            <Array as="points" />
          </mxGeometry>
        </mxCell>
        <mxCell id="r2Ocmoq0C5dt8iKspmja-203" value="&lt;div style=&quot;&quot;&gt;&lt;font style=&quot;font-size: 10px;&quot;&gt;3rd party identity provider /&lt;br&gt;identity management&lt;/font&gt;&lt;br&gt;&lt;/div&gt;" style="text;html=1;align=left;verticalAlign=middle;resizable=0;points=[];autosize=1;strokeColor=none;fillColor=none;fontSize=12;fontColor=#556B82;fontFamily=Helvetica;" parent="1" vertex="1">
          <mxGeometry x="612.0000000000005" y="748.9999999999998" width="140" height="40" as="geometry" />
        </mxCell>
        <mxCell id="r2Ocmoq0C5dt8iKspmja-204" value="" style="shape=image;verticalLabelPosition=bottom;labelBackgroundColor=default;verticalAlign=top;aspect=fixed;imageAspect=0;image=data:image/svg+xml,PHN2ZyB4bWxucz0iaHR0cDovL3d3dy53My5vcmcvMjAwMC9zdmciIGZpbGw9Im5vbmUiIHZpZXdCb3g9IjAgMCAxNyAxNyIgaGVpZ2h0PSIxNyIgd2lkdGg9IjE3Ij4mI3hhOzxwYXRoIGZpbGw9InVybCgjcGFpbnQwX2xpbmVhcl83NzVfOCkiIGQ9Ik0xMy42NzU2IDguNjM3NDhDMTQuNjQ2OSA5LjE3MTcxIDE1LjQ2NDcgOS45NDY0NiAxNi4wNTA2IDEwLjg4NzVDMTYuNjU0NiAxMS44NDU1IDE2Ljk1NjYgMTIuOTI4NSAxNi45NTY2IDE0LjEzNzVWMTUuOTE4NUMxNi45NTY2IDE2LjUwMTUgMTYuNjU0NiAxNi43OTM1IDE2LjA1MDYgMTYuNzkzNUg1LjQyNTY0QzUuMTU0NjQgMTYuNzkzNSA0LjkzNTY0IDE2LjcxMDUgNC43Njg2NCAxNi41NDM1QzQuNjAyNjQgMTYuMzk3NSA0LjUxODY0IDE2LjE4OTUgNC41MTg2NCAxNS45MTg1VjE1LjAxMjVIMS44NjI2NEMxLjI3OTY0IDE1LjAxMjUgMC45ODc2NCAxNC43MjA1IDAuOTg3NjQgMTQuMTM3NVYxMi4zNTY1QzAuOTg3NjQgMTEuNDgwNSAxLjIyNzY0IDEwLjY4OTUgMS43MDY2NCA5Ljk4MDQ4QzIuMTY0MzUgOS4yOTEwOSAyLjgwMjA3IDguNzQwMTcgMy41NTA2NCA4LjM4NzQ4QzMuMjg2MjIgOC4wODYyMyAzLjA4NDMxIDcuNzM1NDMgMi45NTY2NCA3LjM1NTQ4QzIuODMzNCA2Ljk3MTgxIDIuNzY5OTkgNi41NzE0NSAyLjc2ODY0IDYuMTY4NDhDMi43Njg2NCA1LjY2ODQ4IDIuODYyNjQgNS4yMTA0OCAzLjA1MDY0IDQuNzkzNDhDMy4yMzc2NCA0LjM1NTQ4IDMuNDg3NjQgMy45ODA0OCAzLjgwMDY0IDMuNjY4NDhDNC4xMjQ3OCAzLjM0MTYxIDQuNTA2MDggMy4wNzY5IDQuOTI1NjQgMi44ODc0OEM1LjM1OTkyIDIuNzAwNzMgNS44Mjc5MSAyLjYwNTA5IDYuMzAwNjQgMi42MDY0OEM2LjQ0NjY0IDIuNjA2NDggNi41ODE2NCAyLjYxNjQ4IDYuNzA2NjQgMi42MzY0OEM2LjgzMTY0IDIuNjM2NDggNi45NjY2NCAyLjY1ODQ4IDcuMTEyNjQgMi42OTk0OEM3LjUwMjE5IDIuMTIxOSA4LjAyODQ3IDEuNjQ5NTYgOC42NDQ2NCAxLjMyNDQ4QzkuMjkxNTggMC45OTA5MiAxMC4wMDk4IDAuODE5MzQzIDEwLjczNzYgMC44MjQ0NzZDMTEuMzYyNiAwLjgyNDQ3NiAxMS45NDY2IDAuOTM5NDc2IDEyLjQ4NzYgMS4xNjg0OEMxMy4wMjk2IDEuMzk4NDggMTMuNDk3NiAxLjcyMDQ4IDEzLjg5MzYgMi4xMzc0OEMxNC4yODk2IDIuNTMzNDggMTQuNjAyNiAzLjAwMTQ4IDE0LjgzMTYgMy41NDM0OEMxNS4wNjE2IDQuMDYzNDggMTUuMTc1NiA0LjYzNzQ4IDE1LjE3NTYgNS4yNjI0OEMxNS4xNzc3IDUuOTE5NDggMTUuMDM5MiA2LjU2OTMzIDE0Ljc2OTYgNy4xNjg0OEMxNC41MjkgNy43MzkzMiAxNC4xNTM2IDguMjQzMzYgMTMuNjc1NiA4LjYzNzQ4Wk0xMC43MzY2IDIuNjA1NDhDOS45ODY2NCAyLjYwNTQ4IDkuMzUxNjQgMi44NjU0OCA4LjgzMDY0IDMuMzg3NDhDOC4zMzA2NCAzLjg4NzQ4IDguMDgwNjQgNC41MTI0OCA4LjA4MDY0IDUuMjYyNDhDOC4wODA2NCA2LjAxMjQ4IDguMzMwNjQgNi42NDc0OCA4LjgzMDY0IDcuMTY4NDhDOS4zNTA2NCA3LjY2ODQ4IDkuOTg2NjQgNy45MTg0OCAxMC43MzY2IDcuOTE4NDhDMTEuNDg2NiA3LjkxODQ4IDEyLjExMTYgNy42Njg0OCAxMi42MTE2IDcuMTY4NDhDMTMuMTMyNiA2LjY0ODQ4IDEzLjM5MjYgNi4wMTI0OCAxMy4zOTI2IDUuMjYyNDhDMTMuMzkyNiA0LjUxMjQ4IDEzLjEzMjYgMy44ODc0OCAxMi42MTI2IDMuMzg3NDhDMTIuMTEyNiAyLjg2NjQ4IDExLjQ4NjYgMi42MDU0OCAxMC43MzY2IDIuNjA1NDhaTTYuMjA2NjQgNC4zODg0OEM1LjcyNjY0IDQuMzg4NDggNS4zMTA2NCA0LjU2NTQ4IDQuOTU2NjQgNC45MTk0OEM0LjYyMzY0IDUuMjUyNDggNC40NTY2NCA1LjY2OTQ4IDQuNDU2NjQgNi4xNjk0OEM0LjQ1NjY0IDYuNjQ5NDggNC42MjM2NCA3LjA2NTQ4IDQuOTU2NjQgNy40MTk0OEM1LjMxMDY0IDcuNzUyNDggNS43MjY2NCA3LjkxOTQ4IDYuMjA2NjQgNy45MTk0OEg3LjIwNjY0QzYuOTI3MDggNy41NDg5OCA2LjcwNTg1IDcuMTM3ODkgNi41NTA2NCA2LjcwMDQ4QzYuMzg3MDYgNi4yMzg5NSA2LjMwMjU0IDUuNzUzMTMgNi4zMDA2NCA1LjI2MzQ4VjQuODIzNDhDNi4zMTczMiA0LjY3NTEzIDYuMzQ4NDcgNC41Mjg3NiA2LjM5MzY0IDQuMzg2NDhINi4yMDY2NFY0LjM4ODQ4Wk0yLjc2ODY0IDEzLjI2MzVINC42MTI2NEM0LjgwMDY0IDExLjgyNTUgNS4zOTM2NCAxMC42Mzg1IDYuMzkzNjQgOS43MDA0N0g1LjQyNjY0QzQuNjc2NjQgOS43MDA0NyA0LjA0MDY0IDkuOTYwNDcgMy41MTk2NCAxMC40ODE1QzMuMDE5NjQgMTAuOTgxNSAyLjc2OTY0IDExLjYwNzUgMi43Njk2NCAxMi4zNTc1TDIuNzY4NjQgMTMuMjYzNVpNMTUuMTc1NiAxNC4xMzg1QzE1LjE4MjYgMTMuNTQ3NyAxNS4wNjU0IDEyLjk2MjEgMTQuODMxNiAxMi40MTk1QzE0LjYxMzMgMTEuODk0MyAxNC4yOTQ3IDExLjQxNjcgMTMuODkzNiAxMS4wMTM1QzEzLjQ5NzQgMTAuNTk2MyAxMy4wMTg1IDEwLjI2NjMgMTIuNDg3NiAxMC4wNDQ1QzExLjkzMzUgOS44MTI3MyAxMS4zMzgyIDkuNjk1NzEgMTAuNzM3NiA5LjcwMDQ3QzEwLjExMjYgOS43MDA0NyA5LjUyOTY0IDkuODE1NDggOC45ODc2NCAxMC4wNDQ1QzguNDY3NjQgMTAuMjc0NSA3Ljk5NzY0IDEwLjU5NjUgNy41ODE2NCAxMS4wMTM1QzcuMTgwNTggMTEuNDE2NyA2Ljg2MTk3IDExLjg5NDMgNi42NDM2NCAxMi40MTk1QzYuNDEwMjggMTIuOTYyMiA2LjI5MzQzIDEzLjU0NzggNi4zMDA2NCAxNC4xMzg1VjE1LjAxMzVIMTUuMTc1NlYxNC4xMzg1WiIvPiYjeGE7PGRlZnM+JiN4YTs8bGluZWFyR3JhZGllbnQgZ3JhZGllbnRVbml0cz0idXNlclNwYWNlT25Vc2UiIHkyPSIxNi43OTM1IiB4Mj0iOC45NzIxNCIgeTE9IjAuODI0MzY0IiB4MT0iOC45NzIxNCIgaWQ9InBhaW50MF9saW5lYXJfNzc1XzgiPiYjeGE7PHN0b3Agc3RvcC1jb2xvcj0iIzVCNzM4QiIvPiYjeGE7PHN0b3Agc3RvcC1jb2xvcj0iIzIyMzU0OCIgb2Zmc2V0PSIxIi8+JiN4YTs8L2xpbmVhckdyYWRpZW50PiYjeGE7PC9kZWZzPiYjeGE7PC9zdmc+;" parent="1" vertex="1">
          <mxGeometry x="577.0000000000005" y="752.9999999999998" width="28" height="28" as="geometry" />
        </mxCell>
        <mxCell id="r2Ocmoq0C5dt8iKspmja-205" value="&lt;font size=&quot;1&quot;&gt;&lt;b style=&quot;&quot;&gt;SCIM&lt;/b&gt;&lt;/font&gt;" style="rounded=1;whiteSpace=wrap;html=1;arcSize=50;strokeColor=#470BED;fillColor=#f1ecff;fontColor=#470bed;strokeWidth=1.5;" parent="1" vertex="1">
          <mxGeometry x="650.9900000000005" y="721.9999999999998" width="38.01" height="16" as="geometry" />
        </mxCell>
        <mxCell id="r2Ocmoq0C5dt8iKspmja-206" style="edgeStyle=orthogonalEdgeStyle;rounded=0;orthogonalLoop=1;jettySize=auto;html=1;exitX=1;exitY=0.5;exitDx=0;exitDy=0;strokeColor=#475e75;strokeWidth=1.5;align=center;verticalAlign=middle;fontFamily=Arial;fontSize=12;fontColor=default;labelBackgroundColor=default;startArrow=none;startFill=0;startSize=4;endArrow=blockThin;endFill=1;endSize=4;exitPerimeter=0;entryX=0;entryY=0.25;entryDx=0;entryDy=0;" parent="1" source="r2Ocmoq0C5dt8iKspmja-175" target="r2Ocmoq0C5dt8iKspmja-188" edge="1">
          <mxGeometry relative="1" as="geometry">
            <Array as="points">
              <mxPoint x="1140" y="380" />
              <mxPoint x="1140" y="509" />
            </Array>
            <mxPoint x="1284.25" y="475.5" as="targetPoint" />
            <mxPoint x="988" y="447" as="sourcePoint" />
          </mxGeometry>
        </mxCell>
        <mxCell id="r2Ocmoq0C5dt8iKspmja-207" value="" style="endArrow=none;html=1;strokeColor=#5B738B;bendable=1;rounded=1;endFill=0;endSize=3;strokeWidth=3;jumpStyle=gap;fontFamily=Arial;" parent="1" edge="1">
          <mxGeometry width="50" height="50" relative="1" as="geometry">
            <mxPoint x="1218" y="61" as="sourcePoint" />
            <mxPoint x="1218" y="724" as="targetPoint" />
            <Array as="points" />
          </mxGeometry>
        </mxCell>
        <mxCell id="r2Ocmoq0C5dt8iKspmja-208" value="" style="rounded=0;orthogonalLoop=1;jettySize=auto;html=1;fontSize=18;strokeColor=#188918;fontFamily=Helvetica;fontColor=default;targetPerimeterSpacing=15;endSize=4;startSize=4;endArrow=none;endFill=0;strokeWidth=1.5;startArrow=none;startFill=0;edgeStyle=orthogonalEdgeStyle;exitX=0.478;exitY=1.042;exitDx=0;exitDy=0;exitPerimeter=0;entryX=0.5;entryY=0;entryDx=0;entryDy=0;" parent="1" source="r2Ocmoq0C5dt8iKspmja-111" target="r2Ocmoq0C5dt8iKspmja-209" edge="1">
          <mxGeometry relative="1" as="geometry">
            <mxPoint x="466" y="659" as="targetPoint" />
            <mxPoint x="81" y="334" as="sourcePoint" />
            <Array as="points">
              <mxPoint x="83" y="334" />
            </Array>
          </mxGeometry>
        </mxCell>
        <mxCell id="r2Ocmoq0C5dt8iKspmja-209" value="&lt;font color=&quot;#188918&quot; size=&quot;1&quot;&gt;&lt;b style=&quot;&quot;&gt;SAML2/OIDC&lt;/b&gt;&lt;/font&gt;" style="rounded=1;whiteSpace=wrap;html=1;arcSize=50;strokeColor=#188918;fillColor=#f5fae5;fontColor=#266f3a;strokeWidth=1.5;" parent="1" vertex="1">
          <mxGeometry x="47.000000000000455" y="648.0000000000001" width="72" height="16" as="geometry" />
        </mxCell>
      </root>
    </mxGraphModel>
  </diagram>
</mxfile>
